<svg xmlns="http://www.w3.org/2000/svg" data-name="Layer 1" viewBox="0 0 100 100" x="0px" y="0px"><title>Artboard 4</title><path fill="#fff" d="M97.75,68.68A4.61,4.61,0,0,0,92,67.93C84.69,72.41,70.3,81,70.3,81a12,12,0,0,1-5.95,1.74L48,82.86h0a1.09,1.09,0,0,1-.09-2.17l16.73-.3a3.92,3.92,0,0,0,.12-7.83l-9.9-.73A49.33,49.33,0,0,1,42.7,69.31c-12.58-4.65-20-2.26-24-1a4.67,4.67,0,0,0-4.16-2.15l-8.65.39a5.09,5.09,0,0,0-5,5.26l1,19.2a5.15,5.15,0,0,0,5.46,4.79L16,95.4A4.61,4.61,0,0,0,19.84,93a3.36,3.36,0,0,0,2.2.83h.15l36.72,2.44q.7,0,1.41,0A23.65,23.65,0,0,0,73.83,92l23.34-16.4a4.53,4.53,0,0,0,.68-6.86ZM10.57,91.32a2.84,2.84,0,1,1,3-2.77A2.89,2.89,0,0,1,10.57,91.32ZM70.26,73l13.56-7a4.32,4.32,0,0,1,5,.6c-6,3.69-13,7.92-17.61,10.76A6.61,6.61,0,0,0,70.26,73Zm-7-3.31,12.79-5a4.27,4.27,0,0,1,4.17.37L68.31,71a6.6,6.6,0,0,0-3.37-1.15ZM42.91,6.87A2.15,2.15,0,0,1,45.39,3.8,71.31,71.31,0,0,0,57.54,6.16a2.15,2.15,0,0,1,1.35,3.59l-1.71,2.89H45.4ZM42,64.26H60.73a14.46,14.46,0,0,0,12.37-22L59.91,20.53a2.15,2.15,0,0,0-.15-4.29H42.35a2.15,2.15,0,0,0,0,4.31h.45L29.62,42.3A14.46,14.46,0,0,0,42,64.26Zm7.68-31.51V31.23a1.62,1.62,0,1,1,3.23,0v1.29a14.09,14.09,0,0,1,3,.43,1.91,1.91,0,0,1-.49,3.75,1.85,1.85,0,0,1-.53-.08A10.13,10.13,0,0,0,52,36.22c-2.14,0-2.84.92-2.84,1.85,0,1.09,1.15,1.78,4,2.84,3.93,1.39,5.51,3.2,5.51,6.17s-2.08,5.44-5.87,6.1v1.75a1.62,1.62,0,1,1-3.23,0V53.41a15.24,15.24,0,0,1-3.94-.7,1.91,1.91,0,0,1-1.27-2.29l0-.16a1.86,1.86,0,0,1,1.82-1.4,2,2,0,0,1,.63.11,11.11,11.11,0,0,0,3.57.61c1.88,0,3.17-.73,3.17-2s-1.06-2-3.5-2.87c-3.53-1.19-5.94-2.84-5.94-6C44.1,35.72,46.15,33.44,49.68,32.75Z"/></svg>