<?xml version="1.0" encoding="iso-8859-1"?>
<!-- Generator: Adobe Illustrator 18.0.0, SVG Export Plug-In . SVG Version: 6.00 Build 0)  -->
<!DOCTYPE svg PUBLIC "-//W3C//DTD SVG 1.1//EN" "http://www.w3.org/Graphics/SVG/1.1/DTD/svg11.dtd">
<svg version="1.1" id="Capa_1" xmlns="http://www.w3.org/2000/svg" xmlns:xlink="http://www.w3.org/1999/xlink" x="0px" y="0px"
	 viewBox="0 0 60 60" style="enable-background:new 0 0 60 60;" xml:space="preserve">
<g>
	<path d="M48,0H0v7h3v1v47.783C3,58.108,4.892,60,7.217,60h33.566C43.108,60,45,58.108,45,55.783V8V7h3V0z M17,52H9V42h8V52z M17,40
		H9V30h8V40z M17,28H9V18h8V28z M9,16V8h8v8H9z M31.71,50.71C31.52,50.89,31.26,51,31,51s-0.521-0.11-0.71-0.29
		C30.109,50.52,30,50.27,30,50c0-0.26,0.109-0.521,0.29-0.71c0.39-0.38,1.04-0.37,1.42,0C31.89,49.479,32,49.74,32,50
		C32,50.27,31.89,50.52,31.71,50.71z M32,46c0,0.553-0.447,1-1,1s-1-0.447-1-1v-2c0-0.553,0.447-1,1-1s1,0.447,1,1V46z M32,40
		c0,0.553-0.447,1-1,1s-1-0.447-1-1v-1c0-0.553,0.447-1,1-1s1,0.447,1,1V40z M32,35c0,0.553-0.447,1-1,1s-1-0.447-1-1v-2
		c0-0.553,0.447-1,1-1s1,0.447,1,1V35z M32,29c0,0.553-0.447,1-1,1s-1-0.447-1-1v-1c0-0.553,0.447-1,1-1s1,0.447,1,1V29z M37,50
		c0,0.553-0.447,1-1,1s-1-0.447-1-1v-9c0-0.553,0.447-1,1-1s1,0.447,1,1V50z M37,37c0,0.553-0.447,1-1,1s-1-0.447-1-1v-9
		c0-0.553,0.447-1,1-1s1,0.447,1,1V37z M40,13.255v7.49C40,21.988,38.988,23,37.745,23h-1.49h-8C27.012,23,26,21.988,26,20.745v-6
		v-1.49V8h14V13.255z M46,5h-1V4H3v1H2V2h44V5z"/>
	<path d="M59.707,33.293l-5.999-5.999c-0.092-0.093-0.203-0.166-0.326-0.217c-0.244-0.101-0.519-0.101-0.764,0
		c-0.123,0.051-0.234,0.125-0.326,0.217l-5.999,5.999c-0.391,0.391-0.391,1.023,0,1.414C46.488,34.902,46.744,35,47,35
		s0.512-0.098,0.707-0.293L52,30.414V56c0,0.553,0.447,1,1,1s1-0.447,1-1V30.414l4.293,4.293C58.488,34.902,58.744,35,59,35
		s0.512-0.098,0.707-0.293C60.098,34.316,60.098,33.684,59.707,33.293z"/>
	<path d="M28.255,15h5.49C34.988,15,36,16.012,36,17.255v3.49C36,20.886,36.114,21,36.255,21h1.49C37.886,21,38,20.886,38,20.745
		v-7.49C38,13.114,37.886,13,37.745,13h-9.49C28.114,13,28,13.114,28,13.255v1.49C28,14.886,28.114,15,28.255,15z"/>
	<path d="M38,11.026V9h-2v2h1.745C37.832,11,37.915,11.016,38,11.026z"/>
	<rect x="11" y="20" width="4" height="6"/>
	<path d="M34,17.255C34,17.114,33.886,17,33.745,17H32v4h2.026C34.016,20.915,34,20.832,34,20.745V17.255z"/>
	<rect x="11" y="32" width="4" height="6"/>
	<rect x="11" y="44" width="4" height="6"/>
	<rect x="11" y="9" width="4" height="5"/>
	<path d="M30,11V9h-2v2.026C28.085,11.016,28.168,11,28.255,11H30z"/>
	<path d="M28.255,21H30v-4h-1.745c-0.087,0-0.17-0.016-0.255-0.026v3.771C28,20.886,28.114,21,28.255,21z"/>
	<rect x="32" y="9" width="2" height="2"/>
</g>
<g>
</g>
<g>
</g>
<g>
</g>
<g>
</g>
<g>
</g>
<g>
</g>
<g>
</g>
<g>
</g>
<g>
</g>
<g>
</g>
<g>
</g>
<g>
</g>
<g>
</g>
<g>
</g>
<g>
</g>
</svg>
