<?xml version="1.0" encoding="iso-8859-1"?>
<!-- Generator: Adobe Illustrator 18.0.0, SVG Export Plug-In . SVG Version: 6.00 Build 0)  -->
<!DOCTYPE svg PUBLIC "-//W3C//DTD SVG 1.1//EN" "http://www.w3.org/Graphics/SVG/1.1/DTD/svg11.dtd">
<svg version="1.1" id="Capa_1" xmlns="http://www.w3.org/2000/svg" xmlns:xlink="http://www.w3.org/1999/xlink" x="0px" y="0px"
	 viewBox="0 0 60 60" style="enable-background:new 0 0 60 60;" xml:space="preserve">
<g>
	<path d="M56.62,9H3.38C1.516,9,0,10.517,0,12.38v4V22v5.62C0,29.483,1.516,31,3.38,31H4v-9h2v24v2v1v2v3h48v-3v-2v-1v-2V22h2v9
		h0.62c1.864,0,3.38-1.517,3.38-3.38V22v-5.62v-4C60,10.517,58.484,9,56.62,9z M14,46H8v-6C11.314,40,14,42.686,14,46z M52,52H8v-1
		h44V52z M52,49H8v-1h44V49z M52,46h-6c0-3.314,2.686-6,6-6V46z M39.671,22.332C41.818,24.727,43,27.805,43,31
		c0,7.168-5.832,13-13,13s-13-5.832-13-13c0-3.195,1.182-6.273,3.329-8.668L20.627,22h5.967h0.006h12.772L39.671,22.332z M54,20v-1
		H6v1H4v-2h52v2H54z"/>
	<path d="M0,0v6c0,0.553,0.448,1,1,1s1-0.447,1-1V2h56v4c0,0.553,0.448,1,1,1s1-0.447,1-1V0H0z"/>
	<path d="M59,33c-0.552,0-1,0.447-1,1v24H2V34c0-0.553-0.448-1-1-1s-1,0.447-1,1v26h60V34C60,33.447,59.552,33,59,33z"/>
	<path d="M32.623,32.053c-0.046-0.438-0.272-0.847-0.622-1.118L31,30.156v3.878c0.494-0.176,0.944-0.464,1.292-0.875
		C32.548,32.855,32.666,32.463,32.623,32.053z"/>
	<path d="M27.999,25.288L29,26.067V24h-1.62C27.378,24.484,27.591,24.971,27.999,25.288z"/>
	<path d="M25.384,24h-3.852C19.896,25.975,19,28.443,19,31c0,6.065,4.935,11,11,11s11-4.935,11-11c0-2.557-0.896-5.025-2.532-7H31
		v3.623l2.229,1.734c0.777,0.604,1.281,1.511,1.383,2.488c0.1,0.957-0.182,1.882-0.793,2.605c-0.734,0.867-1.728,1.446-2.819,1.668
		V37c0,0.553-0.448,1-1,1s-1-0.447-1-1v-0.878c-2.279-0.465-4-2.484-4-4.899c0-0.553,0.448-1,1-1s1,0.447,1,1
		c0,1.302,0.839,2.402,2,2.816V28.6l-2.229-1.734C25.872,26.168,25.386,25.087,25.384,24z"/>
</g>
<g>
</g>
<g>
</g>
<g>
</g>
<g>
</g>
<g>
</g>
<g>
</g>
<g>
</g>
<g>
</g>
<g>
</g>
<g>
</g>
<g>
</g>
<g>
</g>
<g>
</g>
<g>
</g>
<g>
</g>
</svg>
