<?xml version="1.0" encoding="iso-8859-1"?>
<!-- Generator: Adobe Illustrator 18.0.0, SVG Export Plug-In . SVG Version: 6.00 Build 0)  -->
<!DOCTYPE svg PUBLIC "-//W3C//DTD SVG 1.1//EN" "http://www.w3.org/Graphics/SVG/1.1/DTD/svg11.dtd">
<svg version="1.1" id="Capa_1" xmlns="http://www.w3.org/2000/svg" xmlns:xlink="http://www.w3.org/1999/xlink" x="0px" y="0px"
	 viewBox="0 0 58.414 58.414" style="enable-background:new 0 0 58.414 58.414;" xml:space="preserve">
<path d="M50.084,46.877l-0.463-0.463H40.2c-0.553,0-1-0.447-1-1s0.447-1,1-1h10.007V0l-3,3l-3-3l-3,3l-3-3l-3,3l-3-3l-3,3l-3-3l-3,3
	l-3-3l-3,3l-3-3l-3,3l-3-3v44.159l0.297,0.255h5.419c0.553,0,1,0.447,1,1s-0.447,1-1,1H8.717l-0.475,0.455l-2.773,8.806
	l-0.035,0.153c-0.097,0.649,0.093,1.307,0.521,1.804s1.05,0.782,1.706,0.782h43.092c0.656,0,1.277-0.285,1.706-0.782
	s0.618-1.154,0.521-1.804L50.084,46.877z M21.207,12.414c2.206,0,4,1.794,4,4c0,0.553-0.447,1-1,1s-1-0.447-1-1c0-1.103-0.897-2-2-2
	s-2,0.897-2,2c0,0.553-0.447,1-1,1s-1-0.447-1-1C17.207,14.208,19.001,12.414,21.207,12.414z M24.114,46.414h-6.907
	c-0.553,0-1-0.447-1-1s0.447-1,1-1h6.907c0.553,0,1,0.447,1,1S24.667,46.414,24.114,46.414z M35.352,46.414h-4.145
	c-0.553,0-1-0.447-1-1s0.447-1,1-1h4.145c0.553,0,1,0.447,1,1S35.904,46.414,35.352,46.414z M38.207,24.414c0,4.963-4.037,9-9,9
	s-9-4.037-9-9v-6c0-0.553,0.447-1,1-1s1,0.447,1,1v6c0,3.859,3.141,7,7,7s7-3.141,7-7v-6c0-0.553,0.447-1,1-1s1,0.447,1,1V24.414z
	 M37.207,14.414c-1.103,0-2,0.897-2,2c0,0.553-0.447,1-1,1s-1-0.447-1-1c0-2.206,1.794-4,4-4s4,1.794,4,4c0,0.553-0.447,1-1,1
	s-1-0.447-1-1C39.207,15.312,38.31,14.414,37.207,14.414z"/>
<g>
</g>
<g>
</g>
<g>
</g>
<g>
</g>
<g>
</g>
<g>
</g>
<g>
</g>
<g>
</g>
<g>
</g>
<g>
</g>
<g>
</g>
<g>
</g>
<g>
</g>
<g>
</g>
<g>
</g>
</svg>
