<?xml version="1.0" encoding="iso-8859-1"?>
<!-- Generator: Adobe Illustrator 18.0.0, SVG Export Plug-In . SVG Version: 6.00 Build 0)  -->
<!DOCTYPE svg PUBLIC "-//W3C//DTD SVG 1.1//EN" "http://www.w3.org/Graphics/SVG/1.1/DTD/svg11.dtd">
<svg version="1.1" id="Capa_1" xmlns="http://www.w3.org/2000/svg" xmlns:xlink="http://www.w3.org/1999/xlink" x="0px" y="0px"
	 viewBox="0 0 60 60" style="enable-background:new 0 0 60 60;" xml:space="preserve">
<g>
	<polygon points="15,16 15,9.851 10.081,16 	"/>
	<polygon points="45,16 49.919,16 45,9.851 	"/>
	<path d="M16.793,6.42c0.036,0.05,0.075,0.095,0.101,0.15c0.008,0.017,0.021,0.03,0.029,0.048c0.019,0.045,0.018,0.094,0.03,0.141
		c0.016,0.063,0.033,0.123,0.036,0.187C16.99,6.964,17,6.981,17,7v9h26V7c0-0.019,0.01-0.036,0.011-0.054
		c0.004-0.064,0.021-0.124,0.036-0.187c0.012-0.047,0.011-0.095,0.03-0.141c0.007-0.018,0.021-0.031,0.029-0.048
		c0.026-0.054,0.065-0.1,0.101-0.15c0.031-0.042,0.05-0.092,0.087-0.128L49.586,0H10.414l6.292,6.292
		C16.743,6.329,16.762,6.378,16.793,6.42z"/>
	<polygon points="52.481,16 53,16 53,0 52.414,0 45.34,7.074 	"/>
	<polygon points="14.66,7.074 7.586,0 7,0 7,16 7.519,16 	"/>
	<path d="M6,17v43h48V17H6z M20,25c0,0.553-0.448,1-1,1s-1-0.447-1-1c0-2.206,1.794-4,4-4s4,1.794,4,4c0,0.553-0.448,1-1,1
		s-1-0.447-1-1c0-1.103-0.897-2-2-2S20,23.897,20,25z M39,33c0,4.963-4.038,9-9,9s-9-4.037-9-9v-6c0-0.553,0.448-1,1-1s1,0.447,1,1
		v6c0,3.859,3.14,7,7,7s7-3.141,7-7v-6c0-0.553,0.448-1,1-1s1,0.447,1,1V33z M41,26c-0.552,0-1-0.447-1-1c0-1.103-0.897-2-2-2
		s-2,0.897-2,2c0,0.553-0.448,1-1,1s-1-0.447-1-1c0-2.206,1.794-4,4-4s4,1.794,4,4C42,25.553,41.552,26,41,26z"/>
</g>
<g>
</g>
<g>
</g>
<g>
</g>
<g>
</g>
<g>
</g>
<g>
</g>
<g>
</g>
<g>
</g>
<g>
</g>
<g>
</g>
<g>
</g>
<g>
</g>
<g>
</g>
<g>
</g>
<g>
</g>
</svg>
