<?xml version="1.0" encoding="iso-8859-1"?>
<!-- Generator: Adobe Illustrator 18.0.0, SVG Export Plug-In . SVG Version: 6.00 Build 0)  -->
<!DOCTYPE svg PUBLIC "-//W3C//DTD SVG 1.1//EN" "http://www.w3.org/Graphics/SVG/1.1/DTD/svg11.dtd">
<svg version="1.1" id="Capa_1" xmlns="http://www.w3.org/2000/svg" xmlns:xlink="http://www.w3.org/1999/xlink" x="0px" y="0px"
	 viewBox="0 0 60 60" style="enable-background:new 0 0 60 60;" xml:space="preserve">
<g>
	<path d="M8,53.5H2v-5c0-0.553-0.448-1-1-1s-1,0.447-1,1v7h8c0.552,0,1-0.447,1-1S8.552,53.5,8,53.5z"/>
	<path d="M59,47.5c-0.552,0-1,0.447-1,1v5h-5c-0.552,0-1,0.447-1,1s0.448,1,1,1h7v-7C60,47.947,59.552,47.5,59,47.5z"/>
	<path d="M52,4.5c-0.552,0-1,0.447-1,1s0.448,1,1,1h6v5c0,0.553,0.448,1,1,1s1-0.447,1-1v-7H52z"/>
	<path d="M1,12.5c0.552,0,1-0.447,1-1v-5h5c0.552,0,1-0.447,1-1s-0.448-1-1-1H0v7C0,12.053,0.448,12.5,1,12.5z"/>
	<path d="M57,8.5H3v19h54V8.5z M7,25.5c0,0.553-0.448,1-1,1s-1-0.447-1-1v-14c0-0.553,0.448-1,1-1s1,0.447,1,1V25.5z M10,25.5
		c0,0.553-0.448,1-1,1s-1-0.447-1-1v-14c0-0.553,0.448-1,1-1s1,0.447,1,1V25.5z M13,25.5c0,0.553-0.448,1-1,1s-1-0.447-1-1v-14
		c0-0.553,0.448-1,1-1s1,0.447,1,1V25.5z M18,25.5c0,0.553-0.448,1-1,1s-1-0.447-1-1v-14c0-0.553,0.448-1,1-1s1,0.447,1,1V25.5z
		 M21,25.5c0,0.553-0.448,1-1,1s-1-0.447-1-1v-14c0-0.553,0.448-1,1-1s1,0.447,1,1V25.5z M24,25.5c0,0.553-0.448,1-1,1s-1-0.447-1-1
		v-14c0-0.553,0.448-1,1-1s1,0.447,1,1V25.5z M30,25.5c0,0.553-0.448,1-1,1s-1-0.447-1-1v-14c0-0.553,0.448-1,1-1s1,0.447,1,1V25.5z
		 M35,25.5c0,0.553-0.448,1-1,1s-1-0.447-1-1v-14c0-0.553,0.448-1,1-1s1,0.447,1,1V25.5z M38,25.5c0,0.553-0.448,1-1,1s-1-0.447-1-1
		v-14c0-0.553,0.448-1,1-1s1,0.447,1,1V25.5z M43,25.5c0,0.553-0.448,1-1,1s-1-0.447-1-1v-14c0-0.553,0.448-1,1-1s1,0.447,1,1V25.5z
		 M46,25.5c0,0.553-0.448,1-1,1s-1-0.447-1-1v-14c0-0.553,0.448-1,1-1s1,0.447,1,1V25.5z M52,25.5c0,0.553-0.448,1-1,1s-1-0.447-1-1
		v-14c0-0.553,0.448-1,1-1s1,0.447,1,1V25.5z M55,25.5c0,0.553-0.448,1-1,1s-1-0.447-1-1v-14c0-0.553,0.448-1,1-1s1,0.447,1,1V25.5z
		"/>
	<path d="M3,50.5h54v-21H3V50.5z M53,31.5c0-0.553,0.448-1,1-1s1,0.447,1,1v17c0,0.553-0.448,1-1,1s-1-0.447-1-1V31.5z M50,31.5
		c0-0.553,0.448-1,1-1s1,0.447,1,1v9c0,0.553-0.448,1-1,1s-1-0.447-1-1V31.5z M50,45.5c0-0.553,0.448-1,1-1s1,0.447,1,1v1
		c0,0.553-0.448,1-1,1s-1-0.447-1-1V45.5z M47,45.5c0-0.553,0.448-1,1-1s1,0.447,1,1v1c0,0.553-0.448,1-1,1s-1-0.447-1-1V45.5z
		 M44,31.5c0-0.553,0.448-1,1-1s1,0.447,1,1v9c0,0.553-0.448,1-1,1s-1-0.447-1-1V31.5z M44,45.5c0-0.553,0.448-1,1-1s1,0.447,1,1v1
		c0,0.553-0.448,1-1,1s-1-0.447-1-1V45.5z M41,31.5c0-0.553,0.448-1,1-1s1,0.447,1,1v9c0,0.553-0.448,1-1,1s-1-0.447-1-1V31.5z
		 M41,45.5c0-0.553,0.448-1,1-1s1,0.447,1,1v1c0,0.553-0.448,1-1,1s-1-0.447-1-1V45.5z M39,44.5c0.552,0,1,0.447,1,1v1
		c0,0.553-0.448,1-1,1s-1-0.447-1-1v-1C38,44.947,38.448,44.5,39,44.5z M36,31.5c0-0.553,0.448-1,1-1s1,0.447,1,1v9
		c0,0.553-0.448,1-1,1s-1-0.447-1-1V31.5z M36,44.5c0.552,0,1,0.447,1,1v1c0,0.553-0.448,1-1,1s-1-0.447-1-1v-1
		C35,44.947,35.448,44.5,36,44.5z M33,31.5c0-0.553,0.448-1,1-1s1,0.447,1,1v9c0,0.553-0.448,1-1,1s-1-0.447-1-1V31.5z M32,45.5
		c0-0.553,0.448-1,1-1s1,0.447,1,1v1c0,0.553-0.448,1-1,1s-1-0.447-1-1V45.5z M31,45.5v1c0,0.553-0.448,1-1,1s-1-0.447-1-1v-1
		c0-0.553,0.448-1,1-1S31,44.947,31,45.5z M28,31.5c0-0.553,0.448-1,1-1s1,0.447,1,1v9c0,0.553-0.448,1-1,1s-1-0.447-1-1V31.5z
		 M26,45.5c0-0.553,0.448-1,1-1s1,0.447,1,1v1c0,0.553-0.448,1-1,1s-1-0.447-1-1V45.5z M25,45.5v1c0,0.553-0.448,1-1,1s-1-0.447-1-1
		v-1c0-0.553,0.448-1,1-1S25,44.947,25,45.5z M22,31.5c0-0.553,0.448-1,1-1s1,0.447,1,1v9c0,0.553-0.448,1-1,1s-1-0.447-1-1V31.5z
		 M22,45.5v1c0,0.553-0.448,1-1,1s-1-0.447-1-1v-1c0-0.553,0.448-1,1-1S22,44.947,22,45.5z M19,31.5c0-0.553,0.448-1,1-1
		s1,0.447,1,1v9c0,0.553-0.448,1-1,1s-1-0.447-1-1V31.5z M19,45.5v1c0,0.553-0.448,1-1,1s-1-0.447-1-1v-1c0-0.553,0.448-1,1-1
		S19,44.947,19,45.5z M16,31.5c0-0.553,0.448-1,1-1s1,0.447,1,1v9c0,0.553-0.448,1-1,1s-1-0.447-1-1V31.5z M14,45.5
		c0-0.553,0.448-1,1-1s1,0.447,1,1v1c0,0.553-0.448,1-1,1s-1-0.447-1-1V45.5z M11,31.5c0-0.553,0.448-1,1-1s1,0.447,1,1v9
		c0,0.553-0.448,1-1,1s-1-0.447-1-1V31.5z M11,45.5c0-0.553,0.448-1,1-1s1,0.447,1,1v1c0,0.553-0.448,1-1,1s-1-0.447-1-1V45.5z
		 M8,31.5c0-0.553,0.448-1,1-1s1,0.447,1,1v9c0,0.553-0.448,1-1,1s-1-0.447-1-1V31.5z M8,45.5c0-0.553,0.448-1,1-1s1,0.447,1,1v1
		c0,0.553-0.448,1-1,1s-1-0.447-1-1V45.5z M5,31.5c0-0.553,0.448-1,1-1s1,0.447,1,1v17c0,0.553-0.448,1-1,1s-1-0.447-1-1V31.5z"/>
</g>
<g>
</g>
<g>
</g>
<g>
</g>
<g>
</g>
<g>
</g>
<g>
</g>
<g>
</g>
<g>
</g>
<g>
</g>
<g>
</g>
<g>
</g>
<g>
</g>
<g>
</g>
<g>
</g>
<g>
</g>
</svg>
