<?xml version="1.0" encoding="iso-8859-1"?>
<!-- Generator: Adobe Illustrator 18.0.0, SVG Export Plug-In . SVG Version: 6.00 Build 0)  -->
<!DOCTYPE svg PUBLIC "-//W3C//DTD SVG 1.1//EN" "http://www.w3.org/Graphics/SVG/1.1/DTD/svg11.dtd">
<svg version="1.1" id="Capa_1" xmlns="http://www.w3.org/2000/svg" xmlns:xlink="http://www.w3.org/1999/xlink" x="0px" y="0px"
	 viewBox="0 0 60 60" style="enable-background:new 0 0 60 60;" xml:space="preserve">
<path d="M0,5v50h60V5H0z M6,48c0,0.553-0.448,1-1,1s-1-0.447-1-1V11c0-0.553,0.448-1,1-1s1,0.447,1,1V48z M10,46
	c0,0.553-0.448,1-1,1s-1-0.447-1-1v-1c0-0.553,0.448-1,1-1s1,0.447,1,1V46z M10,40c0,0.553-0.448,1-1,1s-1-0.447-1-1V11
	c0-0.553,0.448-1,1-1s1,0.447,1,1V40z M13,46c0,0.553-0.448,1-1,1s-1-0.447-1-1v-1c0-0.553,0.448-1,1-1s1,0.447,1,1V46z M13,40
	c0,0.553-0.448,1-1,1s-1-0.447-1-1V11c0-0.553,0.448-1,1-1s1,0.447,1,1V40z M16,46c0,0.553-0.448,1-1,1s-1-0.447-1-1v-1
	c0-0.553,0.448-1,1-1s1,0.447,1,1V46z M16,40V11c0-0.553,0.448-1,1-1s1,0.447,1,1v29c0,0.553-0.448,1-1,1S16,40.553,16,40z M19,46
	c0,0.553-0.448,1-1,1s-1-0.447-1-1v-1c0-0.553,0.448-1,1-1s1,0.447,1,1V46z M19,40V11c0-0.553,0.448-1,1-1s1,0.447,1,1v29
	c0,0.553-0.448,1-1,1S19,40.553,19,40z M22,46c0,0.553-0.448,1-1,1s-1-0.447-1-1v-1c0-0.553,0.448-1,1-1s1,0.447,1,1V46z M22,40V11
	c0-0.553,0.448-1,1-1s1,0.447,1,1v29c0,0.553-0.448,1-1,1S22,40.553,22,40z M25,46c0,0.553-0.448,1-1,1s-1-0.447-1-1v-1
	c0-0.553,0.448-1,1-1s1,0.447,1,1V46z M28,46c0,0.553-0.448,1-1,1s-1-0.447-1-1v-1c0-0.553,0.448-1,1-1s1,0.447,1,1V46z M28,40V11
	c0-0.553,0.448-1,1-1s1,0.447,1,1v29c0,0.553-0.448,1-1,1S28,40.553,28,40z M31,46c0,0.553-0.448,1-1,1s-1-0.447-1-1v-1
	c0-0.553,0.448-1,1-1s1,0.447,1,1V46z M34,46c0,0.553-0.448,1-1,1s-1-0.447-1-1v-1c0-0.553,0.448-1,1-1s1,0.447,1,1V46z M34,41
	c-0.552,0-1-0.447-1-1V11c0-0.553,0.448-1,1-1s1,0.447,1,1v29C35,40.553,34.552,41,34,41z M37,46c0,0.553-0.448,1-1,1s-1-0.447-1-1
	v-1c0-0.553,0.448-1,1-1s1,0.447,1,1V46z M37,41c-0.552,0-1-0.447-1-1V11c0-0.553,0.448-1,1-1s1,0.447,1,1v29
	C38,40.553,37.552,41,37,41z M40,46c0,0.553-0.448,1-1,1s-1-0.447-1-1v-1c0-0.553,0.448-1,1-1s1,0.447,1,1V46z M43,46
	c0,0.553-0.448,1-1,1s-1-0.447-1-1v-1c0-0.553,0.448-1,1-1s1,0.447,1,1V46z M43,40c0,0.553-0.448,1-1,1s-1-0.447-1-1V11
	c0-0.553,0.448-1,1-1s1,0.447,1,1V40z M46,46c0,0.553-0.448,1-1,1s-1-0.447-1-1v-1c0-0.553,0.448-1,1-1s1,0.447,1,1V46z M46,40
	c0,0.553-0.448,1-1,1s-1-0.447-1-1V11c0-0.553,0.448-1,1-1s1,0.447,1,1V40z M49,46c0,0.553-0.448,1-1,1s-1-0.447-1-1v-1
	c0-0.553,0.448-1,1-1s1,0.447,1,1V46z M52,46c0,0.553-0.448,1-1,1s-1-0.447-1-1v-1c0-0.553,0.448-1,1-1s1,0.447,1,1V46z M52,40
	c0,0.553-0.448,1-1,1s-1-0.447-1-1V11c0-0.553,0.448-1,1-1s1,0.447,1,1V40z M56,48c0,0.553-0.448,1-1,1s-1-0.447-1-1V11
	c0-0.553,0.448-1,1-1s1,0.447,1,1V48z"/>
<g>
</g>
<g>
</g>
<g>
</g>
<g>
</g>
<g>
</g>
<g>
</g>
<g>
</g>
<g>
</g>
<g>
</g>
<g>
</g>
<g>
</g>
<g>
</g>
<g>
</g>
<g>
</g>
<g>
</g>
</svg>
