<?xml version="1.0" encoding="iso-8859-1"?>
<!-- Generator: Adobe Illustrator 18.0.0, SVG Export Plug-In . SVG Version: 6.00 Build 0)  -->
<!DOCTYPE svg PUBLIC "-//W3C//DTD SVG 1.1//EN" "http://www.w3.org/Graphics/SVG/1.1/DTD/svg11.dtd">
<svg version="1.1" id="Capa_1" xmlns="http://www.w3.org/2000/svg" xmlns:xlink="http://www.w3.org/1999/xlink" x="0px" y="0px"
	 viewBox="0 0 60 60" style="enable-background:new 0 0 60 60;" xml:space="preserve">
<path d="M60,20H35.414L46.247,9.167C47.038,9.691,47.983,10,49,10c2.757,0,5-2.243,5-5s-2.243-5-5-5s-5,2.243-5,5
	c0,1.017,0.309,1.962,0.833,2.753L32.586,20h-5.172L15.167,7.753C15.691,6.962,16,6.017,16,5c0-2.757-2.243-5-5-5S6,2.243,6,5
	s2.243,5,5,5c1.017,0,1.962-0.309,2.753-0.833L24.586,20H0v8h2v27.434C2,57.951,4.048,60,6.566,60h46.867
	C55.952,60,58,57.951,58,55.434V28h2V20z M14,54h-4c-0.552,0-1-0.447-1-1s0.448-1,1-1h4c0.552,0,1,0.447,1,1S14.552,54,14,54z
	 M14,50h-4c-0.552,0-1-0.447-1-1s0.448-1,1-1h4c0.552,0,1,0.447,1,1S14.552,50,14,50z M14,46h-4c-0.552,0-1-0.447-1-1s0.448-1,1-1h4
	c0.552,0,1,0.447,1,1S14.552,46,14,46z M14,42h-4c-0.552,0-1-0.447-1-1s0.448-1,1-1h4c0.552,0,1,0.447,1,1S14.552,42,14,42z M14,38
	h-4c-0.552,0-1-0.447-1-1s0.448-1,1-1h4c0.552,0,1,0.447,1,1S14.552,38,14,38z M14,34h-4c-0.552,0-1-0.447-1-1s0.448-1,1-1h4
	c0.552,0,1,0.447,1,1S14.552,34,14,34z M26,54h-4c-0.552,0-1-0.447-1-1s0.448-1,1-1h4c0.552,0,1,0.447,1,1S26.552,54,26,54z M26,50
	h-4c-0.552,0-1-0.447-1-1s0.448-1,1-1h4c0.552,0,1,0.447,1,1S26.552,50,26,50z M26,46h-4c-0.552,0-1-0.447-1-1s0.448-1,1-1h4
	c0.552,0,1,0.447,1,1S26.552,46,26,46z M26,42h-4c-0.552,0-1-0.447-1-1s0.448-1,1-1h4c0.552,0,1,0.447,1,1S26.552,42,26,42z M26,38
	h-4c-0.552,0-1-0.447-1-1s0.448-1,1-1h4c0.552,0,1,0.447,1,1S26.552,38,26,38z M26,34h-4c-0.552,0-1-0.447-1-1s0.448-1,1-1h4
	c0.552,0,1,0.447,1,1S26.552,34,26,34z M38,54h-4c-0.552,0-1-0.447-1-1s0.448-1,1-1h4c0.552,0,1,0.447,1,1S38.552,54,38,54z M38,50
	h-4c-0.552,0-1-0.447-1-1s0.448-1,1-1h4c0.552,0,1,0.447,1,1S38.552,50,38,50z M38,46h-4c-0.552,0-1-0.447-1-1s0.448-1,1-1h4
	c0.552,0,1,0.447,1,1S38.552,46,38,46z M38,42h-4c-0.552,0-1-0.447-1-1s0.448-1,1-1h4c0.552,0,1,0.447,1,1S38.552,42,38,42z M38,38
	h-4c-0.552,0-1-0.447-1-1s0.448-1,1-1h4c0.552,0,1,0.447,1,1S38.552,38,38,38z M38,34h-4c-0.552,0-1-0.447-1-1s0.448-1,1-1h4
	c0.552,0,1,0.447,1,1S38.552,34,38,34z M50,54h-4c-0.552,0-1-0.447-1-1s0.448-1,1-1h4c0.552,0,1,0.447,1,1S50.552,54,50,54z M50,50
	h-4c-0.552,0-1-0.447-1-1s0.448-1,1-1h4c0.552,0,1,0.447,1,1S50.552,50,50,50z M50,46h-4c-0.552,0-1-0.447-1-1s0.448-1,1-1h4
	c0.552,0,1,0.447,1,1S50.552,46,50,46z M50,42h-4c-0.552,0-1-0.447-1-1s0.448-1,1-1h4c0.552,0,1,0.447,1,1S50.552,42,50,42z M50,38
	h-4c-0.552,0-1-0.447-1-1s0.448-1,1-1h4c0.552,0,1,0.447,1,1S50.552,38,50,38z M50,34h-4c-0.552,0-1-0.447-1-1s0.448-1,1-1h4
	c0.552,0,1,0.447,1,1S50.552,34,50,34z M30.586,22L30,22.586L29.414,22H30.586z M58,26H2v-4h24.586l2.707,2.707
	C29.488,24.902,29.744,25,30,25s0.512-0.098,0.707-0.293L33.414,22H58V26z"/>
<g>
</g>
<g>
</g>
<g>
</g>
<g>
</g>
<g>
</g>
<g>
</g>
<g>
</g>
<g>
</g>
<g>
</g>
<g>
</g>
<g>
</g>
<g>
</g>
<g>
</g>
<g>
</g>
<g>
</g>
</svg>
