<?xml version="1.0" encoding="iso-8859-1"?>
<!-- Generator: Adobe Illustrator 18.0.0, SVG Export Plug-In . SVG Version: 6.00 Build 0)  -->
<!DOCTYPE svg PUBLIC "-//W3C//DTD SVG 1.1//EN" "http://www.w3.org/Graphics/SVG/1.1/DTD/svg11.dtd">
<svg version="1.1" id="Capa_1" xmlns="http://www.w3.org/2000/svg" xmlns:xlink="http://www.w3.org/1999/xlink" x="0px" y="0px"
	 viewBox="0 0 60 60" style="enable-background:new 0 0 60 60;" xml:space="preserve">
<g>
	<path d="M23,14V0H12.719l-0.414,1.655c-0.454-0.178-1.003-0.394-1.548-0.608L9.983,0.74L1.695,14H23z"/>
	<path d="M37,16v22.414l-3-3l-4,4l-4-4l-3,3V16H1.612l0.647,1.942c-0.255-0.134-0.523-0.274-0.798-0.417L0,16.765v15.101
		c0,0.881,0.306,1.742,0.862,2.426c1.237,1.521,2.358,2.894,3.161,3.874l0.273,0.334l0.43,0.03c0.936,0.067,1.889,0.132,2.781,0.19
		l-2.871,1.148l-4.42,12.631C0.073,52.907,0,53.334,0,53.769v2.39C0,58.276,1.723,60,3.841,60h21.262
		c0.301,0,0.602-0.035,0.894-0.105c6.477-1.545,12.443-2.997,14.966-3.611l0.563-0.138l0.161-0.557
		c0.096-0.332,0.195-0.674,0.295-1.013l0.496,1.735l7.445,3.351C50.42,59.886,50.951,60,51.499,60h4.66
		C58.277,60,60,58.276,60,56.158v-7.334c0-0.515-0.101-1.017-0.32-1.534l-5.1-10.719c-0.013-0.061-0.027-0.12-0.043-0.18
		l-0.123-0.438l-2.902-1.386l2.874-0.358l0.233-0.505c0.074-0.16,0.151-0.289,0.24-0.396l4.274-5.224
		C59.691,27.401,60,26.537,60,25.652v-8.939L59.554,16H37z"/>
	<polygon points="50.486,1.492 48.258,1.811 48.62,0 37,0 37,14 58.304,14 	"/>
</g>
<g>
</g>
<g>
</g>
<g>
</g>
<g>
</g>
<g>
</g>
<g>
</g>
<g>
</g>
<g>
</g>
<g>
</g>
<g>
</g>
<g>
</g>
<g>
</g>
<g>
</g>
<g>
</g>
<g>
</g>
</svg>
