<?xml version="1.0" encoding="iso-8859-1"?>
<!-- Generator: Adobe Illustrator 18.0.0, SVG Export Plug-In . SVG Version: 6.00 Build 0)  -->
<!DOCTYPE svg PUBLIC "-//W3C//DTD SVG 1.1//EN" "http://www.w3.org/Graphics/SVG/1.1/DTD/svg11.dtd">
<svg version="1.1" id="Capa_1" xmlns="http://www.w3.org/2000/svg" xmlns:xlink="http://www.w3.org/1999/xlink" x="0px" y="0px"
	 viewBox="0 0 60 60" style="enable-background:new 0 0 60 60;" xml:space="preserve">
<g>
	<path d="M38,32H22v14h16V32z M25,34h1c0.552,0,1,0.447,1,1s-0.448,1-1,1h-1c-0.552,0-1-0.447-1-1S24.448,34,25,34z M25,38h2
		c0.552,0,1,0.447,1,1s-0.448,1-1,1h-2c-0.552,0-1-0.447-1-1S24.448,38,25,38z M31,44h-6c-0.552,0-1-0.447-1-1s0.448-1,1-1h6
		c0.552,0,1,0.447,1,1S31.552,44,31,44z M29,39c0-0.271,0.11-0.521,0.29-0.71c0.37-0.37,1.04-0.37,1.42,0
		C30.89,38.479,31,38.74,31,39s-0.11,0.52-0.29,0.71C30.52,39.89,30.26,40,30,40c-0.26,0-0.52-0.11-0.71-0.29
		C29.11,39.52,29,39.27,29,39z M35,44h-1c-0.552,0-1-0.447-1-1s0.448-1,1-1h1c0.552,0,1,0.447,1,1S35.552,44,35,44z M35,40h-2
		c-0.552,0-1-0.447-1-1s0.448-1,1-1h2c0.552,0,1,0.447,1,1S35.552,40,35,40z M35,36h-6c-0.552,0-1-0.447-1-1s0.448-1,1-1h6
		c0.552,0,1,0.447,1,1S35.552,36,35,36z"/>
	<polygon points="49.554,0 37,0 37,16 59.554,16 	"/>
	<polygon points="23,0 10.446,0 0.446,16 23,16 	"/>
	<path d="M37,18v8.414l-3-3l-4,4l-4-4l-3,3V18H0v42h23v-9.414l3,3l4-4l4,4l3-3V60h23V18H37z M40,48H20V30h20V48z"/>
</g>
<g>
</g>
<g>
</g>
<g>
</g>
<g>
</g>
<g>
</g>
<g>
</g>
<g>
</g>
<g>
</g>
<g>
</g>
<g>
</g>
<g>
</g>
<g>
</g>
<g>
</g>
<g>
</g>
<g>
</g>
</svg>
