<?xml version="1.0" encoding="iso-8859-1"?>
<!-- Generator: Adobe Illustrator 18.0.0, SVG Export Plug-In . SVG Version: 6.00 Build 0)  -->
<!DOCTYPE svg PUBLIC "-//W3C//DTD SVG 1.1//EN" "http://www.w3.org/Graphics/SVG/1.1/DTD/svg11.dtd">
<svg version="1.1" id="Capa_1" xmlns="http://www.w3.org/2000/svg" xmlns:xlink="http://www.w3.org/1999/xlink" x="0px" y="0px"
	 viewBox="0 0 60 60" style="enable-background:new 0 0 60 60;" xml:space="preserve">
<g>
	<circle cx="11" cy="26" r="1"/>
	<circle cx="11" cy="41" r="1"/>
	<circle cx="49" cy="26" r="1"/>
	<circle cx="49" cy="41" r="1"/>
	<path d="M57.2,13.4C55.997,12.497,54.505,12,53,12v-0.181C53,10.265,51.735,9,50.181,9h-2.361C46.265,9,45,10.265,45,11.819V12h-1
		V9h-2V7.889C42,4.09,38.91,1,35.111,1H24.889C21.09,1,18,4.09,18,7.889V9h-2v3h-1v-0.181C15,10.265,13.735,9,12.181,9H9.819
		C8.265,9,7,10.265,7,11.819V12c-1.505,0-2.997,0.497-4.2,1.4C1.047,14.715,0,16.809,0,19v31v1v2.578C0,56.567,2.432,59,5.422,59H8
		h1h42h1h2.578C57.568,59,60,56.567,60,53.578V51v-1V19C60,16.809,58.953,14.715,57.2,13.4z M9,39h4v3c0,1.103-0.897,2-2,2
		s-2-0.897-2-2V39z M14,37H8H7v-4h1h2v1c0,0.553,0.448,1,1,1s1-0.447,1-1v-1h2h1v4H14z M36,21v6H24v-6H36z M47,39h4v3
		c0,1.103-0.897,2-2,2s-2-0.897-2-2V39z M52,37h-6h-1v-4h1h2v1c0,0.553,0.448,1,1,1s1-0.447,1-1v-1h2h1v4H52z M47,11.819
		C47,11.367,47.368,11,47.819,11h2.361C50.632,11,51,11.367,51,11.819V13v18h-1v-1c0-0.553-0.448-1-1-1s-1,0.447-1,1v1h-1V13V11.819
		z M42,12h-6v-1h6V12z M24,7.444c0-0.441,0.444-0.658,0.777-0.521c3.329,1.377,7.116,1.377,10.445,0C35.559,6.785,36,7.003,36,7.444
		V9h-2v3h-8V9h-2V7.444z M18,11h6v1h-6V11z M9,11.819C9,11.367,9.368,11,9.819,11h2.361C12.632,11,13,11.367,13,11.819V13v18h-1v-1
		c0-0.553-0.448-1-1-1s-1,0.447-1,1v1H9V13V11.819z M3.388,50H2V36h3v3h2v3c0,2.206,1.794,4,4,4s4-1.794,4-4v-3h2v-3h12v21H9v-1.388
		C9,52.518,6.482,50,3.388,50z M56.612,50C53.518,50,51,52.518,51,55.612V57H31V36h12v3h2v3c0,2.206,1.794,4,4,4s4-1.794,4-4v-3h2
		v-3h3v14H56.612z"/>
</g>
<g>
</g>
<g>
</g>
<g>
</g>
<g>
</g>
<g>
</g>
<g>
</g>
<g>
</g>
<g>
</g>
<g>
</g>
<g>
</g>
<g>
</g>
<g>
</g>
<g>
</g>
<g>
</g>
<g>
</g>
</svg>
