<?xml version="1.0" encoding="iso-8859-1"?>
<!-- Generator: Adobe Illustrator 18.0.0, SVG Export Plug-In . SVG Version: 6.00 Build 0)  -->
<!DOCTYPE svg PUBLIC "-//W3C//DTD SVG 1.1//EN" "http://www.w3.org/Graphics/SVG/1.1/DTD/svg11.dtd">
<svg version="1.1" id="Capa_1" xmlns="http://www.w3.org/2000/svg" xmlns:xlink="http://www.w3.org/1999/xlink" x="0px" y="0px"
	 viewBox="0 0 59 59" style="enable-background:new 0 0 59 59;" xml:space="preserve">
<g>
	<path d="M50,15c-0.553,0-1,0.447-1,1s0.447,1,1,1h7v22H11V17h7c0.552,0,1-0.447,1-1s-0.448-1-1-1h-7V7c0-0.553-0.448-1-1-1H7.858
		C7.411,4.28,5.858,3,4,3C1.794,3,0,4.794,0,7s1.794,4,4,4c1.858,0,3.411-1.28,3.858-3H9v7v1v24v1v6c0,0.553,0.448,1,1,1h7.031
		C15.806,48.912,15,50.359,15,52c0,2.757,2.243,5,5,5s5-2.243,5-5c0-1.641-0.806-3.088-2.031-4h18.062
		C39.806,48.912,39,50.359,39,52c0,2.757,2.243,5,5,5s5-2.243,5-5c0-1.641-0.806-3.088-2.031-4H53c0.553,0,1-0.447,1-1s-0.447-1-1-1
		H11v-5h48v-1V16v-1H50z M4,9C2.897,9,2,8.103,2,7s0.897-2,2-2c0.737,0,1.375,0.405,1.722,1H5C4.448,6,4,6.447,4,7s0.448,1,1,1
		h0.722C5.375,8.595,4.737,9,4,9z"/>
	<path d="M34,2c-7.72,0-14,6.28-14,14s6.28,14,14,14s14-6.28,14-14S41.72,2,34,2z M41.707,15.707C41.512,15.902,41.256,16,41,16
		s-0.512-0.098-0.707-0.293L35,10.414V24c0,0.553-0.448,1-1,1s-1-0.447-1-1V10.414l-5.293,5.293C27.512,15.902,27.256,16,27,16
		s-0.512-0.098-0.707-0.293c-0.391-0.391-0.391-1.023,0-1.414l6.999-6.999c0.092-0.093,0.203-0.166,0.326-0.217
		c0.244-0.101,0.52-0.101,0.764,0c0.123,0.051,0.233,0.124,0.326,0.217l6.999,6.999C42.098,14.684,42.098,15.316,41.707,15.707z"/>
</g>
<g>
</g>
<g>
</g>
<g>
</g>
<g>
</g>
<g>
</g>
<g>
</g>
<g>
</g>
<g>
</g>
<g>
</g>
<g>
</g>
<g>
</g>
<g>
</g>
<g>
</g>
<g>
</g>
<g>
</g>
</svg>
