<?xml version="1.0" encoding="iso-8859-1"?>
<!-- Generator: Adobe Illustrator 18.0.0, SVG Export Plug-In . SVG Version: 6.00 Build 0)  -->
<!DOCTYPE svg PUBLIC "-//W3C//DTD SVG 1.1//EN" "http://www.w3.org/Graphics/SVG/1.1/DTD/svg11.dtd">
<svg version="1.1" id="Capa_1" xmlns="http://www.w3.org/2000/svg" xmlns:xlink="http://www.w3.org/1999/xlink" x="0px" y="0px"
	 viewBox="0 0 58 58" style="enable-background:new 0 0 58 58;" xml:space="preserve">
<path d="M56.5,41V11h-48V1c0-0.553-0.448-1-1-1h-5c-0.552,0-1,0.447-1,1s0.448,1,1,1h4v9v1v28v1v7c0,0.553,0.448,1,1,1h7.031
	c-1.225,0.912-2.031,2.359-2.031,4c0,2.757,2.243,5,5,5s5-2.243,5-5c0-1.641-0.806-3.088-2.031-4h18.062
	c-1.225,0.912-2.031,2.359-2.031,4c0,2.757,2.243,5,5,5s5-2.243,5-5c0-1.641-0.806-3.088-2.031-4H50.5c0.552,0,1-0.447,1-1
	s-0.448-1-1-1h-42v-6H56.5z M40.5,13h6h2v26h-2h-6V13z M24.5,13h6h2v26h-2h-6V13z M8.5,13h6h2v26h-2h-6V13z"/>
<g>
</g>
<g>
</g>
<g>
</g>
<g>
</g>
<g>
</g>
<g>
</g>
<g>
</g>
<g>
</g>
<g>
</g>
<g>
</g>
<g>
</g>
<g>
</g>
<g>
</g>
<g>
</g>
<g>
</g>
</svg>
