<?xml version="1.0" encoding="iso-8859-1"?>
<!-- Generator: Adobe Illustrator 18.0.0, SVG Export Plug-In . SVG Version: 6.00 Build 0)  -->
<!DOCTYPE svg PUBLIC "-//W3C//DTD SVG 1.1//EN" "http://www.w3.org/Graphics/SVG/1.1/DTD/svg11.dtd">
<svg version="1.1" id="Capa_1" xmlns="http://www.w3.org/2000/svg" xmlns:xlink="http://www.w3.org/1999/xlink" x="0px" y="0px"
	 viewBox="0 0 59 59" style="enable-background:new 0 0 59 59;" xml:space="preserve">
<path d="M59,39V13H11V5c0-0.553-0.448-1-1-1H7.858C7.411,2.28,5.858,1,4,1C1.794,1,0,2.794,0,5s1.794,4,4,4
	c1.858,0,3.411-1.28,3.858-3H9v7v1v24v1v9c0,0.553,0.448,1,1,1h7.031C15.806,49.912,15,51.359,15,53c0,2.757,2.243,5,5,5
	s5-2.243,5-5c0-1.641-0.806-3.088-2.031-4h18.062C39.806,49.912,39,51.359,39,53c0,2.757,2.243,5,5,5s5-2.243,5-5
	c0-1.641-0.806-3.088-2.031-4H53c0.553,0,1-0.447,1-1s-0.447-1-1-1H11v-8H59z M55,19c0.552,0,1,0.448,1,1s-0.448,1-1,1s-1-0.448-1-1
	S54.448,19,55,19z M55,25c0.552,0,1,0.448,1,1s-0.448,1-1,1s-1-0.448-1-1S54.448,25,55,25z M55,31c0.552,0,1,0.448,1,1s-0.448,1-1,1
	s-1-0.448-1-1S54.448,31,55,31z M52,16c0.552,0,1,0.448,1,1s-0.448,1-1,1s-1-0.448-1-1S51.448,16,52,16z M52,22c0.552,0,1,0.448,1,1
	s-0.448,1-1,1s-1-0.448-1-1S51.448,22,52,22z M52,28c0.552,0,1,0.448,1,1s-0.448,1-1,1s-1-0.448-1-1S51.448,28,52,28z M52,34
	c0.552,0,1,0.448,1,1s-0.448,1-1,1s-1-0.448-1-1S51.448,34,52,34z M49,19c0.552,0,1,0.448,1,1s-0.448,1-1,1s-1-0.448-1-1
	S48.448,19,49,19z M49,25c0.552,0,1,0.448,1,1s-0.448,1-1,1s-1-0.448-1-1S48.448,25,49,25z M49,31c0.552,0,1,0.448,1,1s-0.448,1-1,1
	s-1-0.448-1-1S48.448,31,49,31z M46,16c0.552,0,1,0.448,1,1s-0.448,1-1,1s-1-0.448-1-1S45.448,16,46,16z M46,22c0.552,0,1,0.448,1,1
	s-0.448,1-1,1s-1-0.448-1-1S45.448,22,46,22z M46,28c0.552,0,1,0.448,1,1s-0.448,1-1,1s-1-0.448-1-1S45.448,28,46,28z M46,34
	c0.552,0,1,0.448,1,1s-0.448,1-1,1s-1-0.448-1-1S45.448,34,46,34z M43,19c0.552,0,1,0.448,1,1s-0.448,1-1,1s-1-0.448-1-1
	S42.448,19,43,19z M43,25c0.552,0,1,0.448,1,1s-0.448,1-1,1s-1-0.448-1-1S42.448,25,43,25z M43,31c0.552,0,1,0.448,1,1s-0.448,1-1,1
	s-1-0.448-1-1S42.448,31,43,31z M40,16c0.552,0,1,0.448,1,1s-0.448,1-1,1s-1-0.448-1-1S39.448,16,40,16z M40,22c0.552,0,1,0.448,1,1
	s-0.448,1-1,1s-1-0.448-1-1S39.448,22,40,22z M40,28c0.552,0,1,0.448,1,1s-0.448,1-1,1s-1-0.448-1-1S39.448,28,40,28z M40,34
	c0.552,0,1,0.448,1,1s-0.448,1-1,1s-1-0.448-1-1S39.448,34,40,34z M37,19c0.552,0,1,0.448,1,1s-0.448,1-1,1s-1-0.448-1-1
	S36.448,19,37,19z M37,25c0.552,0,1,0.448,1,1s-0.448,1-1,1s-1-0.448-1-1S36.448,25,37,25z M37,31c0.552,0,1,0.448,1,1s-0.448,1-1,1
	s-1-0.448-1-1S36.448,31,37,31z M34,16c0.552,0,1,0.448,1,1s-0.448,1-1,1s-1-0.448-1-1S33.448,16,34,16z M34,22c0.552,0,1,0.448,1,1
	s-0.448,1-1,1s-1-0.448-1-1S33.448,22,34,22z M34,28c0.552,0,1,0.448,1,1s-0.448,1-1,1s-1-0.448-1-1S33.448,28,34,28z M34,34
	c0.552,0,1,0.448,1,1s-0.448,1-1,1s-1-0.448-1-1S33.448,34,34,34z M31,19c0.552,0,1,0.448,1,1s-0.448,1-1,1s-1-0.448-1-1
	S30.448,19,31,19z M31,25c0.552,0,1,0.448,1,1s-0.448,1-1,1s-1-0.448-1-1S30.448,25,31,25z M31,31c0.552,0,1,0.448,1,1s-0.448,1-1,1
	s-1-0.448-1-1S30.448,31,31,31z M28,16c0.552,0,1,0.448,1,1s-0.448,1-1,1s-1-0.448-1-1S27.448,16,28,16z M28,22c0.552,0,1,0.448,1,1
	s-0.448,1-1,1s-1-0.448-1-1S27.448,22,28,22z M28,28c0.552,0,1,0.448,1,1s-0.448,1-1,1s-1-0.448-1-1S27.448,28,28,28z M28,34
	c0.552,0,1,0.448,1,1s-0.448,1-1,1s-1-0.448-1-1S27.448,34,28,34z M25,19c0.552,0,1,0.448,1,1s-0.448,1-1,1s-1-0.448-1-1
	S24.448,19,25,19z M25,25c0.552,0,1,0.448,1,1s-0.448,1-1,1s-1-0.448-1-1S24.448,25,25,25z M25,31c0.552,0,1,0.448,1,1s-0.448,1-1,1
	s-1-0.448-1-1S24.448,31,25,31z M22,16c0.552,0,1,0.448,1,1s-0.448,1-1,1s-1-0.448-1-1S21.448,16,22,16z M22,22c0.552,0,1,0.448,1,1
	s-0.448,1-1,1s-1-0.448-1-1S21.448,22,22,22z M22,28c0.552,0,1,0.448,1,1s-0.448,1-1,1s-1-0.448-1-1S21.448,28,22,28z M22,34
	c0.552,0,1,0.448,1,1s-0.448,1-1,1s-1-0.448-1-1S21.448,34,22,34z M19,19c0.552,0,1,0.448,1,1s-0.448,1-1,1s-1-0.448-1-1
	S18.448,19,19,19z M19,25c0.552,0,1,0.448,1,1s-0.448,1-1,1s-1-0.448-1-1S18.448,25,19,25z M19,31c0.552,0,1,0.448,1,1s-0.448,1-1,1
	s-1-0.448-1-1S18.448,31,19,31z M16,16c0.552,0,1,0.448,1,1s-0.448,1-1,1s-1-0.448-1-1S15.448,16,16,16z M16,22c0.552,0,1,0.448,1,1
	s-0.448,1-1,1s-1-0.448-1-1S15.448,22,16,22z M16,28c0.552,0,1,0.448,1,1s-0.448,1-1,1s-1-0.448-1-1S15.448,28,16,28z M16,34
	c0.552,0,1,0.448,1,1s-0.448,1-1,1s-1-0.448-1-1S15.448,34,16,34z M13,19c0.552,0,1,0.448,1,1s-0.448,1-1,1s-1-0.448-1-1
	S12.448,19,13,19z M13,25c0.552,0,1,0.448,1,1s-0.448,1-1,1s-1-0.448-1-1S12.448,25,13,25z M13,31c0.552,0,1,0.448,1,1s-0.448,1-1,1
	s-1-0.448-1-1S12.448,31,13,31z M5,6h0.722C5.375,6.595,4.737,7,4,7C2.897,7,2,6.103,2,5s0.897-2,2-2c0.737,0,1.375,0.405,1.722,1H5
	C4.448,4,4,4.447,4,5S4.448,6,5,6z"/>
<g>
</g>
<g>
</g>
<g>
</g>
<g>
</g>
<g>
</g>
<g>
</g>
<g>
</g>
<g>
</g>
<g>
</g>
<g>
</g>
<g>
</g>
<g>
</g>
<g>
</g>
<g>
</g>
<g>
</g>
</svg>
