<?xml version="1.0" encoding="iso-8859-1"?>
<!-- Generator: Adobe Illustrator 18.0.0, SVG Export Plug-In . SVG Version: 6.00 Build 0)  -->
<!DOCTYPE svg PUBLIC "-//W3C//DTD SVG 1.1//EN" "http://www.w3.org/Graphics/SVG/1.1/DTD/svg11.dtd">
<svg version="1.1" id="Capa_1" xmlns="http://www.w3.org/2000/svg" xmlns:xlink="http://www.w3.org/1999/xlink" x="0px" y="0px"
	 viewBox="0 0 59 59" style="enable-background:new 0 0 59 59;" xml:space="preserve">
<path d="M11,15V7c0-0.553-0.448-1-1-1H7.858C7.411,4.28,5.858,3,4,3C1.794,3,0,4.794,0,7s1.794,4,4,4c1.858,0,3.411-1.28,3.858-3H9
	v7v1v24v1v5c0,0.553,0.448,1,1,1h7.031C15.806,47.912,15,49.359,15,51c0,2.757,2.243,5,5,5s5-2.243,5-5c0-1.641-0.806-3.088-2.031-4
	h18.062C39.806,47.912,39,49.359,39,51c0,2.757,2.243,5,5,5s5-2.243,5-5c0-1.641-0.806-3.088-2.031-4H53c0.552,0,1-0.447,1-1
	s-0.448-1-1-1H11v-4h48v-1V16v-1H11z M5,8h0.722C5.375,8.595,4.737,9,4,9C2.897,9,2,8.103,2,7s0.897-2,2-2
	c0.737,0,1.375,0.405,1.722,1H5C4.448,6,4,6.447,4,7S4.448,8,5,8z M49,19c0-0.553,0.448-1,1-1s1,0.447,1,1v2c0,0.553-0.448,1-1,1
	s-1-0.447-1-1V19z M51,27v2c0,0.553-0.448,1-1,1s-1-0.447-1-1v-2c0-0.553,0.448-1,1-1S51,26.447,51,27z M44,23h4
	c0.552,0,1,0.447,1,1s-0.448,1-1,1h-4c-0.552,0-1-0.447-1-1S43.448,23,44,23z M41,19c0-0.553,0.448-1,1-1s1,0.447,1,1v2
	c0,0.553-0.448,1-1,1s-1-0.447-1-1V19z M43,27v2c0,0.553-0.448,1-1,1s-1-0.447-1-1v-2c0-0.553,0.448-1,1-1S43,26.447,43,27z M36,23
	h4c0.552,0,1,0.447,1,1s-0.448,1-1,1h-4c-0.552,0-1-0.447-1-1S35.448,23,36,23z M33,19c0-0.553,0.448-1,1-1s1,0.447,1,1v2
	c0,0.553-0.448,1-1,1s-1-0.447-1-1V19z M35,27v2c0,0.553-0.448,1-1,1s-1-0.447-1-1v-2c0-0.553,0.448-1,1-1S35,26.447,35,27z M28,23
	h4c0.552,0,1,0.447,1,1s-0.448,1-1,1h-4c-0.552,0-1-0.447-1-1S27.448,23,28,23z M25,19c0-0.553,0.448-1,1-1s1,0.447,1,1v2
	c0,0.553-0.448,1-1,1s-1-0.447-1-1V19z M27,27v2c0,0.553-0.448,1-1,1s-1-0.447-1-1v-2c0-0.553,0.448-1,1-1S27,26.447,27,27z M20,23
	h4c0.552,0,1,0.447,1,1s-0.448,1-1,1h-4c-0.552,0-1-0.447-1-1S19.448,23,20,23z M17,19c0-0.553,0.448-1,1-1s1,0.447,1,1v2
	c0,0.553-0.448,1-1,1s-1-0.447-1-1V19z M19,27v2c0,0.553-0.448,1-1,1s-1-0.447-1-1v-2c0-0.553,0.448-1,1-1S19,26.447,19,27z M13,23
	h3c0.552,0,1,0.447,1,1s-0.448,1-1,1h-3c-0.552,0-1-0.447-1-1S12.448,23,13,23z M16,33h-3c-0.552,0-1-0.447-1-1s0.448-1,1-1h3
	c0.552,0,1,0.447,1,1S16.552,33,16,33z M19,37c0,0.553-0.448,1-1,1s-1-0.447-1-1v-2c0-0.553,0.448-1,1-1s1,0.447,1,1V37z M24,33h-4
	c-0.552,0-1-0.447-1-1s0.448-1,1-1h4c0.552,0,1,0.447,1,1S24.552,33,24,33z M27,37c0,0.553-0.448,1-1,1s-1-0.447-1-1v-2
	c0-0.553,0.448-1,1-1s1,0.447,1,1V37z M32,33h-4c-0.552,0-1-0.447-1-1s0.448-1,1-1h4c0.552,0,1,0.447,1,1S32.552,33,32,33z M35,37
	c0,0.553-0.448,1-1,1s-1-0.447-1-1v-2c0-0.553,0.448-1,1-1s1,0.447,1,1V37z M40,33h-4c-0.552,0-1-0.447-1-1s0.448-1,1-1h4
	c0.552,0,1,0.447,1,1S40.552,33,40,33z M43,37c0,0.553-0.448,1-1,1s-1-0.447-1-1v-2c0-0.553,0.448-1,1-1s1,0.447,1,1V37z M48,33h-4
	c-0.552,0-1-0.447-1-1s0.448-1,1-1h4c0.552,0,1,0.447,1,1S48.552,33,48,33z M51,37c0,0.553-0.448,1-1,1s-1-0.447-1-1v-2
	c0-0.553,0.448-1,1-1s1,0.447,1,1V37z M55,33h-3c-0.552,0-1-0.447-1-1s0.448-1,1-1h3c0.552,0,1,0.447,1,1S55.552,33,55,33z M55,25
	h-3c-0.552,0-1-0.447-1-1s0.448-1,1-1h3c0.552,0,1,0.447,1,1S55.552,25,55,25z"/>
<g>
</g>
<g>
</g>
<g>
</g>
<g>
</g>
<g>
</g>
<g>
</g>
<g>
</g>
<g>
</g>
<g>
</g>
<g>
</g>
<g>
</g>
<g>
</g>
<g>
</g>
<g>
</g>
<g>
</g>
</svg>
