<?xml version="1.0" encoding="iso-8859-1"?>
<!-- Generator: Adobe Illustrator 18.0.0, SVG Export Plug-In . SVG Version: 6.00 Build 0)  -->
<!DOCTYPE svg PUBLIC "-//W3C//DTD SVG 1.1//EN" "http://www.w3.org/Graphics/SVG/1.1/DTD/svg11.dtd">
<svg version="1.1" id="Capa_1" xmlns="http://www.w3.org/2000/svg" xmlns:xlink="http://www.w3.org/1999/xlink" x="0px" y="0px"
	 viewBox="0 0 60 60" style="enable-background:new 0 0 60 60;" xml:space="preserve">
<g>
	<rect x="5" y="22" width="55" height="6"/>
	<path d="M60,38v-8H5v7v1v9c0,0.553,0.448,1,1,1h7.031C11.806,48.912,11,50.359,11,52c0,2.757,2.243,5,5,5s5-2.243,5-5
		c0-1.641-0.806-3.088-2.031-4h21.062C38.806,48.912,38,50.359,38,52c0,2.757,2.243,5,5,5s5-2.243,5-5c0-1.641-0.806-3.088-2.031-4
		H52c0.552,0,1-0.447,1-1s-0.448-1-1-1H7v-8H60z"/>
	<path d="M1,5h4v7v1v7h55v-8H7V4c0-0.553-0.448-1-1-1H1C0.448,3,0,3.447,0,4S0.448,5,1,5z"/>
</g>
<g>
</g>
<g>
</g>
<g>
</g>
<g>
</g>
<g>
</g>
<g>
</g>
<g>
</g>
<g>
</g>
<g>
</g>
<g>
</g>
<g>
</g>
<g>
</g>
<g>
</g>
<g>
</g>
<g>
</g>
</svg>
