<?xml version="1.0" encoding="iso-8859-1"?>
<!-- Generator: Adobe Illustrator 18.0.0, SVG Export Plug-In . SVG Version: 6.00 Build 0)  -->
<!DOCTYPE svg PUBLIC "-//W3C//DTD SVG 1.1//EN" "http://www.w3.org/Graphics/SVG/1.1/DTD/svg11.dtd">
<svg version="1.1" id="Capa_1" xmlns="http://www.w3.org/2000/svg" xmlns:xlink="http://www.w3.org/1999/xlink" x="0px" y="0px"
	 viewBox="0 0 59 59" style="enable-background:new 0 0 59 59;" xml:space="preserve">
<path d="M11,14V7c0-0.553-0.448-1-1-1H7.858C7.411,4.28,5.858,3,4,3C1.794,3,0,4.794,0,7s1.794,4,4,4c1.858,0,3.411-1.28,3.858-3H9
	v6v2v24v1v5c0,0.553,0.448,1,1,1h7.031C15.806,47.912,15,49.359,15,51c0,2.757,2.243,5,5,5s5-2.243,5-5c0-1.641-0.806-3.088-2.031-4
	h18.062C39.806,47.912,39,49.359,39,51c0,2.757,2.243,5,5,5s5-2.243,5-5c0-1.641-0.806-3.088-2.031-4H53c0.552,0,1-0.447,1-1
	s-0.448-1-1-1H11v-4h48v-1V16v-2H11z M4,9C2.897,9,2,8.103,2,7s0.897-2,2-2c0.737,0,1.375,0.405,1.722,1H5C4.448,6,4,6.447,4,7
	s0.448,1,1,1h0.722C5.375,8.595,4.737,9,4,9z M19,36c0,0.553-0.448,1-1,1s-1-0.447-1-1v-3c0-0.553,0.448-1,1-1s1,0.447,1,1V36z
	 M19,29c0,0.553-0.448,1-1,1s-1-0.447-1-1v-3c0-0.553,0.448-1,1-1s1,0.447,1,1V29z M19,22c0,0.553-0.448,1-1,1s-1-0.447-1-1v-3
	c0-0.553,0.448-1,1-1s1,0.447,1,1V22z M27,36c0,0.553-0.448,1-1,1s-1-0.447-1-1v-3c0-0.553,0.448-1,1-1s1,0.447,1,1V36z M27,29
	c0,0.553-0.448,1-1,1s-1-0.447-1-1v-3c0-0.553,0.448-1,1-1s1,0.447,1,1V29z M27,22c0,0.553-0.448,1-1,1s-1-0.447-1-1v-3
	c0-0.553,0.448-1,1-1s1,0.447,1,1V22z M35,36c0,0.553-0.448,1-1,1s-1-0.447-1-1v-3c0-0.553,0.448-1,1-1s1,0.447,1,1V36z M35,29
	c0,0.553-0.448,1-1,1s-1-0.447-1-1v-3c0-0.553,0.448-1,1-1s1,0.447,1,1V29z M35,22c0,0.553-0.448,1-1,1s-1-0.447-1-1v-3
	c0-0.553,0.448-1,1-1s1,0.447,1,1V22z M43,36c0,0.553-0.448,1-1,1s-1-0.447-1-1v-3c0-0.553,0.448-1,1-1s1,0.447,1,1V36z M43,29
	c0,0.553-0.448,1-1,1s-1-0.447-1-1v-3c0-0.553,0.448-1,1-1s1,0.447,1,1V29z M43,22c0,0.553-0.448,1-1,1s-1-0.447-1-1v-3
	c0-0.553,0.448-1,1-1s1,0.447,1,1V22z M51,36c0,0.553-0.448,1-1,1s-1-0.447-1-1v-3c0-0.553,0.448-1,1-1s1,0.447,1,1V36z M51,29
	c0,0.553-0.448,1-1,1s-1-0.447-1-1v-3c0-0.553,0.448-1,1-1s1,0.447,1,1V29z M51,22c0,0.553-0.448,1-1,1s-1-0.447-1-1v-3
	c0-0.553,0.448-1,1-1s1,0.447,1,1V22z"/>
<g>
</g>
<g>
</g>
<g>
</g>
<g>
</g>
<g>
</g>
<g>
</g>
<g>
</g>
<g>
</g>
<g>
</g>
<g>
</g>
<g>
</g>
<g>
</g>
<g>
</g>
<g>
</g>
<g>
</g>
</svg>
