<?xml version="1.0" encoding="iso-8859-1"?>
<!-- Generator: Adobe Illustrator 18.0.0, SVG Export Plug-In . SVG Version: 6.00 Build 0)  -->
<!DOCTYPE svg PUBLIC "-//W3C//DTD SVG 1.1//EN" "http://www.w3.org/Graphics/SVG/1.1/DTD/svg11.dtd">
<svg version="1.1" id="Capa_1" xmlns="http://www.w3.org/2000/svg" xmlns:xlink="http://www.w3.org/1999/xlink" x="0px" y="0px"
	 viewBox="0 0 59 59" style="enable-background:new 0 0 59 59;" xml:space="preserve">
<g>
	<path d="M50,15c-0.553,0-1,0.447-1,1s0.447,1,1,1h7v22H11V17h7c0.553,0,1-0.447,1-1s-0.447-1-1-1h-7V7c0-0.553-0.447-1-1-1H7.858
		C7.411,4.28,5.859,3,4,3C1.794,3,0,4.794,0,7s1.794,4,4,4c1.859,0,3.411-1.28,3.858-3H9v7v1v24v1v6c0,0.553,0.447,1,1,1h7.031
		C15.806,48.912,15,50.359,15,52c0,2.757,2.243,5,5,5s5-2.243,5-5c0-1.641-0.806-3.088-2.031-4h18.062
		C39.806,48.912,39,50.359,39,52c0,2.757,2.243,5,5,5s5-2.243,5-5c0-1.641-0.806-3.088-2.031-4H53c0.553,0,1-0.447,1-1s-0.447-1-1-1
		H11v-5h48v-1V16v-1H50z M4,9C2.897,9,2,8.103,2,7s0.897-2,2-2c0.737,0,1.375,0.405,1.722,1H5C4.447,6,4,6.447,4,7s0.447,1,1,1
		h0.722C5.375,8.595,4.737,9,4,9z"/>
	<path d="M34,2c-7.72,0-14,6.28-14,14s6.28,14,14,14s14-6.28,14-14S41.72,2,34,2z M40.364,20.95c0.391,0.391,0.391,1.023,0,1.414
		c-0.195,0.195-0.451,0.293-0.707,0.293s-0.512-0.098-0.707-0.293L34,17.414l-4.95,4.95c-0.195,0.195-0.451,0.293-0.707,0.293
		s-0.512-0.098-0.707-0.293c-0.391-0.391-0.391-1.023,0-1.414l4.95-4.95l-4.95-4.95c-0.391-0.391-0.391-1.023,0-1.414
		s1.023-0.391,1.414,0l4.95,4.95l4.95-4.95c0.391-0.391,1.023-0.391,1.414,0s0.391,1.023,0,1.414L35.414,16L40.364,20.95z"/>
</g>
<g>
</g>
<g>
</g>
<g>
</g>
<g>
</g>
<g>
</g>
<g>
</g>
<g>
</g>
<g>
</g>
<g>
</g>
<g>
</g>
<g>
</g>
<g>
</g>
<g>
</g>
<g>
</g>
<g>
</g>
</svg>
