<?xml version="1.0" encoding="iso-8859-1"?>
<!-- Generator: Adobe Illustrator 18.0.0, SVG Export Plug-In . SVG Version: 6.00 Build 0)  -->
<!DOCTYPE svg PUBLIC "-//W3C//DTD SVG 1.1//EN" "http://www.w3.org/Graphics/SVG/1.1/DTD/svg11.dtd">
<svg version="1.1" id="Capa_1" xmlns="http://www.w3.org/2000/svg" xmlns:xlink="http://www.w3.org/1999/xlink" x="0px" y="0px"
	 viewBox="0 0 59 59" style="enable-background:new 0 0 59 59;" xml:space="preserve">
<g>
	<path d="M54,16.5h-8H28H16h-2h-2h-1v-8c0-0.553-0.448-1-1-1H7.858c-0.447-1.72-2-3-3.858-3c-2.206,0-4,1.794-4,4s1.794,4,4,4
		c1.858,0,3.411-1.28,3.858-3H9v7v1v24v1v6c0,0.553,0.448,1,1,1h7.031C15.806,50.412,15,51.859,15,53.5c0,2.757,2.243,5,5,5
		s5-2.243,5-5c0-1.641-0.806-3.088-2.031-4h18.062C39.806,50.412,39,51.859,39,53.5c0,2.757,2.243,5,5,5s5-2.243,5-5
		c0-1.641-0.806-3.088-2.031-4H53c0.552,0,1-0.447,1-1s-0.448-1-1-1H11v-5h48v-1v-24v-1h-3H54z M5,9.5h0.722
		c-0.347,0.595-0.985,1-1.722,1c-1.103,0-2-0.897-2-2s0.897-2,2-2c0.737,0,1.375,0.405,1.722,1H5c-0.552,0-1,0.447-1,1
		S4.448,9.5,5,9.5z M17,32.5h-6v-6h6V32.5z M25,40.5h-6v-6h6V40.5z M25,24.5h-6v-6h6V24.5z M33,32.5h-6v-6h6V32.5z M41,40.5h-6v-6h6
		V40.5z M41,24.5h-6v-6h6V24.5z M49,32.5h-6v-6h6V32.5z M57,40.5h-6v-6h6V40.5z M57,24.5h-6v-6h5h1V24.5z"/>
	<polygon points="16,14.5 16,10.5 28,10.5 28,14.5 46,14.5 46,5.5 54,5.5 54,14.5 56,14.5 56,3.5 46,3.5 46,0.5 28,0.5 28,8.5 
		14,8.5 14,14.5 	"/>
</g>
<g>
</g>
<g>
</g>
<g>
</g>
<g>
</g>
<g>
</g>
<g>
</g>
<g>
</g>
<g>
</g>
<g>
</g>
<g>
</g>
<g>
</g>
<g>
</g>
<g>
</g>
<g>
</g>
<g>
</g>
</svg>
