<?xml version="1.0" encoding="iso-8859-1"?>
<!-- Generator: Adobe Illustrator 18.0.0, SVG Export Plug-In . SVG Version: 6.00 Build 0)  -->
<!DOCTYPE svg PUBLIC "-//W3C//DTD SVG 1.1//EN" "http://www.w3.org/Graphics/SVG/1.1/DTD/svg11.dtd">
<svg version="1.1" id="Capa_1" xmlns="http://www.w3.org/2000/svg" xmlns:xlink="http://www.w3.org/1999/xlink" x="0px" y="0px"
	 viewBox="0 0 60 60" style="enable-background:new 0 0 60 60;" xml:space="preserve">
<g>
	<path d="M21,25H9v16h12V25z M11,32h1c0.552,0,1,0.447,1,1s-0.448,1-1,1h-1c-0.552,0-1-0.447-1-1S10.448,32,11,32z M16,39h-5
		c-0.552,0-1-0.447-1-1s0.448-1,1-1h5c0.552,0,1,0.447,1,1S16.552,39,16,39z M19,34h-1c-0.552,0-1-0.447-1-1s0.448-1,1-1h1
		c0.552,0,1,0.447,1,1S19.552,34,19,34z M19,29h-5c-0.552,0-1-0.447-1-1s0.448-1,1-1h5c0.552,0,1,0.447,1,1S19.552,29,19,29z"/>
	<rect x="33" y="11" width="16" height="9"/>
	<path d="M56,50v-2.02c1.118-0.101,2-1.033,2-2.177V17.196C58,15.985,57.015,15,55.804,15h-1.636C54.075,15,54,14.925,54,14.832
		V8.168C54,6.973,53.027,6,51.832,6H30.168C28.973,6,28,6.973,28,8.168v6.664C28,14.925,27.925,15,27.832,15H18v-2h6.287
		C25.231,13,26,12.231,26,11.286V1.714C26,0.769,25.231,0,24.287,0H5.713C4.769,0,4,0.769,4,1.714v9.572C4,12.231,4.769,13,5.713,13
		H12v2H4.196C2.985,15,2,15.985,2,17.196v28.607c0,1.144,0.882,2.075,2,2.177V50H0v10h60V50H56z M10,9c0,0.553-0.448,1-1,1
		S8,9.553,8,9V6C7.744,6,7.488,5.902,7.293,5.707c-0.391-0.391-0.391-1.023,0-1.414l0.999-0.999
		c0.092-0.093,0.203-0.166,0.326-0.217c0.244-0.101,0.52-0.101,0.764,0c0.245,0.101,0.44,0.296,0.541,0.541C9.973,3.74,10,3.87,10,4
		V9z M44,31v6h-6v-6H44z M38,30v-6h6v6H38z M44,38v6h-6v-6H44z M51,31v6h-6v-6H51z M45,30v-6h6v6H45z M51,38v6h-6v-6H51z M31,9h20
		v13H31V9z M31,24h6v6h-6V24z M31,31h6v6h-6V31z M31,38h6v6h-6V38z M27,19c0-0.553,0.448-1,1-1s1,0.447,1,1v25c0,0.553-0.448,1-1,1
		s-1-0.447-1-1V19z M20.293,4.293l0.999-0.999c0.092-0.093,0.203-0.166,0.326-0.217c0.244-0.101,0.52-0.101,0.764,0
		c0.245,0.101,0.44,0.296,0.541,0.541C22.973,3.74,23,3.87,23,4v5c0,0.553-0.448,1-1,1s-1-0.447-1-1V6
		c-0.256,0-0.512-0.098-0.707-0.293C19.902,5.316,19.902,4.684,20.293,4.293z M16.293,4.293l0.999-0.999
		c0.092-0.093,0.203-0.166,0.326-0.217c0.244-0.101,0.52-0.101,0.764,0c0.245,0.101,0.44,0.296,0.541,0.541
		C18.973,3.74,19,3.87,19,4v5c0,0.553-0.448,1-1,1s-1-0.447-1-1V6c-0.256,0-0.512-0.098-0.707-0.293
		C15.902,5.316,15.902,4.684,16.293,4.293z M12.293,8.293l1-1c0.391-0.391,1.023-0.391,1.414,0s0.391,1.023,0,1.414l-1,1
		C13.512,9.902,13.256,10,13,10s-0.512-0.098-0.707-0.293C11.902,9.316,11.902,8.684,12.293,8.293z M6,41h1V23h16v18h1
		c0.552,0,1,0.447,1,1s-0.448,1-1,1h-1H7H6c-0.552,0-1-0.447-1-1S5.448,41,6,41z M6,48h48v2H6V48z M20,56H6c-0.552,0-1-0.447-1-1
		s0.448-1,1-1h14c0.552,0,1,0.447,1,1S20.552,56,20,56z M55,56h-1c-0.552,0-1-0.447-1-1s0.448-1,1-1h1c0.552,0,1,0.447,1,1
		S55.552,56,55,56z"/>
</g>
<g>
</g>
<g>
</g>
<g>
</g>
<g>
</g>
<g>
</g>
<g>
</g>
<g>
</g>
<g>
</g>
<g>
</g>
<g>
</g>
<g>
</g>
<g>
</g>
<g>
</g>
<g>
</g>
<g>
</g>
</svg>
