<?xml version="1.0" encoding="iso-8859-1"?>
<!-- Generator: Adobe Illustrator 18.0.0, SVG Export Plug-In . SVG Version: 6.00 Build 0)  -->
<!DOCTYPE svg PUBLIC "-//W3C//DTD SVG 1.1//EN" "http://www.w3.org/Graphics/SVG/1.1/DTD/svg11.dtd">
<svg version="1.1" id="Capa_1" xmlns="http://www.w3.org/2000/svg" xmlns:xlink="http://www.w3.org/1999/xlink" x="0px" y="0px"
	 viewBox="0 0 60.001 60.001" style="enable-background:new 0 0 60.001 60.001;" xml:space="preserve">
<g>
	<path d="M1.144,47h57.714c0.464,0,0.878-0.276,1.056-0.705c0.177-0.429,0.08-0.917-0.248-1.245L54,39.385V12.958
		C54,8.571,50.431,5,46.042,5H45V2h-9v3H13.958C9.57,5,6,8.571,6,12.958v26.426L0.335,45.05c-0.328,0.328-0.425,0.816-0.248,1.245
		C0.265,46.724,0.68,47,1.144,47z M45,11h0.072C46.687,11,48,12.314,48,13.928V17h-3V11z M40,6h1c0.552,0,1,0.447,1,1s-0.448,1-1,1
		h-1c-0.552,0-1-0.447-1-1S39.448,6,40,6z M40,10h1c0.552,0,1,0.447,1,1s-0.448,1-1,1h-1c-0.552,0-1-0.447-1-1S39.448,10,40,10z
		 M40,14h1c0.552,0,1,0.447,1,1s-0.448,1-1,1h-1c-0.552,0-1-0.447-1-1S39.448,14,40,14z M8,12.958C8,9.673,10.673,7,13.958,7H36v2
		H14.928C12.211,9,10,11.211,10,13.928V19h26h2h5h2h5v-5.072C50,11.211,47.79,9,45.073,9H45V7h1.042C49.328,7,52,9.673,52,12.958V39
		H8V12.958z M36,11v6H12v-3.072C12,12.314,13.314,11,14.928,11H36z"/>
	<circle cx="11" cy="23" r="1"/>
	<circle cx="15" cy="23" r="1"/>
	<circle cx="15" cy="27" r="1"/>
	<circle cx="11" cy="27" r="1"/>
	<circle cx="11" cy="31" r="1"/>
	<circle cx="15" cy="31" r="1"/>
	<circle cx="15" cy="35" r="1"/>
	<circle cx="11" cy="35" r="1"/>
	<circle cx="19" cy="23" r="1"/>
	<circle cx="23" cy="23" r="1"/>
	<circle cx="23" cy="27" r="1"/>
	<circle cx="19" cy="27" r="1"/>
	<circle cx="19" cy="31" r="1"/>
	<circle cx="23" cy="31" r="1"/>
	<circle cx="23" cy="35" r="1"/>
	<circle cx="19" cy="35" r="1"/>
	<circle cx="37" cy="23" r="1"/>
	<circle cx="41" cy="23" r="1"/>
	<circle cx="41" cy="27" r="1"/>
	<circle cx="37" cy="27" r="1"/>
	<circle cx="37" cy="31" r="1"/>
	<circle cx="41" cy="31" r="1"/>
	<circle cx="41" cy="35" r="1"/>
	<circle cx="37" cy="35" r="1"/>
	<circle cx="45" cy="23" r="1"/>
	<circle cx="49" cy="23" r="1"/>
	<circle cx="49" cy="27" r="1"/>
	<circle cx="45" cy="27" r="1"/>
	<circle cx="45" cy="31" r="1"/>
	<circle cx="49" cy="31" r="1"/>
	<circle cx="49" cy="35" r="1"/>
	<circle cx="45" cy="35" r="1"/>
	<path d="M33,22h-6c-0.552,0-1,0.447-1,1s0.448,1,1,1h6c0.552,0,1-0.447,1-1S33.553,22,33,22z"/>
	<path d="M33,26h-6c-0.552,0-1,0.447-1,1s0.448,1,1,1h6c0.552,0,1-0.447,1-1S33.553,26,33,26z"/>
	<path d="M33,30h-6c-0.552,0-1,0.447-1,1s0.448,1,1,1h6c0.552,0,1-0.447,1-1S33.553,30,33,30z"/>
	<path d="M33,34h-6c-0.552,0-1,0.447-1,1s0.448,1,1,1h6c0.552,0,1-0.447,1-1S33.553,34,33,34z"/>
	<path d="M58.683,48H1.318C0.592,48,0,48.592,0,49.319v7.363C0,57.409,0.592,58,1.318,58h57.364C59.409,58,60,57.409,60,56.682
		v-7.363C60,48.592,59.409,48,58.683,48z M34,55h-8c-1.654,0-3-1.346-3-3c0-0.553,0.448-1,1-1s1,0.447,1,1c0,0.552,0.449,1,1,1h8
		c0.551,0,1-0.448,1-1c0-0.553,0.448-1,1-1s1,0.447,1,1C37,53.655,35.655,55,34,55z"/>
</g>
<g>
</g>
<g>
</g>
<g>
</g>
<g>
</g>
<g>
</g>
<g>
</g>
<g>
</g>
<g>
</g>
<g>
</g>
<g>
</g>
<g>
</g>
<g>
</g>
<g>
</g>
<g>
</g>
<g>
</g>
</svg>
