<?xml version="1.0" encoding="iso-8859-1"?>
<!-- Generator: Adobe Illustrator 18.0.0, SVG Export Plug-In . SVG Version: 6.00 Build 0)  -->
<!DOCTYPE svg PUBLIC "-//W3C//DTD SVG 1.1//EN" "http://www.w3.org/Graphics/SVG/1.1/DTD/svg11.dtd">
<svg version="1.1" id="Capa_1" xmlns="http://www.w3.org/2000/svg" xmlns:xlink="http://www.w3.org/1999/xlink" x="0px" y="0px"
	 viewBox="0 0 59 59" style="enable-background:new 0 0 59 59;" xml:space="preserve">
<g>
	<path d="M30.5,10c1.93,0,3.5-1.57,3.5-3.5S32.43,3,30.5,3S27,4.57,27,6.5S28.57,10,30.5,10z"/>
	<path d="M9.5,10c1.93,0,3.5-1.57,3.5-3.5S11.43,3,9.5,3S6,4.57,6,6.5S7.57,10,9.5,10z"/>
	<path d="M9.5,48C7.57,48,6,49.57,6,51.5S7.57,55,9.5,55s3.5-1.57,3.5-3.5S11.43,48,9.5,48z"/>
	<path d="M46,17.016V0h-3h-2h-1h-2h-1h-2H3v58h24.039c1.584,0.632,3.444,1,5.461,1c2.488,0,4.742-0.554,6.523-1.484
		C40.865,58.473,43.136,59,45.5,59c5.888,0,10.5-3.075,10.5-7v-4v-4v-4v-4v-4v-4v-4C56,20.187,51.645,17.186,46,17.016z M54,24
		c0,2.71-3.893,5-8.5,5S37,26.71,37,24c0-0.167,0.015-0.332,0.044-0.495c0.008-0.047,0.025-0.093,0.036-0.139
		c0.026-0.116,0.053-0.233,0.093-0.347c0.018-0.051,0.045-0.101,0.066-0.152c0.044-0.107,0.087-0.215,0.144-0.32
		c0.031-0.058,0.071-0.113,0.106-0.17c0.057-0.095,0.113-0.19,0.18-0.282c0.054-0.074,0.118-0.146,0.179-0.219
		c0.058-0.071,0.112-0.142,0.176-0.211c0.098-0.106,0.208-0.209,0.32-0.311c0.035-0.032,0.066-0.066,0.102-0.097
		c0.309-0.27,0.665-0.526,1.067-0.764c0.389-0.231,0.809-0.435,1.254-0.615c0.026-0.011,0.054-0.02,0.081-0.031
		c0.44-0.174,0.902-0.325,1.39-0.447c0.017-0.004,0.035-0.007,0.052-0.012c0.414-0.102,0.842-0.184,1.28-0.245
		c0.018-0.003,0.035-0.006,0.053-0.008c0.461-0.062,0.932-0.102,1.412-0.118L45.505,19C50.11,19.002,54,21.29,54,24z M53.935,48.578
		c-0.017,0.084-0.042,0.167-0.067,0.251c-0.023,0.078-0.045,0.156-0.074,0.232c-0.032,0.082-0.071,0.163-0.11,0.244
		c-0.036,0.075-0.07,0.15-0.112,0.224c-0.045,0.079-0.097,0.157-0.149,0.234c-0.048,0.072-0.094,0.145-0.148,0.215
		c-0.058,0.077-0.123,0.151-0.188,0.225c-0.059,0.068-0.115,0.137-0.179,0.203c-0.071,0.074-0.149,0.145-0.226,0.216
		c-0.068,0.064-0.134,0.128-0.207,0.19c-0.082,0.07-0.172,0.136-0.26,0.203c-0.078,0.059-0.153,0.119-0.235,0.177
		c-0.093,0.065-0.193,0.126-0.292,0.188c-0.086,0.055-0.17,0.11-0.26,0.163c-0.103,0.06-0.212,0.115-0.32,0.172
		c-0.095,0.05-0.187,0.101-0.285,0.148c-0.113,0.054-0.232,0.104-0.35,0.155c-0.1,0.044-0.198,0.089-0.302,0.13
		c-0.124,0.049-0.255,0.093-0.384,0.139c-0.104,0.037-0.205,0.076-0.312,0.11c-0.133,0.043-0.273,0.08-0.41,0.118
		c-0.109,0.031-0.215,0.064-0.326,0.092c-0.143,0.036-0.291,0.065-0.437,0.096c-0.111,0.024-0.219,0.051-0.332,0.071
		c-0.159,0.029-0.322,0.051-0.484,0.075c-0.105,0.016-0.209,0.035-0.316,0.048c-0.181,0.022-0.366,0.036-0.55,0.051
		c-0.092,0.008-0.182,0.019-0.275,0.025C46.067,52.991,45.785,53,45.5,53c-0.391,0-0.776-0.022-1.158-0.054
		c-0.104-0.009-0.207-0.019-0.31-0.03c-0.321-0.034-0.639-0.079-0.953-0.136c-0.046-0.008-0.093-0.014-0.14-0.023
		C42.978,52.508,43,52.256,43,52v-1.2c0.07,0.011,0.141,0.015,0.211,0.025c0.27,0.04,0.542,0.073,0.815,0.098
		c0.113,0.011,0.225,0.023,0.338,0.031C44.741,50.982,45.119,51,45.5,51c0.409,0,0.81-0.018,1.206-0.047
		c0.128-0.009,0.251-0.025,0.378-0.037c0.267-0.026,0.531-0.056,0.79-0.094c0.142-0.021,0.281-0.046,0.42-0.07
		c0.24-0.043,0.476-0.09,0.708-0.144c0.136-0.031,0.27-0.062,0.403-0.097c0.24-0.062,0.472-0.132,0.703-0.206
		c0.112-0.036,0.226-0.068,0.335-0.106c0.32-0.112,0.632-0.232,0.93-0.364c0.012-0.005,0.024-0.009,0.036-0.014
		c0.309-0.138,0.603-0.289,0.887-0.448c0.091-0.051,0.175-0.106,0.263-0.159c0.189-0.114,0.374-0.23,0.55-0.352
		c0.094-0.066,0.184-0.134,0.275-0.202c0.161-0.121,0.314-0.246,0.462-0.374c0.044-0.039,0.096-0.073,0.139-0.112
		c-0.003,0.055-0.008,0.111-0.015,0.166C53.96,48.418,53.951,48.498,53.935,48.578z M40.935,48.578
		c-0.017,0.084-0.042,0.167-0.067,0.251c-0.023,0.078-0.045,0.156-0.074,0.232c-0.032,0.082-0.071,0.163-0.11,0.244
		c-0.036,0.075-0.07,0.15-0.112,0.224c-0.045,0.079-0.097,0.157-0.149,0.234c-0.048,0.072-0.094,0.145-0.148,0.215
		c-0.058,0.077-0.123,0.151-0.188,0.225c-0.059,0.068-0.115,0.137-0.179,0.203c-0.071,0.074-0.149,0.145-0.226,0.216
		c-0.068,0.064-0.134,0.128-0.207,0.19c-0.082,0.07-0.172,0.136-0.26,0.203c-0.078,0.059-0.153,0.119-0.235,0.177
		c-0.093,0.065-0.193,0.126-0.292,0.188c-0.086,0.055-0.17,0.11-0.26,0.163c-0.103,0.06-0.212,0.115-0.32,0.172
		c-0.095,0.05-0.187,0.101-0.285,0.148c-0.113,0.054-0.232,0.104-0.35,0.155c-0.1,0.044-0.198,0.089-0.302,0.13
		c-0.124,0.049-0.255,0.093-0.384,0.139c-0.104,0.037-0.205,0.076-0.312,0.11c-0.133,0.043-0.273,0.08-0.41,0.118
		c-0.109,0.031-0.215,0.064-0.326,0.092c-0.143,0.036-0.291,0.065-0.437,0.096c-0.111,0.024-0.219,0.051-0.332,0.071
		c-0.159,0.029-0.322,0.051-0.484,0.075c-0.105,0.016-0.209,0.035-0.316,0.048c-0.181,0.022-0.366,0.036-0.55,0.051
		c-0.092,0.008-0.182,0.019-0.275,0.025C33.067,52.991,32.785,53,32.5,53s-0.567-0.009-0.846-0.026
		c-0.093-0.006-0.183-0.017-0.275-0.025c-0.185-0.015-0.37-0.029-0.55-0.051c-0.107-0.013-0.21-0.032-0.316-0.048
		c-0.162-0.024-0.325-0.046-0.484-0.075c-0.112-0.021-0.22-0.048-0.331-0.071c-0.147-0.031-0.295-0.061-0.439-0.097
		c-0.111-0.028-0.216-0.061-0.324-0.091c-0.138-0.039-0.278-0.076-0.412-0.119c-0.107-0.034-0.208-0.073-0.312-0.11
		c-0.129-0.046-0.259-0.089-0.384-0.139c-0.104-0.041-0.201-0.087-0.302-0.13c-0.117-0.051-0.237-0.101-0.35-0.155
		c-0.098-0.047-0.19-0.099-0.285-0.148c-0.108-0.057-0.217-0.112-0.32-0.172c-0.09-0.052-0.174-0.108-0.26-0.163
		c-0.098-0.062-0.199-0.123-0.292-0.188c-0.082-0.057-0.157-0.117-0.235-0.177c-0.088-0.067-0.178-0.133-0.26-0.203
		c-0.073-0.062-0.139-0.126-0.207-0.19c-0.077-0.071-0.155-0.142-0.226-0.216c-0.063-0.066-0.12-0.135-0.178-0.202
		c-0.064-0.075-0.13-0.149-0.188-0.226c-0.053-0.07-0.099-0.142-0.147-0.214c-0.052-0.078-0.105-0.156-0.15-0.235
		c-0.042-0.073-0.076-0.149-0.112-0.224c-0.039-0.081-0.078-0.162-0.11-0.244c-0.029-0.076-0.051-0.154-0.074-0.232
		c-0.025-0.083-0.05-0.166-0.067-0.251c-0.016-0.079-0.025-0.16-0.035-0.24c-0.007-0.055-0.011-0.11-0.015-0.166
		c0.043,0.039,0.094,0.074,0.138,0.112c0.148,0.129,0.302,0.254,0.463,0.375c0.09,0.068,0.18,0.136,0.274,0.201
		c0.176,0.123,0.361,0.239,0.551,0.353c0.088,0.053,0.172,0.108,0.263,0.159c0.284,0.159,0.578,0.31,0.887,0.448
		c0.011,0.005,0.022,0.008,0.033,0.013c0.3,0.133,0.612,0.254,0.933,0.365c0.109,0.038,0.223,0.07,0.335,0.106
		c0.23,0.073,0.463,0.143,0.703,0.206c0.133,0.034,0.267,0.065,0.403,0.096c0.232,0.053,0.468,0.101,0.708,0.144
		c0.139,0.025,0.278,0.049,0.42,0.07c0.259,0.039,0.523,0.068,0.79,0.094c0.126,0.012,0.25,0.028,0.377,0.037
		C31.69,50.982,32.091,51,32.5,51s0.81-0.018,1.206-0.047c0.128-0.009,0.251-0.025,0.378-0.037c0.267-0.026,0.531-0.056,0.79-0.094
		c0.142-0.021,0.281-0.046,0.42-0.07c0.24-0.043,0.476-0.09,0.708-0.144c0.136-0.031,0.27-0.062,0.403-0.097
		c0.24-0.062,0.472-0.132,0.703-0.206c0.112-0.036,0.226-0.068,0.335-0.106c0.32-0.112,0.632-0.232,0.93-0.364
		c0.012-0.005,0.024-0.009,0.036-0.014c0.309-0.138,0.603-0.289,0.887-0.448c0.091-0.051,0.175-0.106,0.263-0.159
		c0.189-0.114,0.374-0.23,0.55-0.352c0.094-0.066,0.184-0.134,0.275-0.202c0.161-0.121,0.314-0.246,0.462-0.374
		c0.044-0.039,0.096-0.073,0.139-0.112c-0.003,0.055-0.008,0.111-0.015,0.166C40.96,48.418,40.951,48.498,40.935,48.578z M10,39.177
		c0-0.165,0.17-0.169,0.171-0.169c0.027,0,0.061,0.006,0.104,0.048c0.112,0.109,0.237,0.2,0.352,0.305
		c0.121,0.11,0.245,0.214,0.37,0.32c0.258,0.219,0.519,0.432,0.791,0.631c0.109,0.079,0.223,0.152,0.334,0.228
		c0.297,0.204,0.596,0.405,0.907,0.585c0.076,0.044,0.157,0.081,0.234,0.124c1.091,0.604,2.253,1.057,3.464,1.349
		c0.119,0.029,0.234,0.068,0.354,0.093c0.288,0.062,0.582,0.098,0.875,0.141c0.217,0.032,0.432,0.072,0.652,0.094
		c0.259,0.026,0.521,0.031,0.783,0.042C19.593,42.976,19.794,43,20,43c0.057,0,0.116-0.01,0.172-0.01
		c0.298-0.004,0.597-0.031,0.896-0.055c0.229-0.019,0.457-0.03,0.688-0.06c0.081-0.01,0.162-0.009,0.243-0.021V44v4v3h-6.019
		c-0.244-3.187-2.795-5.737-5.981-5.981V39.177z M26.348,32.596c0.389-0.243,0.818-0.463,1.279-0.658
		c0.002-0.001,0.004-0.002,0.006-0.003c0.221-0.093,0.451-0.18,0.687-0.261c0.013-0.004,0.025-0.009,0.038-0.014
		c0.221-0.075,0.45-0.143,0.682-0.206c0.03-0.008,0.058-0.018,0.088-0.025c0.216-0.057,0.438-0.106,0.662-0.152
		c0.048-0.01,0.095-0.022,0.144-0.032c0.21-0.041,0.425-0.073,0.641-0.104c0.065-0.009,0.128-0.022,0.193-0.03
		c0.213-0.027,0.431-0.046,0.65-0.063c0.069-0.005,0.137-0.015,0.207-0.019C31.914,31.01,32.205,31,32.5,31
		c0.546,0,1.087,0.034,1.621,0.097c0.015,0.002,0.03,0.002,0.045,0.004c0.528,0.065,1.047,0.161,1.556,0.287
		c0.438,0.109,0.854,0.242,1.253,0.392c0.195,0.073,0.385,0.151,0.57,0.233c0.102,0.045,0.208,0.088,0.306,0.136
		c0.276,0.135,0.537,0.281,0.784,0.436c0.056,0.034,0.109,0.07,0.163,0.105c0.541,0.358,1.005,0.759,1.36,1.191
		c0.01,0.012,0.021,0.025,0.031,0.037c0.121,0.15,0.227,0.302,0.32,0.455c0.011,0.018,0.023,0.035,0.033,0.052
		c0.086,0.145,0.155,0.292,0.217,0.439c0.012,0.029,0.027,0.056,0.038,0.085c0.053,0.138,0.09,0.277,0.122,0.417
		c0.008,0.036,0.022,0.072,0.029,0.108C40.982,35.65,41,35.824,41,36c0,2.71-3.893,5-8.5,5S24,38.71,24,36
		c0-0.209,0.028-0.414,0.075-0.616c0.005-0.024,0.013-0.048,0.019-0.072c0.05-0.195,0.116-0.387,0.203-0.575
		C24.671,33.929,25.387,33.195,26.348,32.596z M10.856,18.432c-0.055,0.048-0.11,0.096-0.165,0.145
		c-0.138,0.123-0.282,0.237-0.416,0.366c-0.044,0.042-0.077,0.048-0.104,0.048c-0.001,0-0.171-0.004-0.171-0.169v-5.842
		c3.187-0.244,5.737-2.794,5.981-5.981h8.037c0.244,3.187,2.795,5.737,5.981,5.981v6.232c-0.015-0.015-0.031-0.028-0.046-0.043
		c-0.168-0.17-0.348-0.327-0.525-0.488c-0.171-0.157-0.337-0.32-0.514-0.468c-0.065-0.054-0.135-0.1-0.201-0.152
		c-2.051-1.644-4.529-2.686-7.189-2.975c-0.033-0.004-0.064-0.011-0.097-0.015C20.957,15.025,20.481,15,20,15
		c-0.483,0-0.962,0.028-1.437,0.077c-0.133,0.014-0.263,0.04-0.395,0.057c-0.344,0.045-0.686,0.095-1.023,0.165
		c-0.128,0.027-0.253,0.063-0.38,0.093c-0.34,0.081-0.677,0.169-1.009,0.274c-0.104,0.033-0.206,0.072-0.309,0.108
		c-0.35,0.121-0.695,0.252-1.035,0.401c-0.078,0.034-0.154,0.072-0.232,0.107c-0.355,0.163-0.703,0.34-1.044,0.533
		c-0.06,0.034-0.119,0.069-0.178,0.104c-0.346,0.203-0.683,0.42-1.011,0.653c-0.053,0.037-0.105,0.075-0.157,0.113
		C11.47,17.921,11.159,18.169,10.856,18.432z M37.617,28.659c0.09,0.068,0.18,0.136,0.274,0.201
		c0.176,0.123,0.361,0.239,0.551,0.353c0.088,0.053,0.172,0.108,0.263,0.159c0.284,0.159,0.578,0.31,0.887,0.448
		c0.011,0.005,0.022,0.008,0.033,0.013c0.3,0.133,0.612,0.254,0.933,0.365c0.109,0.038,0.223,0.07,0.335,0.106
		c0.23,0.073,0.463,0.143,0.703,0.206c0.133,0.034,0.267,0.065,0.403,0.096c0.232,0.053,0.468,0.101,0.708,0.144
		c0.139,0.025,0.278,0.049,0.42,0.07c0.259,0.039,0.523,0.068,0.79,0.094c0.126,0.012,0.25,0.028,0.377,0.037
		C44.69,30.982,45.091,31,45.5,31s0.81-0.018,1.206-0.047c0.128-0.009,0.251-0.025,0.378-0.037c0.267-0.026,0.531-0.056,0.79-0.094
		c0.142-0.021,0.281-0.046,0.42-0.07c0.24-0.043,0.476-0.09,0.708-0.144c0.136-0.031,0.27-0.062,0.403-0.097
		c0.24-0.062,0.472-0.132,0.703-0.206c0.112-0.036,0.226-0.068,0.335-0.106c0.32-0.112,0.632-0.232,0.93-0.364
		c0.012-0.005,0.024-0.009,0.036-0.014c0.309-0.138,0.603-0.289,0.887-0.448c0.091-0.051,0.175-0.106,0.263-0.159
		c0.189-0.114,0.374-0.23,0.55-0.352c0.094-0.066,0.184-0.134,0.275-0.202c0.161-0.121,0.314-0.246,0.462-0.374
		c0.044-0.039,0.096-0.073,0.139-0.112c-0.003,0.055-0.008,0.111-0.015,0.166c-0.01,0.08-0.018,0.161-0.035,0.24
		c-0.017,0.084-0.042,0.167-0.067,0.251c-0.023,0.078-0.045,0.156-0.074,0.232c-0.032,0.082-0.071,0.163-0.11,0.244
		c-0.036,0.075-0.07,0.15-0.112,0.224c-0.045,0.079-0.097,0.157-0.149,0.234c-0.048,0.072-0.094,0.145-0.148,0.215
		c-0.058,0.077-0.123,0.151-0.188,0.225c-0.059,0.068-0.115,0.137-0.179,0.203c-0.071,0.074-0.149,0.145-0.226,0.216
		c-0.068,0.064-0.134,0.128-0.207,0.19c-0.082,0.07-0.172,0.136-0.26,0.203c-0.078,0.059-0.153,0.119-0.235,0.177
		c-0.093,0.065-0.193,0.126-0.292,0.188c-0.086,0.055-0.17,0.11-0.26,0.163c-0.103,0.06-0.212,0.115-0.32,0.172
		c-0.095,0.05-0.187,0.101-0.285,0.148c-0.113,0.054-0.232,0.104-0.35,0.155c-0.1,0.044-0.198,0.089-0.302,0.13
		c-0.124,0.049-0.255,0.093-0.384,0.139c-0.104,0.037-0.205,0.076-0.312,0.11c-0.133,0.043-0.273,0.08-0.41,0.118
		c-0.109,0.031-0.215,0.064-0.326,0.092c-0.143,0.036-0.291,0.065-0.437,0.096c-0.111,0.024-0.219,0.051-0.332,0.071
		c-0.159,0.029-0.322,0.051-0.484,0.075c-0.105,0.016-0.209,0.035-0.316,0.048c-0.181,0.022-0.366,0.036-0.55,0.051
		c-0.092,0.008-0.182,0.019-0.275,0.025C46.067,32.991,45.785,33,45.5,33c-0.359,0-0.716-0.015-1.07-0.042
		c-0.113-0.009-0.223-0.026-0.335-0.037c-0.24-0.024-0.479-0.049-0.714-0.085c-0.131-0.02-0.258-0.049-0.388-0.073
		c-0.211-0.039-0.423-0.078-0.629-0.128c-0.132-0.032-0.26-0.071-0.389-0.106c-0.149-0.041-0.296-0.084-0.44-0.13
		c-0.934-1.056-2.267-1.926-3.88-2.521c-0.397-0.554-0.616-1.129-0.65-1.714c0.046,0.042,0.101,0.079,0.149,0.121
		C37.302,28.413,37.456,28.538,37.617,28.659z M53.109,32.861c0.094-0.066,0.184-0.134,0.275-0.202
		c0.161-0.121,0.314-0.246,0.462-0.374c0.044-0.039,0.096-0.073,0.139-0.112c-0.003,0.055-0.008,0.111-0.015,0.166
		c-0.01,0.08-0.018,0.161-0.035,0.24c-0.017,0.084-0.042,0.167-0.067,0.251c-0.023,0.078-0.045,0.156-0.074,0.232
		c-0.032,0.082-0.071,0.163-0.11,0.244c-0.036,0.075-0.07,0.15-0.112,0.224c-0.045,0.079-0.097,0.157-0.149,0.234
		c-0.048,0.072-0.094,0.145-0.148,0.215c-0.058,0.077-0.123,0.151-0.188,0.225c-0.059,0.068-0.115,0.137-0.179,0.203
		c-0.071,0.074-0.149,0.145-0.226,0.216c-0.068,0.064-0.134,0.128-0.207,0.19c-0.082,0.07-0.172,0.136-0.26,0.203
		c-0.078,0.059-0.153,0.119-0.235,0.177c-0.093,0.065-0.193,0.126-0.292,0.188c-0.086,0.055-0.17,0.11-0.26,0.163
		c-0.103,0.06-0.212,0.115-0.32,0.172c-0.095,0.05-0.187,0.101-0.285,0.148c-0.113,0.054-0.232,0.104-0.35,0.155
		c-0.1,0.044-0.198,0.089-0.302,0.13c-0.124,0.049-0.255,0.093-0.384,0.139c-0.104,0.037-0.205,0.076-0.312,0.11
		c-0.133,0.043-0.273,0.08-0.41,0.118c-0.109,0.031-0.215,0.064-0.326,0.092c-0.143,0.036-0.291,0.065-0.437,0.096
		c-0.111,0.024-0.219,0.051-0.332,0.071c-0.159,0.029-0.322,0.051-0.484,0.075c-0.105,0.016-0.209,0.035-0.316,0.048
		c-0.181,0.022-0.366,0.036-0.55,0.051c-0.092,0.008-0.182,0.019-0.275,0.025C46.067,36.991,45.785,37,45.5,37
		c-0.503,0-1.001-0.036-1.494-0.09c-0.147-0.016-0.293-0.04-0.439-0.061c-0.191-0.027-0.378-0.069-0.567-0.105V36
		c0-0.219-0.018-0.438-0.048-0.656c-0.018-0.137-0.05-0.27-0.08-0.405c-0.012-0.055-0.018-0.11-0.032-0.164
		c0.023,0.004,0.046,0.005,0.069,0.009c0.283,0.047,0.572,0.078,0.86,0.11c0.142,0.016,0.281,0.039,0.424,0.051
		C44.626,34.981,45.062,35,45.5,35c0.409,0,0.81-0.018,1.206-0.047c0.128-0.009,0.251-0.025,0.378-0.037
		c0.267-0.026,0.531-0.056,0.79-0.094c0.142-0.021,0.281-0.046,0.42-0.07c0.24-0.043,0.476-0.09,0.708-0.144
		c0.136-0.031,0.27-0.062,0.403-0.097c0.24-0.062,0.472-0.132,0.703-0.206c0.112-0.036,0.226-0.068,0.335-0.106
		c0.32-0.112,0.632-0.232,0.93-0.364c0.012-0.005,0.024-0.009,0.036-0.014c0.309-0.138,0.603-0.289,0.887-0.448
		c0.091-0.051,0.175-0.106,0.263-0.159C52.748,33.1,52.933,32.983,53.109,32.861z M53.109,36.861
		c0.094-0.066,0.184-0.134,0.275-0.202c0.161-0.121,0.314-0.246,0.462-0.374c0.044-0.039,0.096-0.073,0.139-0.112
		c-0.003,0.055-0.008,0.111-0.015,0.166c-0.01,0.08-0.018,0.161-0.035,0.24c-0.017,0.084-0.042,0.167-0.067,0.251
		c-0.023,0.078-0.045,0.156-0.074,0.232c-0.032,0.082-0.071,0.163-0.11,0.244c-0.036,0.075-0.07,0.15-0.112,0.224
		c-0.045,0.079-0.097,0.157-0.149,0.234c-0.048,0.072-0.094,0.145-0.148,0.215c-0.058,0.077-0.123,0.151-0.188,0.225
		c-0.059,0.068-0.115,0.137-0.179,0.203c-0.071,0.074-0.149,0.145-0.226,0.216c-0.068,0.064-0.134,0.128-0.207,0.19
		c-0.082,0.07-0.172,0.136-0.26,0.203c-0.078,0.059-0.153,0.119-0.235,0.177c-0.093,0.065-0.193,0.126-0.292,0.188
		c-0.086,0.055-0.17,0.11-0.26,0.163c-0.103,0.06-0.212,0.115-0.32,0.172c-0.095,0.05-0.187,0.101-0.285,0.148
		c-0.113,0.054-0.232,0.104-0.35,0.155c-0.1,0.044-0.198,0.089-0.302,0.13c-0.124,0.049-0.255,0.093-0.384,0.139
		c-0.104,0.037-0.205,0.076-0.312,0.11c-0.133,0.043-0.273,0.08-0.41,0.118c-0.109,0.031-0.215,0.064-0.326,0.092
		c-0.143,0.036-0.291,0.065-0.437,0.096c-0.111,0.024-0.219,0.051-0.332,0.071c-0.159,0.029-0.322,0.051-0.484,0.075
		c-0.105,0.016-0.209,0.035-0.316,0.048c-0.181,0.022-0.366,0.036-0.55,0.051c-0.092,0.008-0.182,0.019-0.275,0.025
		C46.067,40.991,45.785,41,45.5,41c-0.503,0-1.001-0.036-1.494-0.09c-0.147-0.016-0.293-0.04-0.439-0.061
		c-0.191-0.027-0.378-0.069-0.567-0.105V40v-1.2c0.07,0.011,0.141,0.015,0.211,0.025c0.27,0.04,0.542,0.073,0.815,0.098
		c0.113,0.011,0.225,0.023,0.338,0.031C44.741,38.982,45.119,39,45.5,39c0.409,0,0.81-0.018,1.206-0.047
		c0.128-0.009,0.251-0.025,0.378-0.037c0.267-0.026,0.531-0.056,0.79-0.094c0.142-0.021,0.281-0.046,0.42-0.07
		c0.24-0.043,0.476-0.09,0.708-0.144c0.136-0.031,0.27-0.062,0.403-0.097c0.24-0.062,0.472-0.132,0.703-0.206
		c0.112-0.036,0.226-0.068,0.335-0.106c0.32-0.112,0.632-0.232,0.93-0.364c0.012-0.005,0.024-0.009,0.036-0.014
		c0.309-0.138,0.603-0.289,0.887-0.448c0.091-0.051,0.175-0.106,0.263-0.159C52.748,37.1,52.933,36.983,53.109,36.861z
		 M53.109,40.861c0.094-0.066,0.184-0.134,0.275-0.202c0.161-0.121,0.314-0.246,0.462-0.374c0.044-0.039,0.096-0.073,0.139-0.112
		c-0.003,0.055-0.008,0.111-0.015,0.166c-0.01,0.08-0.018,0.161-0.035,0.24c-0.017,0.084-0.042,0.167-0.067,0.251
		c-0.023,0.078-0.045,0.156-0.074,0.232c-0.032,0.082-0.071,0.163-0.11,0.244c-0.036,0.075-0.07,0.15-0.112,0.224
		c-0.045,0.079-0.097,0.157-0.149,0.234c-0.048,0.072-0.094,0.145-0.148,0.215c-0.058,0.077-0.123,0.151-0.188,0.225
		c-0.059,0.068-0.115,0.137-0.179,0.203c-0.071,0.074-0.149,0.145-0.226,0.216c-0.068,0.064-0.134,0.128-0.207,0.19
		c-0.082,0.07-0.172,0.136-0.26,0.203c-0.078,0.059-0.153,0.119-0.235,0.177c-0.093,0.065-0.193,0.126-0.292,0.188
		c-0.086,0.055-0.17,0.11-0.26,0.163c-0.103,0.06-0.212,0.115-0.32,0.172c-0.095,0.05-0.187,0.101-0.285,0.148
		c-0.113,0.054-0.232,0.104-0.35,0.155c-0.1,0.044-0.198,0.089-0.302,0.13c-0.124,0.049-0.255,0.093-0.384,0.139
		c-0.104,0.037-0.205,0.076-0.312,0.11c-0.133,0.043-0.273,0.08-0.41,0.118c-0.109,0.031-0.215,0.064-0.326,0.092
		c-0.143,0.036-0.291,0.065-0.437,0.096c-0.111,0.024-0.219,0.051-0.332,0.071c-0.159,0.029-0.322,0.051-0.484,0.075
		c-0.105,0.016-0.209,0.035-0.316,0.048c-0.181,0.022-0.366,0.036-0.55,0.051c-0.092,0.008-0.182,0.019-0.275,0.025
		C46.067,44.991,45.785,45,45.5,45c-0.503,0-1.001-0.036-1.494-0.09c-0.147-0.016-0.293-0.04-0.439-0.061
		c-0.191-0.027-0.378-0.069-0.567-0.105V44v-1.2c0.07,0.011,0.141,0.015,0.211,0.025c0.27,0.04,0.542,0.073,0.815,0.098
		c0.113,0.011,0.225,0.023,0.338,0.031C44.741,42.982,45.119,43,45.5,43c0.409,0,0.81-0.018,1.206-0.047
		c0.128-0.009,0.251-0.025,0.378-0.037c0.267-0.026,0.531-0.056,0.79-0.094c0.142-0.021,0.281-0.046,0.42-0.07
		c0.24-0.043,0.476-0.09,0.708-0.144c0.136-0.031,0.27-0.062,0.403-0.097c0.24-0.062,0.472-0.132,0.703-0.206
		c0.112-0.036,0.226-0.068,0.335-0.106c0.32-0.112,0.632-0.232,0.93-0.364c0.012-0.005,0.024-0.009,0.036-0.014
		c0.309-0.138,0.603-0.289,0.887-0.448c0.091-0.051,0.175-0.106,0.263-0.159C52.748,41.1,52.933,40.983,53.109,40.861z
		 M53.109,44.861c0.094-0.066,0.184-0.134,0.275-0.202c0.161-0.121,0.314-0.246,0.462-0.374c0.044-0.039,0.096-0.073,0.139-0.112
		c-0.003,0.055-0.008,0.111-0.015,0.166c-0.01,0.08-0.018,0.161-0.035,0.24c-0.017,0.084-0.042,0.167-0.067,0.251
		c-0.023,0.078-0.045,0.156-0.074,0.232c-0.032,0.082-0.071,0.163-0.11,0.244c-0.036,0.075-0.07,0.15-0.112,0.224
		c-0.045,0.079-0.097,0.157-0.149,0.234c-0.048,0.072-0.094,0.145-0.148,0.215c-0.058,0.077-0.123,0.151-0.188,0.225
		c-0.059,0.068-0.115,0.137-0.179,0.203c-0.071,0.074-0.149,0.145-0.226,0.216c-0.068,0.064-0.134,0.128-0.207,0.19
		c-0.082,0.07-0.172,0.136-0.26,0.203c-0.078,0.059-0.153,0.119-0.235,0.177c-0.093,0.065-0.193,0.126-0.292,0.188
		c-0.086,0.055-0.17,0.11-0.26,0.163c-0.103,0.06-0.212,0.115-0.32,0.172c-0.095,0.05-0.187,0.101-0.285,0.148
		c-0.113,0.054-0.232,0.104-0.35,0.155c-0.1,0.044-0.198,0.089-0.302,0.13c-0.124,0.049-0.255,0.093-0.384,0.139
		c-0.104,0.037-0.205,0.076-0.312,0.11c-0.133,0.043-0.273,0.08-0.41,0.118c-0.109,0.031-0.215,0.064-0.326,0.092
		c-0.143,0.036-0.291,0.065-0.437,0.096c-0.111,0.024-0.219,0.051-0.332,0.071c-0.159,0.029-0.322,0.051-0.484,0.075
		c-0.105,0.016-0.209,0.035-0.316,0.048c-0.181,0.022-0.366,0.036-0.55,0.051c-0.092,0.008-0.182,0.019-0.275,0.025
		C46.067,48.991,45.785,49,45.5,49c-0.503,0-1.001-0.036-1.494-0.09c-0.147-0.016-0.293-0.04-0.439-0.061
		c-0.191-0.027-0.378-0.069-0.567-0.105V48v-1.2c0.07,0.011,0.141,0.015,0.211,0.025c0.27,0.04,0.542,0.073,0.815,0.098
		c0.113,0.011,0.225,0.023,0.338,0.031C44.741,46.982,45.119,47,45.5,47c0.409,0,0.81-0.018,1.206-0.047
		c0.128-0.009,0.251-0.025,0.378-0.037c0.267-0.026,0.531-0.056,0.79-0.094c0.142-0.021,0.281-0.046,0.42-0.07
		c0.24-0.043,0.476-0.09,0.708-0.144c0.136-0.031,0.27-0.062,0.403-0.097c0.24-0.062,0.472-0.132,0.703-0.206
		c0.112-0.036,0.226-0.068,0.335-0.106c0.32-0.112,0.632-0.232,0.93-0.364c0.012-0.005,0.024-0.009,0.036-0.014
		c0.309-0.138,0.603-0.289,0.887-0.448c0.091-0.051,0.175-0.106,0.263-0.159C52.748,45.1,52.933,44.983,53.109,44.861z
		 M40.935,44.578c-0.017,0.084-0.042,0.167-0.067,0.251c-0.023,0.078-0.045,0.156-0.074,0.232c-0.032,0.082-0.071,0.163-0.11,0.244
		c-0.036,0.075-0.07,0.15-0.112,0.224c-0.045,0.079-0.097,0.157-0.149,0.234c-0.048,0.072-0.094,0.145-0.148,0.215
		c-0.058,0.077-0.123,0.151-0.188,0.225c-0.059,0.068-0.115,0.137-0.179,0.203c-0.071,0.074-0.149,0.145-0.226,0.216
		c-0.068,0.064-0.134,0.128-0.207,0.19c-0.082,0.07-0.172,0.136-0.26,0.203c-0.078,0.059-0.153,0.119-0.235,0.177
		c-0.093,0.065-0.193,0.126-0.292,0.188c-0.086,0.055-0.17,0.11-0.26,0.163c-0.103,0.06-0.212,0.115-0.32,0.172
		c-0.095,0.05-0.187,0.101-0.285,0.148c-0.113,0.054-0.232,0.104-0.35,0.155c-0.1,0.044-0.198,0.089-0.302,0.13
		c-0.124,0.049-0.255,0.093-0.384,0.139c-0.104,0.037-0.205,0.076-0.312,0.11c-0.133,0.043-0.273,0.08-0.41,0.118
		c-0.109,0.031-0.215,0.064-0.326,0.092c-0.143,0.036-0.291,0.065-0.437,0.096c-0.111,0.024-0.219,0.051-0.332,0.071
		c-0.159,0.029-0.322,0.051-0.484,0.075c-0.105,0.016-0.209,0.035-0.316,0.048c-0.181,0.022-0.366,0.036-0.55,0.051
		c-0.092,0.008-0.182,0.019-0.275,0.025C33.067,48.991,32.785,49,32.5,49s-0.567-0.009-0.846-0.026
		c-0.093-0.006-0.183-0.017-0.275-0.025c-0.185-0.015-0.37-0.029-0.55-0.051c-0.107-0.013-0.21-0.032-0.316-0.048
		c-0.162-0.024-0.325-0.046-0.484-0.075c-0.112-0.021-0.22-0.048-0.331-0.071c-0.147-0.031-0.295-0.061-0.439-0.097
		c-0.111-0.028-0.216-0.061-0.324-0.091c-0.138-0.039-0.278-0.076-0.412-0.119c-0.107-0.034-0.208-0.073-0.312-0.11
		c-0.129-0.046-0.259-0.089-0.384-0.139c-0.104-0.041-0.201-0.087-0.302-0.13c-0.117-0.051-0.237-0.101-0.35-0.155
		c-0.098-0.047-0.19-0.099-0.285-0.148c-0.108-0.057-0.217-0.112-0.32-0.172c-0.09-0.052-0.174-0.108-0.26-0.163
		c-0.098-0.062-0.199-0.123-0.292-0.188c-0.082-0.057-0.157-0.117-0.235-0.177c-0.088-0.067-0.178-0.133-0.26-0.203
		c-0.073-0.062-0.139-0.126-0.207-0.19c-0.077-0.071-0.155-0.142-0.226-0.216c-0.063-0.066-0.12-0.135-0.178-0.202
		c-0.064-0.075-0.13-0.149-0.188-0.226c-0.053-0.07-0.099-0.142-0.147-0.214c-0.052-0.078-0.105-0.156-0.15-0.235
		c-0.042-0.073-0.076-0.149-0.112-0.224c-0.039-0.081-0.078-0.162-0.11-0.244c-0.029-0.076-0.051-0.154-0.074-0.232
		c-0.025-0.083-0.05-0.166-0.067-0.251c-0.016-0.079-0.025-0.16-0.035-0.24c-0.007-0.055-0.011-0.11-0.015-0.166
		c0.043,0.039,0.094,0.074,0.138,0.112c0.148,0.129,0.302,0.254,0.463,0.375c0.09,0.068,0.18,0.136,0.274,0.201
		c0.176,0.123,0.361,0.239,0.551,0.353c0.088,0.053,0.172,0.108,0.263,0.159c0.284,0.159,0.578,0.31,0.887,0.448
		c0.011,0.005,0.022,0.008,0.033,0.013c0.3,0.133,0.612,0.254,0.933,0.365c0.109,0.038,0.223,0.07,0.335,0.106
		c0.23,0.073,0.463,0.143,0.703,0.206c0.133,0.034,0.267,0.065,0.403,0.096c0.232,0.053,0.468,0.101,0.708,0.144
		c0.139,0.025,0.278,0.049,0.42,0.07c0.259,0.039,0.523,0.068,0.79,0.094c0.126,0.012,0.25,0.028,0.377,0.037
		C31.69,46.982,32.091,47,32.5,47s0.81-0.018,1.206-0.047c0.128-0.009,0.251-0.025,0.378-0.037c0.267-0.026,0.531-0.056,0.79-0.094
		c0.142-0.021,0.281-0.046,0.42-0.07c0.24-0.043,0.476-0.09,0.708-0.144c0.136-0.031,0.27-0.062,0.403-0.097
		c0.24-0.062,0.472-0.132,0.703-0.206c0.112-0.036,0.226-0.068,0.335-0.106c0.32-0.112,0.632-0.232,0.93-0.364
		c0.012-0.005,0.024-0.009,0.036-0.014c0.309-0.138,0.603-0.289,0.887-0.448c0.091-0.051,0.175-0.106,0.263-0.159
		c0.189-0.114,0.374-0.23,0.55-0.352c0.094-0.066,0.184-0.134,0.275-0.202c0.161-0.121,0.314-0.246,0.462-0.374
		c0.044-0.039,0.096-0.073,0.139-0.112c-0.003,0.055-0.008,0.111-0.015,0.166C40.96,44.418,40.951,44.498,40.935,44.578z
		 M24.617,40.659c0.09,0.068,0.18,0.136,0.274,0.201c0.176,0.123,0.361,0.239,0.551,0.353c0.088,0.053,0.172,0.108,0.263,0.159
		c0.284,0.159,0.578,0.31,0.887,0.448c0.011,0.005,0.022,0.008,0.033,0.013c0.3,0.133,0.612,0.254,0.933,0.365
		c0.109,0.038,0.223,0.07,0.335,0.106c0.23,0.073,0.463,0.143,0.703,0.206c0.133,0.034,0.267,0.065,0.403,0.096
		c0.232,0.053,0.468,0.101,0.708,0.144c0.139,0.025,0.278,0.049,0.42,0.07c0.259,0.039,0.523,0.068,0.79,0.094
		c0.126,0.012,0.25,0.028,0.377,0.037C31.69,42.982,32.091,43,32.5,43s0.81-0.018,1.206-0.047c0.128-0.009,0.251-0.025,0.378-0.037
		c0.267-0.026,0.531-0.056,0.79-0.094c0.142-0.021,0.281-0.046,0.42-0.07c0.24-0.043,0.476-0.09,0.708-0.144
		c0.136-0.031,0.27-0.062,0.403-0.097c0.24-0.062,0.472-0.132,0.703-0.206c0.112-0.036,0.226-0.068,0.335-0.106
		c0.32-0.112,0.632-0.232,0.93-0.364c0.012-0.005,0.024-0.009,0.036-0.014c0.309-0.138,0.603-0.289,0.887-0.448
		c0.091-0.051,0.175-0.106,0.263-0.159c0.189-0.114,0.374-0.23,0.55-0.352c0.094-0.066,0.184-0.134,0.275-0.202
		c0.161-0.121,0.314-0.246,0.462-0.374c0.044-0.039,0.096-0.073,0.139-0.112c-0.003,0.055-0.008,0.111-0.015,0.166
		c-0.01,0.08-0.018,0.161-0.035,0.24c-0.017,0.084-0.042,0.167-0.067,0.251c-0.023,0.078-0.045,0.156-0.074,0.232
		c-0.032,0.082-0.071,0.163-0.11,0.244c-0.036,0.075-0.07,0.15-0.112,0.224c-0.045,0.079-0.097,0.157-0.149,0.234
		c-0.048,0.072-0.094,0.145-0.148,0.215c-0.058,0.077-0.123,0.151-0.188,0.225c-0.059,0.068-0.115,0.137-0.179,0.203
		c-0.071,0.074-0.149,0.145-0.226,0.216c-0.068,0.064-0.134,0.128-0.207,0.19c-0.082,0.07-0.172,0.136-0.26,0.203
		c-0.078,0.059-0.153,0.119-0.235,0.177c-0.093,0.065-0.193,0.126-0.292,0.188c-0.086,0.055-0.17,0.11-0.26,0.163
		c-0.103,0.06-0.212,0.115-0.32,0.172c-0.095,0.05-0.187,0.101-0.285,0.148c-0.113,0.054-0.232,0.104-0.35,0.155
		c-0.1,0.044-0.198,0.089-0.302,0.13c-0.124,0.049-0.255,0.093-0.384,0.139c-0.104,0.037-0.205,0.076-0.312,0.11
		c-0.133,0.043-0.273,0.08-0.41,0.118c-0.109,0.031-0.215,0.064-0.326,0.092c-0.143,0.036-0.291,0.065-0.437,0.096
		c-0.111,0.024-0.219,0.051-0.332,0.071c-0.159,0.029-0.322,0.051-0.484,0.075c-0.105,0.016-0.209,0.035-0.316,0.048
		c-0.181,0.022-0.366,0.036-0.55,0.051c-0.092,0.008-0.182,0.019-0.275,0.025C33.067,44.991,32.785,45,32.5,45
		s-0.567-0.009-0.846-0.026c-0.093-0.006-0.183-0.017-0.275-0.025c-0.185-0.015-0.37-0.029-0.55-0.051
		c-0.107-0.013-0.21-0.032-0.316-0.048c-0.162-0.024-0.325-0.046-0.484-0.075c-0.112-0.021-0.22-0.048-0.331-0.071
		c-0.147-0.031-0.295-0.061-0.439-0.097c-0.111-0.028-0.216-0.061-0.324-0.091c-0.138-0.039-0.278-0.076-0.412-0.119
		c-0.107-0.034-0.208-0.073-0.312-0.11c-0.129-0.046-0.259-0.089-0.384-0.139c-0.104-0.041-0.201-0.087-0.302-0.13
		c-0.117-0.051-0.237-0.101-0.35-0.155c-0.098-0.047-0.19-0.099-0.285-0.148c-0.108-0.057-0.217-0.112-0.32-0.172
		c-0.09-0.052-0.174-0.108-0.26-0.163c-0.098-0.062-0.199-0.123-0.292-0.188c-0.082-0.057-0.157-0.117-0.235-0.177
		c-0.088-0.067-0.178-0.133-0.26-0.203c-0.073-0.062-0.139-0.126-0.207-0.19c-0.077-0.071-0.155-0.142-0.226-0.216
		c-0.063-0.066-0.12-0.135-0.178-0.202c-0.064-0.075-0.13-0.149-0.188-0.226c-0.053-0.07-0.099-0.142-0.147-0.214
		c-0.052-0.078-0.105-0.156-0.15-0.235c-0.042-0.073-0.076-0.149-0.112-0.224c-0.039-0.081-0.078-0.162-0.11-0.244
		c-0.029-0.076-0.051-0.154-0.074-0.232c-0.025-0.083-0.05-0.166-0.067-0.251c-0.016-0.079-0.025-0.16-0.035-0.24
		c-0.007-0.055-0.011-0.11-0.015-0.166c0.043,0.039,0.094,0.074,0.138,0.112C24.302,40.413,24.456,40.538,24.617,40.659z M44,2
		v15.076c-0.339,0.031-0.673,0.072-1,0.124V2H44z M41,2v15.661c-0.345,0.107-0.678,0.225-1,0.355V2H41z M38,2v17.059
		c-0.365,0.246-0.694,0.514-1,0.795V2H38z M5,56V2h30v22v4v1.2c-0.001,0-0.002,0-0.003,0c-0.328-0.052-0.661-0.092-1.001-0.124
		C33.997,29.05,34,29.026,34,29c0-2.624-0.739-5.073-2-7.174V10.879l-1.092,0.1C30.773,10.991,30.638,11,30.5,11
		C28.019,11,26,8.981,26,6.5c0-0.139,0.01-0.276,0.021-0.412L26.118,5H13.882l0.097,1.088C13.99,6.224,14,6.361,14,6.5
		c0,2.481-2.019,4.5-4.5,4.5c-0.138,0-0.273-0.009-0.408-0.021L8,10.879v7.944c0,1.196,0.974,2.169,2.171,2.169
		c0.283,0,0.558-0.057,0.815-0.163l3.256,3.573C14.588,24.782,15.015,25,15.414,25c0.129-0.002,0.244-0.017,0.352-0.044
		c0.065-0.067,0.135-0.156,0.217-0.252C16.486,24.108,17.427,23,19,23c1.166,0,2.296,0.34,3.264,0.97
		c1.021-0.706,2.608-1.019,3.315-1.019c0.268,0,0.497,0.029,0.702,0.089l0.412,0.121l0.196,0.382c0.074,0.145,1.478,2.95,0.8,6.216
		C24.287,30.904,22,33.239,22,36v0.203c-0.524,0.189-1.024,0.294-1.489,0.294c-0.001,0-0.001,0-0.001,0
		c-1.207,0-2.188-0.638-2.797-1.807c-0.289-0.194-0.645-0.512-1.19-1.014c-0.223-0.205-0.547-0.503-0.698-0.621
		c-0.046-0.012-0.092-0.022-0.138-0.03c-0.518-0.094-1.066,0.151-1.478,0.603l-3.224,3.543c-0.256-0.106-0.532-0.163-0.814-0.163
		C8.974,37.008,8,37.981,8,39.177v7.944l1.091-0.1C9.227,47.009,9.362,47,9.5,47c2.481,0,4.5,2.019,4.5,4.5
		c0,0.139-0.01,0.276-0.021,0.412L13.882,53h8.226c0.018,0.084,0.04,0.167,0.062,0.25c0.026,0.101,0.053,0.201,0.086,0.3
		c0.027,0.081,0.059,0.16,0.09,0.24c0.308,0.805,0.812,1.551,1.491,2.21H5z M27.375,55.952c-0.1-0.045-0.198-0.092-0.294-0.139
		c-0.137-0.068-0.273-0.137-0.403-0.21c-0.087-0.049-0.168-0.1-0.251-0.151c-0.234-0.142-0.453-0.292-0.657-0.449
		c-0.069-0.053-0.144-0.104-0.209-0.159c-0.092-0.077-0.174-0.157-0.259-0.237c-0.08-0.075-0.16-0.151-0.233-0.228
		c-0.071-0.075-0.137-0.152-0.202-0.229c-0.076-0.091-0.147-0.183-0.213-0.277c-0.049-0.069-0.099-0.139-0.143-0.209
		c-0.076-0.123-0.142-0.248-0.201-0.374c-0.022-0.046-0.049-0.09-0.068-0.137c-0.073-0.175-0.13-0.353-0.17-0.533
		c-0.01-0.046-0.012-0.094-0.02-0.14c-0.017-0.101-0.026-0.204-0.032-0.306c0.042,0.038,0.092,0.072,0.135,0.11
		c0.148,0.129,0.302,0.254,0.463,0.375c0.09,0.068,0.18,0.136,0.274,0.201c0.176,0.123,0.361,0.239,0.551,0.353
		c0.088,0.053,0.172,0.108,0.263,0.159c0.284,0.159,0.578,0.31,0.887,0.448c0.011,0.005,0.022,0.008,0.033,0.013
		c0.3,0.133,0.612,0.254,0.933,0.365c0.109,0.038,0.223,0.07,0.335,0.106c0.23,0.073,0.463,0.143,0.703,0.206
		c0.133,0.034,0.267,0.065,0.403,0.096c0.232,0.053,0.468,0.101,0.708,0.144c0.139,0.025,0.278,0.049,0.42,0.07
		c0.259,0.039,0.523,0.068,0.79,0.094c0.126,0.012,0.25,0.028,0.377,0.037C31.69,54.982,32.091,55,32.5,55s0.81-0.018,1.206-0.047
		c0.128-0.009,0.251-0.025,0.378-0.037c0.267-0.026,0.531-0.056,0.79-0.094c0.142-0.021,0.281-0.046,0.42-0.07
		c0.24-0.043,0.476-0.09,0.708-0.144c0.136-0.031,0.27-0.062,0.403-0.097c0.24-0.062,0.472-0.132,0.703-0.206
		c0.112-0.036,0.226-0.068,0.335-0.106c0.32-0.112,0.632-0.232,0.93-0.364c0.012-0.005,0.024-0.009,0.036-0.014
		c0.309-0.138,0.603-0.289,0.887-0.448c0.091-0.051,0.175-0.106,0.263-0.159c0.189-0.114,0.374-0.23,0.55-0.352
		c0.094-0.066,0.184-0.134,0.275-0.202c0.161-0.121,0.314-0.246,0.462-0.374c0.043-0.038,0.093-0.071,0.135-0.11
		c-0.007,0.103-0.014,0.207-0.033,0.312c-0.004,0.026-0.006,0.052-0.011,0.077c-0.039,0.179-0.095,0.361-0.171,0.549l-0.002,0.005
		c-0.27,0.665-0.775,1.291-1.476,1.843c-0.02,0.015-0.04,0.03-0.06,0.045c-0.211,0.162-0.44,0.317-0.685,0.465
		c-0.049,0.03-0.094,0.062-0.145,0.09l-0.021,0.012C36.837,56.452,34.754,57,32.5,57C30.593,57,28.812,56.604,27.375,55.952z
		 M45.5,57c-1.63,0-3.198-0.281-4.556-0.803c0.522-0.47,0.961-0.985,1.293-1.539c0.018,0.004,0.036,0.005,0.054,0.009
		c0.462,0.098,0.933,0.171,1.409,0.225c0.105,0.012,0.21,0.021,0.315,0.031C44.505,54.969,44.999,55,45.5,55
		c0.409,0,0.81-0.018,1.206-0.047c0.128-0.009,0.251-0.025,0.378-0.037c0.267-0.026,0.531-0.056,0.79-0.094
		c0.142-0.021,0.281-0.046,0.42-0.07c0.24-0.043,0.476-0.09,0.708-0.144c0.136-0.031,0.27-0.062,0.403-0.097
		c0.24-0.062,0.472-0.132,0.703-0.206c0.112-0.036,0.226-0.068,0.335-0.106c0.32-0.112,0.632-0.232,0.93-0.364
		c0.012-0.005,0.024-0.009,0.036-0.014c0.309-0.138,0.603-0.289,0.887-0.448c0.091-0.051,0.175-0.106,0.263-0.159
		c0.189-0.114,0.374-0.23,0.55-0.352c0.094-0.066,0.184-0.134,0.275-0.202c0.161-0.121,0.314-0.246,0.462-0.374
		c0.048-0.042,0.103-0.079,0.149-0.121C53.843,54.802,50.015,57,45.5,57z"/>
</g>
<g>
</g>
<g>
</g>
<g>
</g>
<g>
</g>
<g>
</g>
<g>
</g>
<g>
</g>
<g>
</g>
<g>
</g>
<g>
</g>
<g>
</g>
<g>
</g>
<g>
</g>
<g>
</g>
<g>
</g>
</svg>
