<?xml version="1.0" encoding="iso-8859-1"?>
<!-- Generator: Adobe Illustrator 18.0.0, SVG Export Plug-In . SVG Version: 6.00 Build 0)  -->
<!DOCTYPE svg PUBLIC "-//W3C//DTD SVG 1.1//EN" "http://www.w3.org/Graphics/SVG/1.1/DTD/svg11.dtd">
<svg version="1.1" id="Capa_1" xmlns="http://www.w3.org/2000/svg" xmlns:xlink="http://www.w3.org/1999/xlink" x="0px" y="0px"
	 viewBox="0 0 59 59" style="enable-background:new 0 0 59 59;" xml:space="preserve">
<g>
	<path d="M38.171,57.141c1.619-0.605,3.196-1.358,4.717-2.237c0.125-0.042,0.241-0.108,0.344-0.2
		c2.301-1.368,4.465-3.034,6.412-4.981c3.114-3.114,5.45-6.683,6.999-10.426c0.019-0.039,0.036-0.075,0.05-0.115
		c0.909-2.222,1.539-4.505,1.888-6.79c0.01-0.063,0.027-0.123,0.025-0.186c0.335-2.301,0.383-4.6,0.143-6.844
		c0.004-0.076-0.01-0.148-0.024-0.223c-0.606-5.231-2.788-10.134-6.607-13.953c-0.688-0.689-1.433-1.331-2.26-1.963
		c-0.605-0.794-1.262-1.558-1.983-2.279C43.49,2.556,37.452,0.14,30.874,0.14c-7.789,0-15.638,3.381-21.534,9.277
		C-1.967,20.725-3.077,38.012,6.865,47.955c0.7,0.7,1.456,1.331,2.235,1.928c0.646,0.85,1.303,1.61,2.007,2.314
		C15.495,56.584,21.533,59,28.111,59c3.37,0,6.751-0.636,9.98-1.831C38.119,57.159,38.145,57.153,38.171,57.141z M31.262,56.796
		l-2.488-2.488c1.513-0.271,3.011-0.665,4.482-1.176l2.661,2.661C34.387,56.265,32.83,56.601,31.262,56.796z M7.345,33.101
		c0.544-0.112,1.071,0.233,1.184,0.773c0.129,0.612,0.292,1.22,0.484,1.807c0.172,0.525-0.114,1.09-0.638,1.262
		c-0.104,0.034-0.209,0.05-0.312,0.05c-0.42,0-0.812-0.268-0.95-0.688c-0.215-0.657-0.397-1.336-0.541-2.02
		C6.459,33.744,6.805,33.214,7.345,33.101z M56.841,30.048l-2.426-2.426c0.025-0.186,0.05-0.371,0.072-0.557
		c0.054-0.479,0.096-0.958,0.125-1.436c0.017-0.275,0.025-0.548,0.033-0.822c0.009-0.277,0.013-0.553,0.014-0.829
		c0-0.116,0.007-0.233,0.006-0.349l2.126,2.126C56.931,27.167,56.947,28.603,56.841,30.048z M55.353,37.045l-2.678-2.678
		c0.139-0.36,0.273-0.722,0.398-1.085c0.055-0.159,0.105-0.319,0.157-0.479c0.138-0.426,0.266-0.853,0.385-1.281
		c0.045-0.163,0.094-0.326,0.136-0.49c0.087-0.336,0.163-0.673,0.237-1.01l2.536,2.536C56.265,34.063,55.872,35.564,55.353,37.045z
		 M53.128,41.892l-2.772-2.772c0.064-0.107,0.13-0.213,0.192-0.321c0.024-0.042,0.051-0.083,0.075-0.124
		c0.314-0.546,0.606-1.1,0.884-1.657c0.059-0.119,0.116-0.238,0.173-0.357c0.05-0.103,0.101-0.206,0.15-0.309l2.724,2.724
		C54.135,40.029,53.657,40.968,53.128,41.892z M50.239,46.073l-2.811-2.811c0.27-0.324,0.531-0.653,0.786-0.985
		c0.019-0.025,0.04-0.049,0.06-0.075c0.341-0.446,0.667-0.898,0.981-1.356l2.789,2.789C51.487,44.468,50.89,45.283,50.239,46.073z
		 M42.71,52.688l-2.797-2.797c0.85-0.545,1.679-1.132,2.483-1.76l2.819,2.819C44.404,51.573,43.569,52.154,42.71,52.688z
		 M46.5,26.667c0.054-0.549,0.544-0.952,1.093-0.897c0.55,0.054,0.951,0.544,0.897,1.093c-0.067,0.681-0.168,1.372-0.302,2.054
		c-0.093,0.478-0.512,0.809-0.98,0.809c-0.063,0-0.128-0.006-0.192-0.019c-0.542-0.105-0.896-0.631-0.79-1.173
		C46.346,27.914,46.439,27.286,46.5,26.667z M46.218,21.051c-0.127-0.611-0.289-1.219-0.481-1.808
		c-0.171-0.525,0.115-1.089,0.641-1.261c0.528-0.171,1.09,0.116,1.261,0.641c0.215,0.658,0.396,1.338,0.538,2.021
		c0.112,0.541-0.235,1.07-0.775,1.183c-0.069,0.014-0.137,0.021-0.205,0.021C46.732,21.848,46.316,21.523,46.218,21.051z
		 M45.747,33.444c0.496,0.244,0.7,0.843,0.456,1.339c-0.301,0.612-0.634,1.222-0.989,1.813c-0.188,0.312-0.519,0.485-0.858,0.485
		c-0.175,0-0.353-0.046-0.514-0.143c-0.473-0.284-0.626-0.898-0.342-1.372c0.326-0.543,0.632-1.104,0.908-1.666
		C44.652,33.406,45.251,33.202,45.747,33.444z M35.3,52.348c0.967-0.415,1.917-0.882,2.846-1.396l2.764,2.764
		c-0.948,0.502-1.918,0.948-2.903,1.339L35.3,52.348z M46.765,49.672l-2.825-2.825c0.498-0.441,0.989-0.892,1.462-1.366
		c0.237-0.237,0.463-0.481,0.692-0.723l2.817,2.817c-0.229,0.244-0.441,0.497-0.68,0.735C47.757,48.783,47.265,49.233,46.765,49.672
		z M53.396,15.915c1.28,1.962,2.186,4.121,2.766,6.383l-1.71-1.71c-0.02-0.158-0.047-0.314-0.07-0.47
		c-0.038-0.26-0.075-0.52-0.121-0.778c-0.084-0.47-0.181-0.936-0.291-1.398c-0.05-0.207-0.107-0.41-0.162-0.616
		c-0.095-0.356-0.198-0.71-0.309-1.061C53.461,16.149,53.435,16.03,53.396,15.915z M41.862,11.5
		c0.391-0.391,1.002-0.413,1.393-0.021l-0.707,0.707l0.738-0.676c0.507,0.507,0.977,1.035,1.407,1.583
		c0.341,0.434,0.266,1.063-0.168,1.404c-0.183,0.144-0.401,0.214-0.618,0.214c-0.296,0-0.589-0.131-0.787-0.382
		c-0.381-0.485-0.797-0.954-1.237-1.393C41.493,12.545,41.472,11.891,41.862,11.5z M41.402,40.053
		c0.39,0.391,0.396,1.018,0.006,1.408l-0.012,0.012c-0.48,0.48-0.985,0.947-1.5,1.387c-0.188,0.161-0.419,0.239-0.649,0.239
		c-0.283,0-0.563-0.119-0.761-0.351c-0.358-0.42-0.309-1.051,0.111-1.41c0.476-0.406,0.942-0.837,1.385-1.28
		C40.372,39.669,41.011,39.663,41.402,40.053z M34.878,7.807c0.169-0.525,0.733-0.813,1.259-0.645
		c0.664,0.214,1.321,0.468,1.954,0.755c0.503,0.228,0.726,0.821,0.498,1.324c-0.167,0.369-0.531,0.587-0.911,0.587
		c-0.138,0-0.279-0.029-0.413-0.09c-0.563-0.256-1.149-0.482-1.742-0.673C34.997,8.896,34.709,8.333,34.878,7.807z M32.117,45.238
		c0.582-0.227,1.166-0.484,1.735-0.766c0.496-0.243,1.095-0.04,1.339,0.455c0.244,0.495,0.041,1.095-0.455,1.339
		c-0.621,0.306-1.257,0.587-1.893,0.835c-0.119,0.046-0.242,0.069-0.363,0.069c-0.4,0-0.778-0.242-0.932-0.637
		C31.348,46.019,31.603,45.438,32.117,45.238z M27.893,6.336c0.689-0.07,1.387-0.108,2.076-0.111c0.002,0,0.004,0,0.005,0
		c0.55,0,0.997,0.444,1,0.995c0.003,0.552-0.442,1.002-0.995,1.005c-0.625,0.003-1.259,0.037-1.884,0.101
		c-0.034,0.004-0.068,0.005-0.102,0.005c-0.507,0-0.941-0.384-0.994-0.898C26.944,6.883,27.343,6.392,27.893,6.336z M24.735,46.672
		c0.625-0.002,1.258-0.035,1.884-0.098c0.552-0.051,1.04,0.346,1.095,0.896c0.055,0.549-0.346,1.04-0.896,1.095
		c-0.689,0.069-1.387,0.105-2.075,0.108c-0.001,0-0.003,0-0.004,0c-0.551,0-0.998-0.445-1-0.996
		C23.736,47.124,24.182,46.674,24.735,46.672z M19.977,8.646c0.616-0.305,1.252-0.587,1.892-0.838
		c0.514-0.204,1.094,0.051,1.296,0.565c0.202,0.514-0.051,1.094-0.565,1.296c-0.586,0.23-1.169,0.489-1.734,0.769
		c-0.143,0.071-0.294,0.104-0.443,0.104c-0.368,0-0.723-0.204-0.897-0.556C19.279,9.491,19.482,8.891,19.977,8.646z M17.452,45.147
		c0.561,0.256,1.146,0.483,1.74,0.676c0.525,0.17,0.813,0.734,0.643,1.26c-0.137,0.423-0.529,0.692-0.951,0.692
		c-0.102,0-0.206-0.016-0.309-0.049c-0.666-0.216-1.323-0.472-1.954-0.759c-0.502-0.229-0.724-0.823-0.494-1.325
		C16.357,45.138,16.949,44.917,17.452,45.147z M13.313,13.458l0.707,0.707l-0.688-0.726c0.49-0.49,0.987-0.95,1.492-1.382
		c0.42-0.358,1.051-0.31,1.41,0.11c0.359,0.419,0.31,1.051-0.11,1.41c-0.466,0.399-0.925,0.823-1.363,1.261
		c-0.199,0.2-0.467,0.302-0.732,0.302c-0.254,0-0.507-0.094-0.699-0.285C12.94,14.465,12.923,13.849,13.313,13.458z M12.859,41.961
		c0.386,0.386,0.402,1.02,0.023,1.413c-0.199,0.206-0.461,0.311-0.724,0.311c-0.239,0-0.477-0.087-0.667-0.264
		c-0.025-0.023-0.07-0.068-0.092-0.094c-0.444-0.441-0.907-0.961-1.33-1.498c-0.342-0.434-0.268-1.063,0.166-1.404
		c0.434-0.341,1.062-0.268,1.404,0.166C12.014,41.066,12.424,41.527,12.859,41.961z M8.525,20.142
		c0.301-0.615,0.633-1.226,0.987-1.815c0.284-0.474,0.898-0.627,1.372-0.343s0.627,0.898,0.343,1.372
		c-0.324,0.541-0.629,1.101-0.906,1.666c-0.173,0.354-0.529,0.56-0.898,0.56c-0.148,0-0.298-0.033-0.439-0.102
		C8.487,21.237,8.282,20.638,8.525,20.142z M6.548,26.011c0.105-0.542,0.629-0.896,1.172-0.792c0.542,0.105,0.897,0.63,0.792,1.172
		C8.392,27.012,8.3,27.64,8.24,28.259c-0.05,0.517-0.485,0.903-0.994,0.903c-0.032,0-0.065-0.001-0.098-0.005
		c-0.55-0.053-0.952-0.542-0.898-1.092C6.316,27.384,6.416,26.693,6.548,26.011z M16.374,53.63c0.272,0.084,0.547,0.162,0.823,0.237
		c0.432,0.117,0.868,0.22,1.309,0.313c0.107,0.023,0.211,0.055,0.318,0.076l1.382,1.382c-1.539-0.557-2.999-1.277-4.353-2.158
		C16.023,53.537,16.201,53.577,16.374,53.63z M24.035,56.64l-1.957-1.957c0.356,0.024,0.716,0.032,1.076,0.042
		c0.24,0.006,0.474,0.033,0.715,0.033c0.804,0,1.608-0.045,2.411-0.116l2.345,2.345C28.453,56.99,28.282,57,28.111,57
		C26.72,57,25.36,56.869,24.035,56.64z"/>
	<path d="M6.923,56c-1.545,0-3-2.253-3-4c0-0.552-0.448-1-1-1s-1,0.448-1,1c0,2.774,2.184,6,5,6c0.552,0,1-0.448,1-1
		S7.475,56,6.923,56z"/>
	<path d="M52.492,2c1.498,0,3.43,2.216,3.43,4.57c0,0.552,0.448,1,1,1s1-0.448,1-1c0-3.315-2.69-6.57-5.43-6.57
		c-0.552,0-1,0.448-1,1S51.94,2,52.492,2z"/>
	<path d="M57.923,45c0-0.552-0.448-1-1-1s-1,0.448-1,1c0,5.233-4.29,10-9,10c-0.552,0-1,0.448-1,1s0.448,1,1,1
		C52.782,57,57.923,51.393,57.923,45z"/>
	<path d="M57.923,53c-0.552,0-1,0.448-1,1c0,1.157-1.373,3-3,3c-0.552,0-1,0.448-1,1s0.448,1,1,1c2.693,0,5-2.75,5-5
		C58.923,53.448,58.475,53,57.923,53z"/>
</g>
<g>
</g>
<g>
</g>
<g>
</g>
<g>
</g>
<g>
</g>
<g>
</g>
<g>
</g>
<g>
</g>
<g>
</g>
<g>
</g>
<g>
</g>
<g>
</g>
<g>
</g>
<g>
</g>
<g>
</g>
</svg>
