<?xml version="1.0" encoding="iso-8859-1"?>
<!-- Generator: Adobe Illustrator 18.0.0, SVG Export Plug-In . SVG Version: 6.00 Build 0)  -->
<!DOCTYPE svg PUBLIC "-//W3C//DTD SVG 1.1//EN" "http://www.w3.org/Graphics/SVG/1.1/DTD/svg11.dtd">
<svg version="1.1" id="Capa_1" xmlns="http://www.w3.org/2000/svg" xmlns:xlink="http://www.w3.org/1999/xlink" x="0px" y="0px"
	 viewBox="0 0 60 60" style="enable-background:new 0 0 60 60;" xml:space="preserve">
<g>
	<path d="M30,10.5c-16.822,0-30,6.589-30,15v9c0,8.411,13.178,15,30,15s30-6.589,30-15v-9C60,17.089,46.822,10.5,30,10.5z M30,12.5
		c15.178,0,28,5.953,28,13s-12.822,13-28,13s-28-5.953-28-13S14.822,12.5,30,12.5z M34.697,40.324
		c0.063-0.005,0.124-0.011,0.186-0.016c0.632-0.05,1.255-0.111,1.872-0.179c0.081-0.009,0.165-0.014,0.245-0.023v6.964
		c-0.982,0.122-1.983,0.219-3,0.29v-6.99C34.232,40.354,34.466,40.342,34.697,40.324z M39,39.839
		c0.05-0.008,0.098-0.016,0.148-0.024c0.094-0.015,0.186-0.031,0.28-0.047c0.57-0.091,1.132-0.192,1.685-0.299
		c0.13-0.025,0.26-0.049,0.389-0.075c0.167-0.034,0.333-0.068,0.498-0.103v6.907c-0.971,0.221-1.974,0.413-3,0.58V39.839z
		 M44,38.819c0.392-0.101,0.777-0.207,1.158-0.316c0.104-0.03,0.209-0.058,0.312-0.089c0.178-0.053,0.354-0.107,0.53-0.162v6.835
		c-0.648,0.214-1.315,0.416-2,0.605V38.819z M48,37.578c0.287-0.106,0.566-0.217,0.844-0.328c0.072-0.029,0.146-0.056,0.217-0.085
		c0.319-0.13,0.631-0.264,0.939-0.4v6.727c-0.637,0.305-1.304,0.596-2,0.871V37.578z M52,35.791c0.036-0.02,0.074-0.038,0.111-0.058
		c0.04-0.022,0.082-0.042,0.122-0.064c0.44-0.241,0.859-0.491,1.267-0.746c0.091-0.057,0.179-0.114,0.268-0.171
		c0.077-0.05,0.157-0.098,0.232-0.149v6.484c-0.607,0.467-1.277,0.914-2,1.342V35.791z M6,34.603
		c0.076,0.05,0.155,0.099,0.232,0.149c0.089,0.057,0.178,0.115,0.268,0.171c0.407,0.255,0.827,0.505,1.267,0.746
		c0.04,0.022,0.082,0.042,0.122,0.064c0.036,0.02,0.074,0.039,0.111,0.058v6.637C7.277,42,6.607,41.553,6,41.086V34.603z M10,36.765
		c0.308,0.136,0.619,0.27,0.939,0.4c0.071,0.029,0.145,0.056,0.217,0.085c0.279,0.111,0.558,0.222,0.844,0.328v6.786
		c-0.696-0.276-1.363-0.567-2-0.871V36.765z M14,38.253c0.176,0.054,0.351,0.109,0.53,0.162c0.103,0.03,0.208,0.059,0.312,0.089
		c0.381,0.109,0.766,0.215,1.158,0.316v6.874c-0.685-0.189-1.352-0.391-2-0.605V38.253z M18,39.291
		c0.165,0.035,0.331,0.069,0.498,0.103c0.129,0.026,0.26,0.05,0.389,0.075c0.554,0.107,1.115,0.208,1.685,0.299
		c0.094,0.015,0.186,0.032,0.28,0.047c0.049,0.008,0.098,0.016,0.148,0.024v6.94c-1.026-0.168-2.029-0.36-3-0.58V39.291z M23,40.105
		c0.081,0.009,0.164,0.014,0.245,0.023c0.617,0.068,1.24,0.129,1.872,0.179c0.062,0.005,0.123,0.011,0.186,0.016
		c0.23,0.017,0.465,0.03,0.697,0.045v6.99c-1.017-0.071-2.018-0.167-3-0.29V40.105z M2,34.5v-3.511
		c0.031,0.041,0.07,0.079,0.102,0.12c0.23,0.293,0.473,0.582,0.737,0.865c0.019,0.02,0.035,0.041,0.054,0.061
		c0.283,0.3,0.591,0.592,0.912,0.879C3.87,32.971,3.934,33.029,4,33.086v6.14C2.717,37.753,2,36.158,2,34.5z M28,47.461v-6.996
		c0.661,0.021,1.326,0.035,2,0.035s1.339-0.014,2-0.035v6.996c-0.662,0.023-1.328,0.039-2,0.039S28.662,47.484,28,47.461z
		 M58,30.989V34.5c0,1.658-0.717,3.253-2,4.727v-6.14c0.066-0.057,0.13-0.115,0.195-0.173c0.321-0.288,0.629-0.58,0.912-0.879
		c0.019-0.02,0.035-0.041,0.054-0.061c0.265-0.283,0.508-0.572,0.738-0.865C57.93,31.068,57.969,31.029,58,30.989z"/>
	<path d="M15.97,34.608l8.412-3.037c0.051-0.019,0.086-0.04,0.108-0.056l0.046-0.399c-2.524-1.045-3.547-2.699-3.932-4.12
		c-0.574-0.232-1.02-0.592-1.287-1.046c-0.279-0.475-0.343-1.028-0.18-1.558l0.23-0.749c0.228-0.744,0.911-1.379,1.862-1.754
		c0.327-0.625,0.744-1.194,1.242-1.698c0.215-0.217,0.392-0.378,0.535-0.509c0.054-0.05,0.102-0.091,0.143-0.129
		c-0.006-0.049-0.016-0.105-0.027-0.17c-0.049-0.295-0.066-0.561-0.066-0.786c0-0.624,0.538-1.113,1.225-1.113
		c0.277,0,0.534,0.081,0.743,0.234c0.086,0.063,0.306,0.197,0.808,0.38c0.905,0.33,2.185,0.479,3.549,0.423
		c0.202-0.008,0.409-0.013,0.62-0.013c2.961,0,7.025,0.359,8.745,3.371c0.965,0.373,1.658,1.013,1.888,1.765l0.23,0.749
		c0.163,0.53,0.099,1.083-0.18,1.558c-0.267,0.454-0.713,0.814-1.287,1.046c-0.385,1.421-1.408,3.075-3.932,4.12l0.047,0.409
		c0.021,0.015,0.055,0.036,0.103,0.053l8.243,3.082C51.271,32.532,56,28.886,56,25.5c0-5.192-11.119-11-26-11s-26,5.808-26,11
		C4,28.859,8.657,32.473,15.97,34.608z"/>
</g>
<g>
</g>
<g>
</g>
<g>
</g>
<g>
</g>
<g>
</g>
<g>
</g>
<g>
</g>
<g>
</g>
<g>
</g>
<g>
</g>
<g>
</g>
<g>
</g>
<g>
</g>
<g>
</g>
<g>
</g>
</svg>
