<?xml version="1.0" encoding="iso-8859-1"?>
<!-- Generator: Adobe Illustrator 18.0.0, SVG Export Plug-In . SVG Version: 6.00 Build 0)  -->
<!DOCTYPE svg PUBLIC "-//W3C//DTD SVG 1.1//EN" "http://www.w3.org/Graphics/SVG/1.1/DTD/svg11.dtd">
<svg version="1.1" id="Capa_1" xmlns="http://www.w3.org/2000/svg" xmlns:xlink="http://www.w3.org/1999/xlink" x="0px" y="0px"
	 viewBox="0 0 58 58" style="enable-background:new 0 0 58 58;" xml:space="preserve">
<g>
	<path d="M38.042,37.88c0.126-0.106,0.246-0.216,0.359-0.329c-0.129,0.127-0.269,0.248-0.414,0.367
		C38.004,37.904,38.026,37.894,38.042,37.88z"/>
	<path d="M36.486,30.602c-0.742-0.334-1.499-0.609-2.25-0.818l-1.574-0.439v9.165c2.023-0.029,3.59-0.478,4.658-1.334
		c1.086-0.871,1.615-1.971,1.615-3.36c0-0.729-0.222-1.345-0.678-1.886C37.778,31.362,37.182,30.915,36.486,30.602z"/>
	<path d="M25,22.288c0,0.729,0.222,1.346,0.677,1.885c0.48,0.568,1.076,1.016,1.771,1.328c0.742,0.335,1.451,0.6,2.107,0.787
		c0.411,0.117,0.788,0.228,1.132,0.329v-8.534c-1.921,0.04-3.357,0.456-4.272,1.24C25.463,20.14,25,21.109,25,22.288z"/>
	<path d="M32,0c-1.021,0-2.026,0.076-3.015,0.21C27.953,0.072,26.972,0,26,0c-4.883,0-9.449,1.572-13.33,4.29
		c-0.001,0.001-0.003,0.002-0.004,0.003c-1.968,1.379-3.758,3.055-5.326,4.97C7.293,9.306,7.258,9.356,7.22,9.407
		c-1.484,1.838-2.76,3.896-3.791,6.122c-0.028,0.05-0.051,0.1-0.07,0.155c-0.71,1.556-1.303,3.191-1.759,4.895
		c-0.045,0.096-0.065,0.201-0.078,0.311C0.861,23.465,0.5,26.185,0.5,29c0,4.403,0.871,8.577,2.422,12.319
		C2.936,41.361,2.95,41.4,2.97,41.439c0.928,2.214,2.097,4.273,3.466,6.136c0.037,0.051,0.067,0.105,0.113,0.148
		c1.389,1.864,2.982,3.524,4.738,4.94c0.051,0.057,0.113,0.099,0.176,0.143C15.59,56.076,20.6,58,26,58
		c0.972,0,1.953-0.072,2.985-0.21C29.974,57.924,30.979,58,32,58c14.061,0,25.5-13.009,25.5-29S46.061,0,32,0z M48.884,20.202
		c0.522-0.182,1.091,0.099,1.271,0.621c0.223,0.65,0.42,1.317,0.587,1.982c0.135,0.536-0.19,1.079-0.727,1.213
		c-0.082,0.021-0.163,0.03-0.244,0.03c-0.447,0-0.855-0.303-0.969-0.757c-0.153-0.61-0.335-1.222-0.54-1.819
		C48.083,20.95,48.361,20.381,48.884,20.202z M34.593,7.703c-0.059,0.51-0.491,0.885-0.992,0.885c-0.038,0-0.077-0.002-0.116-0.007
		c-0.601-0.07-1.212-0.105-1.817-0.105c-0.553,0-1.021-0.448-1.021-1s0.426-1,0.979-1h0.043c0.682,0,1.371,0.04,2.048,0.119
		C34.264,6.658,34.656,7.155,34.593,7.703z M31.753,51.524h-0.086c-0.7,0-1.405-0.042-2.096-0.124
		c-0.548-0.066-0.939-0.563-0.874-1.112c0.065-0.548,0.548-0.931,1.112-0.875c0.61,0.073,1.235,0.11,1.857,0.11
		c0.553,0,1.043,0.448,1.043,1S32.306,51.524,31.753,51.524z M5.428,42h3.788c0.157,0.355,0.319,0.706,0.488,1.052
		c0.072,0.148,0.148,0.293,0.222,0.439c0.206,0.404,0.42,0.801,0.642,1.192c0.081,0.144,0.16,0.289,0.243,0.431
		c0.177,0.3,0.362,0.593,0.548,0.885H7.773C6.891,44.754,6.109,43.415,5.428,42z M4.968,17h3.827
		c-0.176,0.438-0.342,0.881-0.498,1.329c-0.043,0.123-0.086,0.245-0.128,0.368C8.024,19.127,7.89,19.561,7.763,20H3.857
		C4.175,18.969,4.547,17.969,4.968,17z M8.525,11h3.503c-0.122,0.175-0.245,0.348-0.363,0.526c-0.295,0.444-0.581,0.896-0.854,1.359
		c-0.083,0.142-0.162,0.287-0.243,0.431c-0.222,0.391-0.436,0.789-0.642,1.192c-0.074,0.146-0.15,0.291-0.222,0.439
		C9.695,14.965,9.686,14.982,9.678,15H5.929C6.686,13.573,7.558,12.238,8.525,11z M17.569,41.567
		c0.357,0.528,0.737,1.039,1.129,1.516c0.35,0.427,0.288,1.057-0.14,1.408c-0.186,0.152-0.41,0.227-0.633,0.227
		c-0.29,0-0.576-0.125-0.774-0.366c-0.431-0.525-0.847-1.085-1.238-1.664c-0.31-0.458-0.189-1.079,0.268-1.389
		C16.639,40.989,17.26,41.11,17.569,41.567z M17.122,13.685c0.439-0.538,0.907-1.058,1.39-1.544c0.39-0.393,1.022-0.394,1.414-0.006
		c0.393,0.389,0.395,1.022,0.006,1.414c-0.438,0.441-0.861,0.913-1.261,1.401c-0.197,0.242-0.485,0.367-0.775,0.367
		c-0.222,0-0.446-0.074-0.632-0.226C16.836,14.742,16.772,14.112,17.122,13.685z M13.834,29.022c0,0.552-0.447,0.999-1,0.999
		c-0.527,0-0.96-0.409-0.997-0.927L11.833,29c0-0.676,0.027-1.361,0.08-2.036c0.043-0.551,0.533-0.955,1.075-0.918
		c0.551,0.043,0.962,0.525,0.919,1.076c-0.048,0.604-0.072,1.215-0.074,1.819L13.834,29.022z M13.311,33.94
		c0.534-0.135,1.078,0.192,1.212,0.729c0.152,0.611,0.332,1.224,0.536,1.82c0.179,0.522-0.101,1.091-0.623,1.27
		c-0.107,0.037-0.216,0.054-0.323,0.054c-0.416,0-0.805-0.262-0.946-0.677c-0.222-0.649-0.419-1.317-0.585-1.983
		C12.448,34.616,12.774,34.073,13.311,33.94z M15.045,21.551c-0.142,0.417-0.53,0.679-0.947,0.679c-0.106,0-0.215-0.018-0.321-0.053
		c-0.522-0.178-0.803-0.745-0.626-1.269c0.222-0.654,0.474-1.303,0.748-1.929c0.222-0.505,0.809-0.738,1.317-0.514
		c0.506,0.222,0.736,0.812,0.515,1.317C15.479,20.356,15.248,20.952,15.045,21.551z M2.5,29c0-0.674,0.036-1.338,0.078-2h3.987
		c-0.001,0.016-0.001,0.032-0.002,0.048C6.526,27.694,6.5,28.343,6.5,29c0,0.335,0.012,0.667,0.022,1H2.539
		C2.528,29.666,2.5,29.337,2.5,29z M6.636,32c0.038,0.421,0.087,0.839,0.141,1.255c0.004,0.03,0.006,0.061,0.01,0.092
		C6.861,33.903,6.951,34.454,7.052,35H3.108c-0.195-0.982-0.349-1.981-0.448-3H6.636z M7.256,22
		c-0.026,0.119-0.048,0.239-0.073,0.358c-0.027,0.131-0.054,0.261-0.08,0.392c-0.122,0.628-0.231,1.261-0.316,1.903
		c-0.004,0.03-0.006,0.061-0.01,0.092C6.766,24.83,6.759,24.915,6.748,25H2.779c0.132-1.018,0.299-2.022,0.528-3H7.256z M7.495,37
		c0.031,0.123,0.06,0.247,0.093,0.37c0.011,0.043,0.021,0.087,0.033,0.13c0.165,0.61,0.35,1.21,0.549,1.802
		c0.041,0.123,0.085,0.245,0.128,0.368c0.038,0.11,0.075,0.22,0.114,0.329H4.558c-0.379-0.971-0.705-1.973-0.983-3H7.495z
		 M24.925,49.135c-0.176,0.347-0.527,0.547-0.893,0.547c-0.152,0-0.307-0.035-0.451-0.108c-0.618-0.313-1.227-0.666-1.81-1.048
		c-0.462-0.303-0.591-0.922-0.289-1.384c0.304-0.461,0.923-0.591,1.385-0.289c0.521,0.342,1.066,0.657,1.618,0.938
		C24.979,48.041,25.175,48.643,24.925,49.135z M26.157,9.475c-0.577,0.216-1.152,0.469-1.708,0.753
		c-0.146,0.074-0.301,0.109-0.454,0.109c-0.364,0-0.715-0.199-0.892-0.545c-0.251-0.492-0.056-1.094,0.436-1.346
		c0.624-0.318,1.27-0.603,1.917-0.845c0.521-0.195,1.094,0.069,1.287,0.586C26.937,8.705,26.674,9.281,26.157,9.475z M21.419,2.625
		c-0.318,0.166-0.632,0.338-0.943,0.518c-0.189,0.109-0.38,0.216-0.566,0.33C19.636,3.642,19.368,3.82,19.1,4h-1.926
		c1.462-0.684,2.988-1.224,4.579-1.559C21.64,2.498,21.532,2.566,21.419,2.625z M13.731,6h2.763C16.247,6.216,16,6.434,15.759,6.66
		c-0.203,0.192-0.4,0.391-0.598,0.589c-0.196,0.197-0.39,0.396-0.58,0.6c-0.186,0.199-0.373,0.396-0.554,0.6
		C13.868,8.629,13.716,8.815,13.561,9h-3.302C11.333,7.883,12.492,6.876,13.731,6z M9.324,48h3.432
		c0.113,0.148,0.225,0.297,0.341,0.442c0.302,0.379,0.612,0.749,0.931,1.109c0.181,0.205,0.367,0.402,0.554,0.6
		c0.191,0.203,0.384,0.403,0.58,0.6c0.081,0.082,0.159,0.169,0.241,0.249h-3.008C11.297,50.101,10.27,49.097,9.324,48z
		 M21.753,55.559c-2.293-0.483-4.46-1.369-6.47-2.559h2.419c0.125,0.096,0.253,0.187,0.379,0.281
		c0.213,0.158,0.424,0.317,0.641,0.468c0.389,0.271,0.785,0.531,1.187,0.778c0.187,0.115,0.377,0.221,0.566,0.33
		c0.311,0.18,0.625,0.353,0.943,0.518C21.532,55.434,21.64,55.502,21.753,55.559z M39.835,49.533
		c-0.622,0.319-1.267,0.605-1.915,0.849c-0.116,0.044-0.235,0.065-0.353,0.065c-0.404,0-0.785-0.247-0.936-0.648
		c-0.195-0.517,0.066-1.094,0.583-1.288c0.577-0.218,1.151-0.473,1.706-0.757c0.492-0.253,1.095-0.059,1.347,0.433
		C40.52,48.678,40.326,49.281,39.835,49.533z M38.686,38.646c-1.412,1.188-3.438,1.806-6.023,1.837v1.287
		c0,0.6-0.387,0.987-0.987,0.987s-0.987-0.388-0.987-0.987v-1.405c-2.051-0.282-3.32-0.62-5.047-2.005v1.316
		c0,0.6-0.388,0.987-0.987,0.987s-0.987-0.388-0.987-0.987v-6.169c0-0.6,0.387-0.987,0.987-0.987s0.987,0.388,0.987,0.987v2.243
		c1.055,1.146,1.845,1.565,3.615,2.241c0.433,0.164,0.913,0.291,1.432,0.38v-9.564c-1.915-0.531-3.365-1.038-4.316-1.509
		c-1.052-0.52-1.877-1.176-2.453-1.952c-0.593-0.798-0.894-1.729-0.894-2.766c0-1.956,0.656-3.544,1.949-4.721
		c1.231-1.119,3.152-1.707,5.713-1.75V14.82c0-0.6,0.388-0.987,0.987-0.987s0.987,0.388,0.987,0.987v1.429
		c1.814,0.337,3.37,0.964,4.629,1.866c0.327,0.233,0.173,0.439,0.402,0.618l0-1.315c0-0.6,0.387-0.987,0.987-0.987
		s0.987,0.388,0.987,0.987v6.169c0,0.6-0.388,0.987-0.987,0.987s-0.987-0.388-0.987-0.987v-2.082
		c-1.115-1.232-2.085-2.2-3.739-2.877c-0.405-0.174-0.837-0.307-1.291-0.396v8.936c0.307,0.082,0.815,0.216,1.526,0.401
		c1.229,0.32,2.364,0.736,3.375,1.236c1.051,0.521,1.876,1.177,2.453,1.952c0.593,0.8,0.894,1.763,0.894,2.863
		C40.909,35.714,40.161,37.405,38.686,38.646z M41.816,10.833c-0.191,0.294-0.512,0.454-0.839,0.454
		c-0.188,0-0.376-0.052-0.545-0.162c-0.524-0.342-1.069-0.656-1.62-0.933c-0.493-0.249-0.691-0.85-0.442-1.343
		c0.248-0.493,0.848-0.693,1.343-0.443c0.616,0.311,1.226,0.662,1.812,1.043C41.987,9.75,42.118,10.37,41.816,10.833z M46.24,44.281
		c-0.439,0.54-0.906,1.061-1.387,1.547c-0.195,0.198-0.453,0.297-0.711,0.297c-0.254,0-0.508-0.096-0.703-0.289
		c-0.393-0.389-0.396-1.021-0.008-1.415c0.436-0.44,0.858-0.913,1.258-1.403c0.349-0.427,0.978-0.493,1.406-0.145
		C46.524,43.222,46.589,43.852,46.24,44.281z M46.569,16.837c-0.32,0-0.636-0.154-0.829-0.439c-0.352-0.52-0.732-1.028-1.131-1.513
		c-0.351-0.426-0.289-1.057,0.137-1.408c0.428-0.351,1.058-0.289,1.408,0.137c0.438,0.532,0.855,1.091,1.242,1.662
		c0.31,0.457,0.189,1.079-0.268,1.389C46.957,16.781,46.763,16.837,46.569,16.837z M50.197,37.049
		c-0.22,0.652-0.47,1.301-0.743,1.93c-0.164,0.376-0.531,0.601-0.918,0.601c-0.133,0-0.269-0.027-0.398-0.083
		c-0.506-0.221-0.738-0.81-0.518-1.316c0.251-0.577,0.48-1.172,0.683-1.77c0.176-0.523,0.743-0.807,1.267-0.628
		C50.093,35.958,50.374,36.526,50.197,37.049z M51.424,30.993c-0.041,0.524-0.479,0.923-0.996,0.923
		c-0.025,0-0.052-0.001-0.078-0.003c-0.551-0.042-0.963-0.523-0.92-1.074c0.047-0.603,0.07-1.221,0.07-1.838
		c0-0.552,0.447-1.032,1-1.032s1,0.415,1,0.967V29C51.5,29.668,51.475,30.339,51.424,30.993z"/>
</g>
<g>
</g>
<g>
</g>
<g>
</g>
<g>
</g>
<g>
</g>
<g>
</g>
<g>
</g>
<g>
</g>
<g>
</g>
<g>
</g>
<g>
</g>
<g>
</g>
<g>
</g>
<g>
</g>
<g>
</g>
</svg>
