<?xml version="1.0" encoding="iso-8859-1"?>
<!-- Generator: Adobe Illustrator 18.0.0, SVG Export Plug-In . SVG Version: 6.00 Build 0)  -->
<!DOCTYPE svg PUBLIC "-//W3C//DTD SVG 1.1//EN" "http://www.w3.org/Graphics/SVG/1.1/DTD/svg11.dtd">
<svg version="1.1" id="Capa_1" xmlns="http://www.w3.org/2000/svg" xmlns:xlink="http://www.w3.org/1999/xlink" x="0px" y="0px"
	 viewBox="0 0 58 58" style="enable-background:new 0 0 58 58;" xml:space="preserve">
<path d="M31.999,0c-1.019,0-2.028,0.076-3.025,0.209C27.956,0.074,26.955,0,25.999,0C19.162,0,12.743,3.034,7.923,8.542
	C7.709,8.787,7.505,9.039,7.3,9.29C7.295,9.294,7.292,9.3,7.288,9.304c-2.667,3.272-4.606,7.126-5.71,11.306
	c-0.001,0.001,0,0.003-0.001,0.004C0.868,23.3,0.5,26.118,0.5,29c0,4.403,0.871,8.577,2.422,12.319
	C2.936,41.361,2.95,41.4,2.97,41.439c0.928,2.214,2.097,4.273,3.466,6.136c0.037,0.051,0.067,0.105,0.113,0.148
	c1.389,1.864,2.982,3.524,4.738,4.94c0.051,0.057,0.113,0.099,0.176,0.143C15.59,56.076,20.6,58,26,58
	c0.958,0,1.963-0.074,2.984-0.21C29.974,57.924,30.979,58,32,58c14.061,0,25.5-13.009,25.5-29C57.499,13.009,46.06,0,31.999,0z
	 M49.215,20.201c0.528-0.181,1.092,0.099,1.271,0.621c0.223,0.65,0.42,1.317,0.587,1.982c0.135,0.536-0.19,1.079-0.727,1.213
	c-0.082,0.021-0.163,0.03-0.244,0.03c-0.447,0-0.855-0.303-0.969-0.757c-0.153-0.61-0.335-1.222-0.54-1.819
	C48.415,20.949,48.693,20.38,49.215,20.201z M34.926,7.703c-0.059,0.509-0.491,0.885-0.992,0.885c-0.038,0-0.077-0.002-0.116-0.007
	C33.216,8.511,32.604,8.476,32,8.476c-0.553,0-1.021-0.448-1.021-1s0.425-1,0.978-1H32c0.681,0,1.37,0.04,2.048,0.119
	C34.597,6.658,34.989,7.154,34.926,7.703z M32.085,51.524H32c-0.7,0-1.405-0.042-2.096-0.124c-0.548-0.066-0.939-0.563-0.874-1.112
	c0.065-0.548,0.547-0.931,1.112-0.875c0.61,0.073,1.236,0.11,1.857,0.11c0.553,0,1.042,0.448,1.042,1S32.638,51.524,32.085,51.524z
	 M5.428,42h3.788c0.157,0.354,0.318,0.705,0.487,1.051c0.073,0.149,0.149,0.295,0.224,0.442c0.205,0.402,0.418,0.798,0.639,1.188
	c0.082,0.145,0.161,0.292,0.245,0.435c0.177,0.3,0.362,0.592,0.548,0.884H7.773C6.891,44.754,6.109,43.415,5.428,42z M4.943,17
	h3.833c-0.391,0.977-0.731,1.978-1.023,3H3.834C4.149,18.974,4.521,17.974,4.943,17z M8.49,11h3.518
	c-0.884,1.265-1.668,2.603-2.347,4H5.899C6.646,13.589,7.513,12.251,8.49,11z M17.9,41.568c0.357,0.528,0.737,1.039,1.129,1.516
	c0.35,0.427,0.288,1.057-0.14,1.408c-0.186,0.152-0.41,0.227-0.633,0.227c-0.29,0-0.576-0.125-0.774-0.366
	c-0.431-0.525-0.847-1.085-1.238-1.664c-0.31-0.458-0.189-1.079,0.268-1.389C16.971,40.991,17.591,41.11,17.9,41.568z
	 M17.454,13.685c0.439-0.538,0.907-1.058,1.39-1.544c0.39-0.393,1.022-0.394,1.414-0.006c0.393,0.389,0.395,1.022,0.006,1.414
	c-0.438,0.441-0.861,0.913-1.261,1.401c-0.197,0.242-0.485,0.367-0.775,0.367c-0.222,0-0.446-0.074-0.632-0.226
	C17.168,14.742,17.104,14.112,17.454,13.685z M13.643,33.94c0.535-0.135,1.078,0.193,1.212,0.729
	c0.152,0.611,0.332,1.224,0.536,1.82c0.179,0.522-0.101,1.091-0.623,1.27c-0.107,0.037-0.216,0.054-0.323,0.054
	c-0.416,0-0.805-0.262-0.946-0.677c-0.222-0.649-0.419-1.317-0.585-1.983C12.78,34.616,13.106,34.074,13.643,33.94z M12.166,29.022
	V29c0-0.675,0.027-1.36,0.08-2.036c0.043-0.551,0.534-0.955,1.075-0.918c0.551,0.043,0.962,0.525,0.919,1.076
	c-0.049,0.624-0.074,1.256-0.074,1.879c0,0.552-0.447,1.011-1,1.011S12.166,29.575,12.166,29.022z M15.378,21.551
	c-0.142,0.417-0.53,0.679-0.947,0.679c-0.106,0-0.215-0.018-0.321-0.053c-0.522-0.178-0.803-0.745-0.626-1.269
	c0.222-0.654,0.474-1.303,0.748-1.929c0.223-0.505,0.809-0.738,1.317-0.514c0.506,0.222,0.736,0.812,0.515,1.317
	C15.812,20.356,15.581,20.952,15.378,21.551z M2.5,29c0-0.671,0.028-1.337,0.07-2h3.995c0,0.007,0,0.015-0.001,0.023
	C6.526,27.678,6.5,28.337,6.5,29c0,0.335,0.012,0.667,0.022,1H2.539C2.528,29.666,2.5,29.337,2.5,29z M6.636,32
	c0.038,0.421,0.087,0.838,0.141,1.254c0.004,0.031,0.006,0.062,0.01,0.093C6.861,33.904,6.951,34.454,7.052,35H3.108
	c-0.195-0.982-0.349-1.981-0.448-3H6.636z M7.244,22c-0.041,0.188-0.074,0.379-0.112,0.569c0,0.001-0.001,0.003-0.001,0.004
	c-0.158,0.8-0.29,1.609-0.388,2.427H2.755c0.13-1.016,0.316-2.016,0.544-3H7.244z M7.495,37c0.031,0.122,0.06,0.246,0.092,0.367
	c0.012,0.044,0.022,0.09,0.034,0.134c0.165,0.609,0.35,1.208,0.548,1.8c0.042,0.125,0.086,0.248,0.129,0.371
	C8.335,39.782,8.372,39.892,8.411,40H4.558c-0.379-0.971-0.705-1.973-0.983-3H7.495z M25.258,49.135
	c-0.176,0.347-0.527,0.547-0.893,0.547c-0.152,0-0.307-0.035-0.451-0.108c-0.618-0.313-1.227-0.666-1.81-1.048
	c-0.462-0.303-0.591-0.922-0.289-1.384c0.304-0.461,0.922-0.591,1.385-0.289c0.521,0.342,1.066,0.657,1.618,0.938
	C25.312,48.041,25.508,48.643,25.258,49.135z M23.436,9.792C23.185,9.3,23.38,8.698,23.871,8.447
	c0.624-0.318,1.27-0.603,1.917-0.845c0.522-0.195,1.094,0.069,1.287,0.586c0.193,0.517-0.069,1.093-0.586,1.287
	c-0.577,0.216-1.152,0.469-1.708,0.753c-0.146,0.074-0.301,0.109-0.454,0.109C23.963,10.337,23.612,10.139,23.436,9.792z M19.06,4
	h-1.933c1.482-0.695,3.022-1.225,4.609-1.557C20.819,2.901,19.925,3.419,19.06,4z M13.684,6h2.785
	c-0.888,0.779-1.741,1.623-2.546,2.542C13.792,8.692,13.669,8.848,13.542,9h-3.303C11.318,7.875,12.466,6.865,13.684,6z M9.324,48
	h3.432c0.113,0.148,0.225,0.296,0.341,0.442c0.302,0.379,0.612,0.749,0.931,1.109c0.18,0.204,0.366,0.4,0.552,0.598
	c0.192,0.205,0.387,0.406,0.584,0.604c0.081,0.081,0.157,0.167,0.239,0.247h-3.008C11.297,50.101,10.27,49.097,9.324,48z
	 M21.753,55.558c-2.293-0.483-4.46-1.369-6.469-2.558h2.419c0.127,0.098,0.258,0.19,0.386,0.286c0.209,0.155,0.417,0.311,0.63,0.46
	c0.392,0.273,0.791,0.535,1.196,0.784c0.181,0.111,0.366,0.214,0.55,0.321c0.319,0.185,0.642,0.362,0.968,0.532
	C21.541,55.438,21.644,55.504,21.753,55.558z M40.168,49.532c-0.621,0.319-1.266,0.605-1.915,0.85
	c-0.116,0.044-0.235,0.065-0.353,0.065c-0.404,0-0.785-0.247-0.936-0.648c-0.195-0.517,0.066-1.094,0.583-1.288
	c0.578-0.218,1.152-0.473,1.706-0.757c0.493-0.254,1.094-0.059,1.347,0.432C40.853,48.677,40.659,49.28,40.168,49.532z
	 M39.625,37.475c-0.959,0.983-2.172,1.482-3.605,1.482H24.656c-0.6,0-0.987-0.388-0.987-0.987s0.387-0.986,0.987-0.986
	c0.892,0,1.605-0.335,2.182-1.023c0.59-0.704,0.89-1.775,0.89-3.185v-4.853l-2.26-0.005c-0.6,0-0.987-0.388-0.987-0.987
	s0.388-0.987,0.987-0.987h2.255l0.005-4.532c0-2.039,0.476-3.644,1.415-4.769c0.986-1.155,2.305-1.738,3.923-1.738
	c1.606,0,2.923,0.521,3.915,1.548c0.987,1.024,1.488,2.364,1.488,3.984c0,0.6-0.387,0.987-0.987,0.987s-0.987-0.388-0.987-0.987
	c0-1.109-0.304-1.962-0.93-2.606c-0.64-0.639-1.458-0.952-2.499-0.952c-1.021,0-1.813,0.359-2.422,1.1
	c-0.625,0.76-0.941,1.915-0.941,3.434v4.527l3.883,0.005c0.6,0,0.987,0.388,0.987,0.987s-0.387,0.987-0.987,0.987h-3.878
	l-0.005,4.857c0,1.763-0.378,3.172-1.127,4.208h7.445c0.865,0,1.578-0.292,2.179-0.893c0.601-0.602,0.893-1.367,0.893-2.342
	c0-0.6,0.387-0.987,0.987-0.987s0.987,0.388,0.987,0.987C41.066,35.242,40.581,36.495,39.625,37.475z M42.148,10.833
	c-0.191,0.294-0.512,0.454-0.839,0.454c-0.188,0-0.376-0.052-0.545-0.162c-0.524-0.342-1.069-0.656-1.62-0.933
	c-0.493-0.249-0.691-0.85-0.442-1.343c0.248-0.493,0.848-0.693,1.343-0.443c0.616,0.311,1.226,0.662,1.812,1.043
	C42.319,9.75,42.45,10.37,42.148,10.833z M46.573,44.281c-0.439,0.54-0.906,1.061-1.387,1.547c-0.195,0.198-0.453,0.297-0.711,0.297
	c-0.254,0-0.508-0.096-0.703-0.289c-0.393-0.389-0.396-1.021-0.008-1.415c0.436-0.44,0.858-0.913,1.258-1.403
	c0.348-0.427,0.978-0.493,1.406-0.145S46.922,43.853,46.573,44.281z M46.902,16.837c-0.32,0-0.636-0.154-0.829-0.439
	c-0.352-0.52-0.732-1.028-1.131-1.513c-0.351-0.426-0.289-1.057,0.137-1.408c0.428-0.351,1.057-0.289,1.408,0.137
	c0.438,0.532,0.855,1.091,1.242,1.662c0.31,0.457,0.189,1.079-0.268,1.389C47.29,16.781,47.096,16.837,46.902,16.837z M50.53,37.048
	c-0.22,0.652-0.47,1.301-0.743,1.93c-0.164,0.376-0.531,0.601-0.918,0.601c-0.133,0-0.269-0.027-0.398-0.083
	c-0.506-0.221-0.738-0.81-0.518-1.316c0.251-0.577,0.48-1.172,0.683-1.77c0.176-0.522,0.744-0.804,1.267-0.628
	C50.426,35.958,50.707,36.525,50.53,37.048z M51.757,30.992c-0.041,0.524-0.479,0.923-0.996,0.923c-0.025,0-0.052-0.001-0.078-0.003
	c-0.551-0.042-0.963-0.523-0.92-1.074c0.047-0.603,0.07-1.221,0.07-1.838c0-0.552,0.447-1.033,1-1.033s1,0.415,1,0.967V29
	C51.833,29.668,51.808,30.339,51.757,30.992z"/>
<g>
</g>
<g>
</g>
<g>
</g>
<g>
</g>
<g>
</g>
<g>
</g>
<g>
</g>
<g>
</g>
<g>
</g>
<g>
</g>
<g>
</g>
<g>
</g>
<g>
</g>
<g>
</g>
<g>
</g>
</svg>
