<?xml version="1.0" encoding="iso-8859-1"?>
<!-- Generator: Adobe Illustrator 18.0.0, SVG Export Plug-In . SVG Version: 6.00 Build 0)  -->
<!DOCTYPE svg PUBLIC "-//W3C//DTD SVG 1.1//EN" "http://www.w3.org/Graphics/SVG/1.1/DTD/svg11.dtd">
<svg version="1.1" id="Capa_1" xmlns="http://www.w3.org/2000/svg" xmlns:xlink="http://www.w3.org/1999/xlink" x="0px" y="0px"
	 viewBox="0 0 60 60" style="enable-background:new 0 0 60 60;" xml:space="preserve">
<g>
	<circle cx="55" cy="4" r="1"/>
	<circle cx="51" cy="4" r="1"/>
	<circle cx="55" cy="8" r="1"/>
	<circle cx="51" cy="8" r="1"/>
	<circle cx="56" cy="55" r="1"/>
	<circle cx="56" cy="51" r="1"/>
	<circle cx="52" cy="55" r="1"/>
	<circle cx="52" cy="51" r="1"/>
	<circle cx="5" cy="56" r="1"/>
	<circle cx="9" cy="56" r="1"/>
	<circle cx="5" cy="52" r="1"/>
	<circle cx="9" cy="52" r="1"/>
	<circle cx="4" cy="5" r="1"/>
	<circle cx="4" cy="9" r="1"/>
	<circle cx="8" cy="5" r="1"/>
	<circle cx="8" cy="9" r="1"/>
	<path d="M12,0h-2H0v48v2v10h48h2h10V12v-2V0H12z M18.018,25.185c-0.506-2.694-1.379-3.164-2.08-3.541
		c-2.247-1.209-1.776-2.515,2.176-10.105c0.254-0.488,0.857-0.682,1.349-0.425c0.489,0.255,0.68,0.858,0.425,1.349
		c-1.081,2.076-3.301,6.341-3.289,7.258c0.071,0.046,0.192,0.111,0.287,0.162c1.169,0.629,2.47,1.58,3.098,4.934
		c1.591,8.483-6.981,15.655-7.347,15.956C12.449,40.925,12.225,41,12.001,41L12,41v-2.348
		C13.861,36.894,19.159,31.272,18.018,25.185z M23.61,21.369c0.589,1.013,1.714,1.547,3.438,1.632
		c3.848,0.191,6.05-1.605,7.218-3.145c2.037-2.685,2.27-6.086,1.785-7.54c-0.175-0.524,0.108-1.091,0.632-1.265
		c0.529-0.176,1.09,0.108,1.265,0.632c0.745,2.233,0.266,6.28-2.088,9.382c-1.389,1.83-3.929,3.95-8.239,3.95
		c-0.219,0-0.442-0.006-0.67-0.017c-2.423-0.12-4.129-1.004-5.071-2.628c-2.251-3.88,1.086-10.542,1.229-10.824
		c0.25-0.492,0.854-0.688,1.344-0.438c0.492,0.25,0.689,0.852,0.439,1.344C24.055,14.105,22.192,18.929,23.61,21.369z M28,29
		c4.912,0,7.418-3.566,10.887-8.502c1.992-2.836,4.25-6.049,7.406-9.205c0.391-0.391,1.023-0.391,1.414,0s0.391,1.023,0,1.414
		c-3.033,3.033-5.238,6.172-7.184,8.94C36.852,26.873,33.951,31,28,31c-6.17,0-8.591,12.334-9.004,17.087
		C18.951,48.607,18.515,49,18.001,49c-0.029,0-0.058-0.001-0.088-0.004c-0.55-0.048-0.957-0.532-0.909-1.083
		C17.07,47.142,18.752,29,28,29z M44.943,39.669c1.196,3.405,0.668,5.627,0.014,6.892c-0.732,1.415-1.866,2.168-2.683,2.401
		C42.183,48.987,42.09,49,41.999,49c-0.435,0-0.835-0.286-0.961-0.726c-0.151-0.531,0.156-1.085,0.688-1.236
		c0.297-0.084,0.983-0.485,1.455-1.397c0.679-1.311,0.636-3.146-0.124-5.31c-2.133-6.071,4.069-10.921,4.334-11.124
		c0.181-0.14,0.396-0.192,0.609-0.191v2.314C46.655,32.593,43.637,35.95,44.943,39.669z M48,18.994
		c-0.012,0-0.022,0.006-0.034,0.005c-0.033-0.001-0.067-0.001-0.101-0.001c-1.527,0-1.893,1.235-2.399,4.192l-0.131,0.754
		c-1.185,6.56-6.017,11.684-12.311,13.057c-1.221,0.266-2.31,0.356-3.227,0.356c-1.895,0-3.053-0.388-3.123-0.412
		c-0.522-0.179-0.8-0.748-0.62-1.271c0.18-0.52,0.745-0.797,1.266-0.622c0.021,0.007,2.116,0.683,5.278-0.007
		c5.501-1.199,9.728-5.696,10.768-11.457l0.129-0.736c0.447-2.613,1.003-5.855,4.356-5.855c0.049,0,0.098,0.001,0.148,0.003V18.994z
		 M34.074,42.543c-1.731-1.406-5.611-0.87-6.833-0.572l-0.17,0.026c-2.153,0.154-2.961,4.549-3.074,6.077
		C23.958,48.6,23.52,49,23.001,49c-0.024,0-0.05-0.001-0.075-0.003c-0.551-0.041-0.964-0.521-0.923-1.071
		c0.058-0.773,0.678-7.529,4.842-7.916c0.729-0.166,5.778-1.209,8.479,0.972c1.171,0.945,1.735,2.309,1.676,4.053l-0.007,0.2
		l-0.083,0.183c-0.065,0.15-0.216,0.68-0.006,0.998C37.147,46.787,37.911,47,39,47c0.553,0,1,0.447,1,1s-0.447,1-1,1
		c-1.868,0-3.141-0.508-3.784-1.51c-0.67-1.045-0.384-2.202-0.212-2.688C35.006,43.793,34.701,43.053,34.074,42.543z M2,2h8v8v38H9
		v-1c0-0.553-0.447-1-1-1s-1,0.447-1,1v1H6v-7c0-0.553-0.447-1-1-1s-1,0.447-1,1v7H2V2z M2,58v-8h8h2h36v2h-5c-0.553,0-1,0.447-1,1
		s0.447,1,1,1h5v1h-3c-0.553,0-1,0.447-1,1s0.447,1,1,1h3v1H2z M58,58h-8v-8V12h2v5c0,0.553,0.447,1,1,1s1-0.447,1-1v-5h1v3
		c0,0.553,0.447,1,1,1s1-0.447,1-1v-3h1V58z M50,10h-2H12V9h2c0.553,0,1-0.447,1-1s-0.447-1-1-1h-2V6h3c0.553,0,1-0.447,1-1
		s-0.447-1-1-1h-3V2h46v8H50z"/>
</g>
<g>
</g>
<g>
</g>
<g>
</g>
<g>
</g>
<g>
</g>
<g>
</g>
<g>
</g>
<g>
</g>
<g>
</g>
<g>
</g>
<g>
</g>
<g>
</g>
<g>
</g>
<g>
</g>
<g>
</g>
</svg>
