<?xml version="1.0" encoding="iso-8859-1"?>
<!-- Generator: Adobe Illustrator 18.0.0, SVG Export Plug-In . SVG Version: 6.00 Build 0)  -->
<!DOCTYPE svg PUBLIC "-//W3C//DTD SVG 1.1//EN" "http://www.w3.org/Graphics/SVG/1.1/DTD/svg11.dtd">
<svg version="1.1" id="Capa_1" xmlns="http://www.w3.org/2000/svg" xmlns:xlink="http://www.w3.org/1999/xlink" x="0px" y="0px"
	 viewBox="0 0 60 60" style="enable-background:new 0 0 60 60;" xml:space="preserve">
<g>
	<path d="M55.783,8H4.217C1.892,8,0,9.892,0,12.217V13h60v-0.783C60,9.892,58.108,8,55.783,8z"/>
	<circle cx="24" cy="18" r="1"/>
	<circle cx="27" cy="15" r="1"/>
	<circle cx="27" cy="21" r="1"/>
	<circle cx="30" cy="18" r="1"/>
	<circle cx="18" cy="18" r="1"/>
	<circle cx="21" cy="15" r="1"/>
	<circle cx="21" cy="21" r="1"/>
	<circle cx="3" cy="15" r="1"/>
	<circle cx="3" cy="21" r="1"/>
	<circle cx="6" cy="18" r="1"/>
	<circle cx="12" cy="18" r="1"/>
	<circle cx="9" cy="15" r="1"/>
	<circle cx="15" cy="15" r="1"/>
	<circle cx="9" cy="21" r="1"/>
	<circle cx="15" cy="21" r="1"/>
	<circle cx="54" cy="18" r="1"/>
	<circle cx="57" cy="15" r="1"/>
	<circle cx="57" cy="21" r="1"/>
	<circle cx="48" cy="18" r="1"/>
	<circle cx="51" cy="15" r="1"/>
	<circle cx="51" cy="21" r="1"/>
	<circle cx="33" cy="15" r="1"/>
	<circle cx="33" cy="21" r="1"/>
	<circle cx="36" cy="18" r="1"/>
	<circle cx="42" cy="18" r="1"/>
	<circle cx="39" cy="15" r="1"/>
	<circle cx="45" cy="15" r="1"/>
	<circle cx="39" cy="21" r="1"/>
	<circle cx="45" cy="21" r="1"/>
	<rect x="38" y="36" width="14" height="8"/>
	<path d="M0,47.783C0,50.108,1.892,52,4.217,52h51.566C58.108,52,60,50.108,60,47.783V23H0V47.783z M14,34h-2c-0.553,0-1-0.448-1-1
		s0.447-1,1-1h2c0.553,0,1,0.448,1,1S14.553,34,14,34z M25,34h-2c-0.553,0-1-0.448-1-1s0.447-1,1-1h2c0.553,0,1,0.448,1,1
		S25.553,34,25,34z M29.71,33.71C29.52,33.89,29.26,34,29,34c-0.271,0-0.521-0.11-0.71-0.29C28.109,33.52,28,33.26,28,33
		c0-0.26,0.109-0.52,0.29-0.71c0.37-0.37,1.05-0.37,1.42,0C29.89,32.48,30,32.74,30,33C30,33.26,29.89,33.52,29.71,33.71z M36,34h18
		v12H36V34z M20,27h9c0.553,0,1,0.448,1,1s-0.447,1-1,1h-9c-0.553,0-1-0.448-1-1S19.447,27,20,27z M18,32h1c0.553,0,1,0.448,1,1
		s-0.447,1-1,1h-1c-0.553,0-1-0.448-1-1S17.447,32,18,32z M7,27h9c0.553,0,1,0.448,1,1s-0.447,1-1,1H7c-0.553,0-1-0.448-1-1
		S6.447,27,7,27z M7,32h1c0.553,0,1,0.448,1,1s-0.447,1-1,1H7c-0.553,0-1-0.448-1-1S6.447,32,7,32z"/>
</g>
<g>
</g>
<g>
</g>
<g>
</g>
<g>
</g>
<g>
</g>
<g>
</g>
<g>
</g>
<g>
</g>
<g>
</g>
<g>
</g>
<g>
</g>
<g>
</g>
<g>
</g>
<g>
</g>
<g>
</g>
</svg>
