<?xml version="1.0" encoding="iso-8859-1"?>
<!-- Generator: Adobe Illustrator 18.0.0, SVG Export Plug-In . SVG Version: 6.00 Build 0)  -->
<!DOCTYPE svg PUBLIC "-//W3C//DTD SVG 1.1//EN" "http://www.w3.org/Graphics/SVG/1.1/DTD/svg11.dtd">
<svg version="1.1" id="Capa_1" xmlns="http://www.w3.org/2000/svg" xmlns:xlink="http://www.w3.org/1999/xlink" x="0px" y="0px"
	 viewBox="0 0 60 60" style="enable-background:new 0 0 60 60;" xml:space="preserve">
<g>
	<circle cx="42" cy="18" r="1"/>
	<circle cx="45" cy="15" r="1"/>
	<circle cx="45" cy="21" r="1"/>
	<circle cx="48" cy="18" r="1"/>
	<circle cx="24" cy="18" r="1"/>
	<circle cx="27" cy="15" r="1"/>
	<circle cx="27" cy="21" r="1"/>
	<circle cx="30" cy="18" r="1"/>
	<circle cx="36" cy="18" r="1"/>
	<circle cx="33" cy="15" r="1"/>
	<circle cx="39" cy="15" r="1"/>
	<circle cx="33" cy="21" r="1"/>
	<circle cx="39" cy="21" r="1"/>
	<circle cx="54" cy="18" r="1"/>
	<circle cx="57" cy="15" r="1"/>
	<circle cx="57" cy="21" r="1"/>
	<circle cx="51" cy="15" r="1"/>
	<circle cx="51" cy="21" r="1"/>
	<circle cx="18" cy="18" r="1"/>
	<circle cx="21" cy="15" r="1"/>
	<circle cx="21" cy="21" r="1"/>
	<circle cx="3" cy="15" r="1"/>
	<circle cx="3" cy="21" r="1"/>
	<circle cx="6" cy="18" r="1"/>
	<circle cx="12" cy="18" r="1"/>
	<circle cx="9" cy="15" r="1"/>
	<circle cx="15" cy="15" r="1"/>
	<circle cx="9" cy="21" r="1"/>
	<circle cx="15" cy="21" r="1"/>
	<path d="M55.783,8H4.217C1.892,8,0,9.892,0,12.217V13h60v-0.783C60,9.892,58.108,8,55.783,8z"/>
	<path d="M0,47.783C0,50.108,1.892,52,4.217,52h51.566C58.108,52,60,50.108,60,47.783V23H0V47.783z M15,34h-2c-0.552,0-1-0.448-1-1
		s0.448-1,1-1h2c0.552,0,1,0.448,1,1S15.552,34,15,34z M26,34h-2c-0.552,0-1-0.448-1-1s0.448-1,1-1h2c0.552,0,1,0.448,1,1
		S26.552,34,26,34z M36.362,45c-0.031,0.918-1.045,1.262-1.707,0.707c-0.935-0.784-1.871-1.567-2.806-2.351
		c-0.99-0.829,0.433-2.236,1.414-1.414c0.414,0.347,0.828,0.693,1.241,1.04c0.268-2.261,1.005-4.441,3.196-5.582
		c1.142-0.595,2.154,1.131,1.009,1.727C36.539,40.257,36.435,42.833,36.362,45z M33,33c0-0.552,0.448-1,1-1h5c0.552,0,1,0.448,1,1
		s-0.448,1-1,1h-5C33.448,34,33,33.552,33,33z M44,27h8c0.552,0,1,0.448,1,1s-0.448,1-1,1h-8c-0.552,0-1-0.448-1-1S43.448,27,44,27z
		 M53,33c0,0.26-0.11,0.52-0.29,0.71C52.52,33.89,52.26,34,52,34c-0.26,0-0.52-0.11-0.71-0.29C51.11,33.52,51,33.26,51,33
		c0-0.26,0.11-0.52,0.29-0.71c0.37-0.37,1.05-0.37,1.42,0C52.89,32.48,53,32.74,53,33z M49,33c0,0.552-0.448,1-1,1h-1
		c-0.552,0-1-0.448-1-1s0.448-1,1-1h1C48.552,32,49,32.448,49,33z M42.29,32.29c0.37-0.37,1.05-0.37,1.42,0
		C43.89,32.48,44,32.74,44,33c0,0.26-0.11,0.52-0.29,0.71C43.52,33.89,43.26,34,43,34c-0.26,0-0.52-0.11-0.71-0.29
		C42.11,33.52,42,33.26,42,33C42,32.74,42.11,32.48,42.29,32.29z M44.871,40.166c0.458-0.281,1.106-0.109,1.368,0.359
		c1.034,1.843,3.535-0.242,4.992-0.132c0.773,0.058,1.209,0.542,1.632,1.121c0.762,1.043-0.975,2.04-1.727,1.009
		c-0.246-0.337-3.424,1.211-4.333,0.883c-0.713-0.257-1.248-0.586-1.696-1.067c-2.122,1.152-4.536,1.775-6.407-0.259
		c-0.871-0.947,0.539-2.365,1.414-1.414C41.604,42.284,43.455,41.035,44.871,40.166z M32,27h8c0.552,0,1,0.448,1,1s-0.448,1-1,1h-8
		c-0.552,0-1-0.448-1-1S31.448,27,32,27z M30.71,32.29C30.89,32.48,31,32.74,31,33c0,0.26-0.11,0.52-0.29,0.71
		C30.52,33.89,30.26,34,30,34c-0.26,0-0.52-0.11-0.71-0.29C29.11,33.52,29,33.27,29,33c0-0.26,0.11-0.52,0.29-0.71
		C29.66,31.92,30.34,31.92,30.71,32.29z M20,27h8c0.552,0,1,0.448,1,1s-0.448,1-1,1h-8c-0.552,0-1-0.448-1-1S19.448,27,20,27z
		 M19,32h1c0.552,0,1,0.448,1,1s-0.448,1-1,1h-1c-0.552,0-1-0.448-1-1S18.448,32,19,32z M8,27h8c0.552,0,1,0.448,1,1s-0.448,1-1,1H8
		c-0.552,0-1-0.448-1-1S7.448,27,8,27z M8,32h1c0.552,0,1,0.448,1,1s-0.448,1-1,1H8c-0.552,0-1-0.448-1-1S7.448,32,8,32z"/>
</g>
<g>
</g>
<g>
</g>
<g>
</g>
<g>
</g>
<g>
</g>
<g>
</g>
<g>
</g>
<g>
</g>
<g>
</g>
<g>
</g>
<g>
</g>
<g>
</g>
<g>
</g>
<g>
</g>
<g>
</g>
</svg>
