<?xml version="1.0" encoding="iso-8859-1"?>
<!-- Generator: Adobe Illustrator 18.0.0, SVG Export Plug-In . SVG Version: 6.00 Build 0)  -->
<!DOCTYPE svg PUBLIC "-//W3C//DTD SVG 1.1//EN" "http://www.w3.org/Graphics/SVG/1.1/DTD/svg11.dtd">
<svg version="1.1" id="Capa_1" xmlns="http://www.w3.org/2000/svg" xmlns:xlink="http://www.w3.org/1999/xlink" x="0px" y="0px"
	 viewBox="0 0 60 60" style="enable-background:new 0 0 60 60;" xml:space="preserve">
<g>
	<circle cx="24" cy="18" r="1"/>
	<circle cx="27" cy="15" r="1"/>
	<circle cx="27" cy="21" r="1"/>
	<circle cx="30" cy="18" r="1"/>
	<circle cx="18" cy="18" r="1"/>
	<circle cx="21" cy="15" r="1"/>
	<circle cx="21" cy="21" r="1"/>
	<circle cx="3" cy="15" r="1"/>
	<circle cx="3" cy="21" r="1"/>
	<circle cx="6" cy="18" r="1"/>
	<circle cx="12" cy="18" r="1"/>
	<circle cx="9" cy="15" r="1"/>
	<circle cx="15" cy="15" r="1"/>
	<circle cx="9" cy="21" r="1"/>
	<circle cx="15" cy="21" r="1"/>
	<circle cx="54" cy="18" r="1"/>
	<circle cx="57" cy="15" r="1"/>
	<circle cx="57" cy="21" r="1"/>
	<circle cx="48" cy="18" r="1"/>
	<circle cx="51" cy="15" r="1"/>
	<circle cx="51" cy="21" r="1"/>
	<circle cx="33" cy="15" r="1"/>
	<circle cx="33" cy="21" r="1"/>
	<circle cx="36" cy="18" r="1"/>
	<circle cx="42" cy="18" r="1"/>
	<circle cx="39" cy="15" r="1"/>
	<circle cx="45" cy="15" r="1"/>
	<circle cx="39" cy="21" r="1"/>
	<circle cx="45" cy="21" r="1"/>
	<path d="M55.783,8H4.217C1.892,8,0,9.892,0,12.217V13h60v-0.783C60,9.892,58.108,8,55.783,8z"/>
	<path d="M41,45c0.631,0,1.23-0.13,1.787-0.345C41.68,43.417,41,41.788,41,40s0.68-3.417,1.787-4.655C42.23,35.13,41.631,35,41,35
		c-2.757,0-5,2.243-5,5S38.243,45,41,45z"/>
	<path d="M46,40c0-1.394-0.576-2.654-1.5-3.562C43.576,37.346,43,38.606,43,40s0.576,2.654,1.5,3.562C45.424,42.654,46,41.394,46,40
		z"/>
	<path d="M48,45c2.757,0,5-2.243,5-5s-2.243-5-5-5c-0.631,0-1.23,0.13-1.787,0.345C47.32,36.583,48,38.212,48,40
		s-0.68,3.417-1.787,4.655C46.77,44.87,47.369,45,48,45z"/>
	<path d="M0,47.783C0,50.108,1.892,52,4.217,52h51.566C58.108,52,60,50.108,60,47.783V23H0V47.783z M14,34h-2c-0.552,0-1-0.448-1-1
		s0.448-1,1-1h2c0.552,0,1,0.448,1,1S14.552,34,14,34z M25,34h-2c-0.552,0-1-0.448-1-1s0.448-1,1-1h2c0.552,0,1,0.448,1,1
		S25.552,34,25,34z M29.71,33.71C29.52,33.89,29.26,34,29,34c-0.26,0-0.52-0.11-0.71-0.29C28.11,33.52,28,33.27,28,33
		c0-0.26,0.11-0.52,0.29-0.71c0.37-0.37,1.04-0.37,1.42,0C29.89,32.48,30,32.74,30,33C30,33.26,29.89,33.52,29.71,33.71z M41,33
		c1.276,0,2.469,0.349,3.5,0.947C45.531,33.349,46.724,33,48,33c3.859,0,7,3.14,7,7s-3.141,7-7,7c-1.276,0-2.469-0.349-3.5-0.947
		C43.469,46.651,42.276,47,41,47c-3.86,0-7-3.14-7-7S37.14,33,41,33z M20,27h9c0.552,0,1,0.448,1,1s-0.448,1-1,1h-9
		c-0.552,0-1-0.448-1-1S19.448,27,20,27z M18,32h1c0.552,0,1,0.448,1,1s-0.448,1-1,1h-1c-0.552,0-1-0.448-1-1S17.448,32,18,32z
		 M7,27h9c0.552,0,1,0.448,1,1s-0.448,1-1,1H7c-0.552,0-1-0.448-1-1S6.448,27,7,27z M7,32h1c0.552,0,1,0.448,1,1s-0.448,1-1,1H7
		c-0.552,0-1-0.448-1-1S6.448,32,7,32z"/>
</g>
<g>
</g>
<g>
</g>
<g>
</g>
<g>
</g>
<g>
</g>
<g>
</g>
<g>
</g>
<g>
</g>
<g>
</g>
<g>
</g>
<g>
</g>
<g>
</g>
<g>
</g>
<g>
</g>
<g>
</g>
</svg>
