<?xml version="1.0" encoding="iso-8859-1"?>
<!-- Generator: Adobe Illustrator 18.0.0, SVG Export Plug-In . SVG Version: 6.00 Build 0)  -->
<!DOCTYPE svg PUBLIC "-//W3C//DTD SVG 1.1//EN" "http://www.w3.org/Graphics/SVG/1.1/DTD/svg11.dtd">
<svg version="1.1" id="Capa_1" xmlns="http://www.w3.org/2000/svg" xmlns:xlink="http://www.w3.org/1999/xlink" x="0px" y="0px"
	 viewBox="0 0 60 60" style="enable-background:new 0 0 60 60;" xml:space="preserve">
<g>
	<path d="M43.5,25.5C49.841,25.5,55,20.341,55,14S49.841,2.5,43.5,2.5S32,7.659,32,14S37.159,25.5,43.5,25.5z M43.5,4.5
		c5.238,0,9.5,4.262,9.5,9.5s-4.262,9.5-9.5,9.5S34,19.238,34,14S38.262,4.5,43.5,4.5z"/>
	<path d="M59,46.5H32h-2v-42h-5v8h-7v-8h-5v42h-2v-39c0-0.553-0.447-1-1-1H7.858C7.411,4.78,5.859,3.5,4,3.5c-2.206,0-4,1.794-4,4
		s1.794,4,4,4c1.859,0,3.411-1.28,3.858-3H9v39c0,0.553,0.447,1,1,1h5h2.031C15.806,49.412,15,50.859,15,52.5c0,2.757,2.243,5,5,5
		s5-2.243,5-5c0-1.641-0.806-3.088-2.031-4H32h15.031C45.806,49.412,45,50.859,45,52.5c0,2.757,2.243,5,5,5s5-2.243,5-5
		c0-1.641-0.806-3.088-2.031-4H59c0.553,0,1-0.447,1-1S59.553,46.5,59,46.5z M5,8.5h0.722C5.375,9.095,4.737,9.5,4,9.5
		c-1.103,0-2-0.897-2-2s0.897-2,2-2c0.737,0,1.375,0.405,1.722,1H5c-0.553,0-1,0.447-1,1S4.447,8.5,5,8.5z"/>
	<polygon points="47,25.5 47,33.5 42,33.5 42,25.5 32,25.5 32,46.5 30,46.5 30,48.5 58,48.5 58,25.5 	"/>
</g>
<g>
</g>
<g>
</g>
<g>
</g>
<g>
</g>
<g>
</g>
<g>
</g>
<g>
</g>
<g>
</g>
<g>
</g>
<g>
</g>
<g>
</g>
<g>
</g>
<g>
</g>
<g>
</g>
<g>
</g>
</svg>
