<?xml version="1.0" encoding="iso-8859-1"?>
<!-- Generator: Adobe Illustrator 18.0.0, SVG Export Plug-In . SVG Version: 6.00 Build 0)  -->
<!DOCTYPE svg PUBLIC "-//W3C//DTD SVG 1.1//EN" "http://www.w3.org/Graphics/SVG/1.1/DTD/svg11.dtd">
<svg version="1.1" id="Capa_1" xmlns="http://www.w3.org/2000/svg" xmlns:xlink="http://www.w3.org/1999/xlink" x="0px" y="0px"
	 viewBox="0 0 60 60" style="enable-background:new 0 0 60 60;" xml:space="preserve">
<g>
	<path d="M1,2h58c0.553,0,1-0.447,1-1s-0.447-1-1-1H1C0.448,0,0,0.447,0,1S0.448,2,1,2z"/>
	<path d="M59,58h-2V43H47v15h-1V43H36v15h-1V43H25v15h-1V43H14v15h-1V43H3v15H1c-0.552,0-1,0.447-1,1s0.448,1,1,1h2h10h1h10h1h10h1
		h10h1h10h2c0.553,0,1-0.447,1-1S59.553,58,59,58z"/>
	<path d="M17,12c0-0.553-0.448-1-1-1H8c-0.552,0-1,0.447-1,1s0.448,1,1,1h8C16.552,13,17,12.553,17,12z"/>
	<path d="M2.29,12.71C2.48,12.89,2.74,13,3,13c0.26,0,0.52-0.11,0.71-0.29C3.89,12.52,4,12.26,4,12c0-0.271-0.11-0.521-0.29-0.71
		c-0.38-0.37-1.05-0.37-1.42,0C2.11,11.47,2,11.729,2,12C2,12.27,2.11,12.52,2.29,12.71z"/>
	<path d="M3,8h3c0.552,0,1-0.447,1-1S6.552,6,6,6H3C2.448,6,2,6.447,2,7S2.448,8,3,8z"/>
	<path d="M16,8c0.552,0,1-0.447,1-1s-0.448-1-1-1h-2c-0.552,0-1,0.447-1,1s0.448,1,1,1H16z"/>
	<path d="M10.71,7.71C10.89,7.52,11,7.26,11,7s-0.11-0.521-0.29-0.71c-0.38-0.37-1.04-0.37-1.42,0C9.11,6.479,9,6.74,9,7
		s0.11,0.52,0.29,0.71C9.48,7.89,9.74,8,10,8C10.26,8,10.52,7.89,10.71,7.71z"/>
	<rect x="3" y="36" width="10" height="5"/>
	<rect x="14" y="26" width="10" height="15"/>
	<rect x="25" y="20" width="10" height="21"/>
	<rect x="36" y="31" width="10" height="10"/>
	<rect x="47" y="10" width="10" height="31"/>
</g>
<g>
</g>
<g>
</g>
<g>
</g>
<g>
</g>
<g>
</g>
<g>
</g>
<g>
</g>
<g>
</g>
<g>
</g>
<g>
</g>
<g>
</g>
<g>
</g>
<g>
</g>
<g>
</g>
<g>
</g>
</svg>
