<?xml version="1.0" encoding="iso-8859-1"?>
<!-- Generator: Adobe Illustrator 18.0.0, SVG Export Plug-In . SVG Version: 6.00 Build 0)  -->
<!DOCTYPE svg PUBLIC "-//W3C//DTD SVG 1.1//EN" "http://www.w3.org/Graphics/SVG/1.1/DTD/svg11.dtd">
<svg version="1.1" id="Capa_1" xmlns="http://www.w3.org/2000/svg" xmlns:xlink="http://www.w3.org/1999/xlink" x="0px" y="0px"
	 viewBox="0 0 60 60" style="enable-background:new 0 0 60 60;" xml:space="preserve">
<path d="M55,6.586V2.896C55,1.3,53.7,0,52.104,0H7.896C6.299,0,5,1.3,5,2.896v3.689l-5,5V15v2v0.5c0,0.169,0.01,0.335,0.025,0.5H0
	v25v2v10v2v3h6v-3h48v3h6v-3v-2V45v-2V18h-0.025C59.99,17.835,60,17.669,60,17.5V17v-2v-3.414L55,6.586z M4,58H2v-1h2V58z M4,43H2
	V21.739c0.579,0.479,1.259,0.837,2,1.048V43z M31,17v-2V2h6v5l1,5.099V15v2v0.5c0,1.93-1.57,3.5-3.5,3.5S31,19.43,31,17.5V17z
	 M12,17v-2v-1v-1.723l3-5V2h6v4.901l-0.98,4.902L20.005,15H20v2v0.5c0,1.93-1.57,3.5-3.5,3.5h-1c-1.93,0-3.5-1.57-3.5-3.5V17z M9,55
	H7V45h2V55z M13,55h-2V45h2V55z M17,55h-2V45h2V55z M17,30c-0.552,0-1,0.447-1,1v5.586L10.414,31l0.419-0.419
	c1.647-1.646,3.837-2.554,6.167-2.554s4.52,0.907,6.167,2.554L23.586,31L18,36.586V31C18,30.447,17.552,30,17,30z M21,55h-2V45h1h1
	V55z M25,55h-2V45h2V55z M29,55h-2V45h2V55z M33,55h-2V45h2V55z M37,55h-2V45h2V55z M41,55h-2V45h2V55z M39,43c-1.103,0-2-0.897-2-2
	s0.897-2,2-2s2,0.897,2,2S40.103,43,39,43z M45,55h-2V45h2V55z M45,43c-1.103,0-2-0.897-2-2s0.897-2,2-2s2,0.897,2,2
	S46.103,43,45,43z M49,55h-2V45h2V55z M53,55h-2V45h2V55z M54,43h-5.556C48.788,42.409,49,41.732,49,41
	c0-2.062-1.573-3.744-3.579-3.957C45.78,36.443,46,35.749,46,35c0-2.206-1.794-4-4-4s-4,1.794-4,4c0,0.749,0.22,1.443,0.579,2.043
	C36.574,37.256,35,38.938,35,41c0,0.732,0.212,1.409,0.556,2H20v-3h4c0.552,0,1-0.447,1-1s-0.448-1-1-1h-4h-0.586l7-7l-1.833-1.833
	c-2.025-2.024-4.717-3.14-7.581-3.14s-5.556,1.115-7.581,3.14L7.586,31l7.001,7H14h-4c-0.552,0-1,0.447-1,1s0.448,1,1,1h4v3H6V23
	h0.5c1.86,0,3.504-0.931,4.5-2.348C11.996,22.069,13.64,23,15.5,23h1c1.86,0,3.504-0.931,4.5-2.348C21.996,22.069,23.64,23,25.5,23
	s3.504-0.931,4.5-2.348C30.996,22.069,32.64,23,34.5,23s3.504-0.931,4.5-2.348C39.996,22.069,41.64,23,43.5,23h1
	c1.86,0,3.504-0.931,4.5-2.348C49.996,22.069,51.64,23,53.5,23H54V43z M58,58h-2v-1h2V58z M58,43h-2V22.787
	c0.741-0.211,1.421-0.569,2-1.048V43z M58,14v1v2v0.5c0,0.384-0.077,0.746-0.192,1.092l-0.026,0.073
	c-0.056,0.157-0.122,0.309-0.198,0.454c-0.001,0.001-0.001,0.002-0.002,0.003c-0.222,0.424-0.526,0.789-0.888,1.081
	c-0.015,0.012-0.029,0.024-0.043,0.036c-0.497,0.389-1.102,0.642-1.763,0.716L54.488,21H53.5c-1.93,0-3.5-1.57-3.5-3.5V17v-2v-1
	v-2.277l-3-5V2h5.104C52.598,2,53,2.402,53,2.896v4.518l5,5V14z"/>
<g>
</g>
<g>
</g>
<g>
</g>
<g>
</g>
<g>
</g>
<g>
</g>
<g>
</g>
<g>
</g>
<g>
</g>
<g>
</g>
<g>
</g>
<g>
</g>
<g>
</g>
<g>
</g>
<g>
</g>
</svg>
