<?xml version="1.0" encoding="iso-8859-1"?>
<!-- Generator: Adobe Illustrator 18.0.0, SVG Export Plug-In . SVG Version: 6.00 Build 0)  -->
<!DOCTYPE svg PUBLIC "-//W3C//DTD SVG 1.1//EN" "http://www.w3.org/Graphics/SVG/1.1/DTD/svg11.dtd">
<svg version="1.1" id="Capa_1" xmlns="http://www.w3.org/2000/svg" xmlns:xlink="http://www.w3.org/1999/xlink" x="0px" y="0px"
	 viewBox="0 0 60 60" style="enable-background:new 0 0 60 60;" xml:space="preserve">
<path d="M54.344,0h-8.688c-2.108,0-3.974,1.163-4.945,2.973C37.819,1.698,34.707,1,31.5,1c-1.021,0-2.026,0.076-3.015,0.21
	C27.453,1.072,26.472,1,25.5,1c-4.883,0-9.449,1.572-13.33,4.29c-0.001,0.001-0.003,0.002-0.004,0.003
	c-1.969,1.379-3.758,3.055-5.326,4.97c-0.047,0.042-0.082,0.093-0.12,0.143c-1.484,1.838-2.76,3.896-3.792,6.122
	c-0.027,0.05-0.051,0.1-0.07,0.155c-0.71,1.556-1.303,3.191-1.759,4.895c-0.045,0.096-0.065,0.201-0.078,0.311
	C0.361,24.465,0,27.185,0,30c0,4.403,0.871,8.577,2.422,12.319C2.436,42.361,2.45,42.4,2.47,42.439
	c0.928,2.214,2.097,4.273,3.466,6.136c0.037,0.051,0.067,0.105,0.113,0.148c1.389,1.864,2.982,3.524,4.738,4.94
	c0.051,0.057,0.113,0.099,0.176,0.143C15.09,57.076,20.1,59,25.5,59c0.972,0,1.953-0.072,2.985-0.21
	C29.474,58.924,30.479,59,31.5,59c3.207,0,6.319-0.698,9.211-1.973C41.682,58.837,43.549,60,45.656,60h8.688
	C57.463,60,60,57.462,60,54.344V5.656C60,2.538,57.463,0,54.344,0z M48,7.897v-1.5C48,6.178,48.179,6,48.397,6h3.205
	C51.821,6,52,6.178,52,6.397v6.352c-0.065-0.1-0.137-0.195-0.204-0.294c-0.074-0.111-0.151-0.219-0.227-0.328
	c-0.169-0.244-0.334-0.492-0.51-0.73c-0.159-0.216-0.326-0.421-0.489-0.631c-0.077-0.099-0.154-0.198-0.232-0.296
	c-0.1-0.125-0.199-0.251-0.301-0.374c-0.232-0.279-0.471-0.547-0.711-0.815c-0.087-0.096-0.17-0.197-0.258-0.292
	c-0.037-0.04-0.077-0.077-0.114-0.117c-0.26-0.278-0.526-0.548-0.796-0.813C48.104,8.006,48.054,7.95,48,7.897z M48.717,21.203
	c0.521-0.18,1.091,0.099,1.271,0.621c0.223,0.65,0.42,1.317,0.587,1.982c0.135,0.536-0.19,1.079-0.727,1.213
	c-0.082,0.02-0.163,0.03-0.244,0.03c-0.447,0-0.855-0.303-0.969-0.757c-0.153-0.61-0.335-1.222-0.54-1.819
	C47.916,21.951,48.194,21.382,48.717,21.203z M51.333,29.936V30c0,0.669-0.025,1.34-0.076,1.994
	c-0.041,0.524-0.479,0.923-0.996,0.923c-0.025,0-0.052-0.001-0.078-0.003c-0.551-0.042-0.963-0.523-0.92-1.074
	c0.047-0.603,0.07-1.222,0.07-1.839c0-0.552,0.447-1.032,1-1.032S51.333,29.384,51.333,29.936z M48.135,37.412
	c0.177-0.523,0.744-0.803,1.267-0.628c0.523,0.177,0.805,0.744,0.628,1.267c-0.22,0.652-0.47,1.301-0.743,1.93
	c-0.164,0.376-0.531,0.601-0.918,0.601c-0.133,0-0.269-0.027-0.398-0.083c-0.506-0.221-0.738-0.81-0.518-1.316
	C47.703,38.604,47.933,38.009,48.135,37.412z M46.964,17.666c-0.172,0.116-0.366,0.172-0.56,0.172c-0.32,0-0.636-0.154-0.829-0.439
	c-0.352-0.52-0.732-1.028-1.131-1.513c-0.351-0.426-0.289-1.057,0.137-1.408c0.428-0.35,1.057-0.29,1.408,0.137
	c0.438,0.532,0.855,1.091,1.242,1.662C47.541,16.734,47.421,17.355,46.964,17.666z M44.521,44.02
	c0.348-0.427,0.978-0.493,1.406-0.145s0.493,0.979,0.145,1.407c-0.438,0.537-0.903,1.058-1.386,1.546
	c-0.196,0.198-0.454,0.297-0.712,0.297c-0.254,0-0.508-0.096-0.702-0.289c-0.394-0.388-0.397-1.021-0.01-1.414
	C43.701,44.98,44.124,44.508,44.521,44.02z M48,52.103c0.054-0.052,0.104-0.109,0.158-0.162c0.27-0.265,0.535-0.535,0.796-0.813
	c0.037-0.04,0.077-0.077,0.114-0.117c0.088-0.095,0.171-0.195,0.258-0.292c0.24-0.268,0.48-0.536,0.711-0.815
	c0.102-0.123,0.201-0.249,0.301-0.374c0.078-0.098,0.155-0.197,0.232-0.296c0.164-0.21,0.331-0.415,0.489-0.631
	c0.176-0.238,0.341-0.486,0.51-0.73c0.076-0.109,0.153-0.217,0.227-0.328c0.066-0.099,0.138-0.194,0.204-0.294v6.352
	C52,53.822,51.821,54,51.603,54h-3.205C48.179,54,48,53.822,48,53.603V52.103z M38.203,9.849c0.248-0.494,0.847-0.692,1.343-0.443
	c0.617,0.311,1.227,0.663,1.812,1.044c0.463,0.302,0.594,0.921,0.292,1.384c-0.192,0.294-0.513,0.454-0.839,0.454
	c-0.188,0-0.377-0.052-0.545-0.163c-0.523-0.341-1.068-0.655-1.62-0.933C38.152,10.943,37.954,10.342,38.203,9.849z M4.928,43h3.788
	c0.157,0.355,0.319,0.706,0.488,1.052c0.072,0.148,0.148,0.293,0.222,0.439c0.206,0.404,0.42,0.801,0.642,1.192
	c0.081,0.144,0.16,0.289,0.243,0.431c0.177,0.3,0.362,0.593,0.548,0.885H7.273C6.391,45.754,5.609,44.415,4.928,43z M4.468,18h3.827
	c-0.176,0.438-0.342,0.881-0.499,1.329c-0.043,0.123-0.086,0.245-0.128,0.368C7.524,20.127,7.39,20.561,7.263,21H3.356
	C3.675,19.969,4.047,18.969,4.468,18z M8.025,12h3.503c-0.122,0.175-0.245,0.348-0.363,0.526c-0.296,0.444-0.581,0.896-0.854,1.359
	c-0.083,0.142-0.162,0.287-0.243,0.431c-0.222,0.391-0.436,0.789-0.642,1.192c-0.074,0.146-0.15,0.291-0.222,0.439
	C9.195,15.965,9.186,15.982,9.177,16H5.429C6.186,14.573,7.058,13.238,8.025,12z M24.282,11.228
	c-0.146,0.074-0.301,0.109-0.453,0.109c-0.364,0-0.715-0.199-0.892-0.546c-0.251-0.492-0.056-1.094,0.437-1.345
	c0.625-0.319,1.27-0.603,1.916-0.845c0.522-0.194,1.094,0.069,1.287,0.586s-0.069,1.093-0.586,1.287
	C25.415,10.69,24.84,10.943,24.282,11.228z M24.758,50.135c-0.176,0.347-0.527,0.547-0.893,0.547c-0.152,0-0.307-0.035-0.451-0.108
	c-0.618-0.313-1.227-0.666-1.81-1.048c-0.462-0.303-0.591-0.922-0.289-1.384c0.304-0.461,0.923-0.591,1.385-0.289
	c0.521,0.342,1.066,0.657,1.618,0.938C24.812,49.041,25.008,49.643,24.758,50.135z M13.144,34.94
	c0.534-0.135,1.078,0.193,1.212,0.729c0.152,0.611,0.332,1.224,0.536,1.82c0.179,0.522-0.101,1.091-0.623,1.27
	c-0.107,0.037-0.216,0.054-0.323,0.054c-0.416,0-0.805-0.262-0.946-0.677c-0.222-0.649-0.419-1.317-0.585-1.983
	C12.281,35.616,12.607,35.073,13.144,34.94z M11.667,30.021V30c0-0.675,0.027-1.361,0.08-2.037c0.044-0.55,0.535-0.958,1.075-0.918
	c0.551,0.043,0.962,0.525,0.919,1.076c-0.049,0.624-0.074,1.257-0.074,1.88c0,0.552-0.447,1.011-1,1.011
	S11.667,30.574,11.667,30.021z M14.879,22.551c-0.142,0.417-0.53,0.679-0.947,0.679c-0.106,0-0.215-0.018-0.321-0.053
	c-0.522-0.178-0.803-0.745-0.626-1.269c0.222-0.654,0.474-1.303,0.748-1.929c0.222-0.505,0.809-0.739,1.317-0.514
	c0.506,0.222,0.736,0.812,0.515,1.317C15.313,21.356,15.082,21.951,14.879,22.551z M16.014,42.298
	c0.459-0.309,1.079-0.189,1.389,0.269c0.357,0.528,0.737,1.039,1.129,1.516c0.35,0.427,0.288,1.057-0.14,1.408
	c-0.186,0.152-0.41,0.227-0.633,0.227c-0.29,0-0.576-0.125-0.774-0.366c-0.431-0.525-0.847-1.085-1.238-1.664
	C15.437,43.229,15.557,42.608,16.014,42.298z M18.505,15.949c-0.197,0.242-0.485,0.367-0.775,0.367
	c-0.222,0-0.446-0.074-0.632-0.226c-0.428-0.35-0.491-0.979-0.142-1.407c0.439-0.538,0.907-1.058,1.39-1.544
	c0.39-0.393,1.022-0.394,1.414-0.006c0.393,0.389,0.395,1.022,0.006,1.414C19.328,14.989,18.904,15.46,18.505,15.949z M2,30
	c0-0.674,0.036-1.338,0.078-2h3.987c-0.001,0.016-0.001,0.032-0.002,0.048C6.026,28.694,6,29.343,6,30c0,0.335,0.012,0.667,0.022,1
	H2.039C2.028,30.666,2,30.337,2,30z M6.136,33c0.038,0.421,0.087,0.839,0.141,1.255c0.004,0.03,0.006,0.061,0.01,0.092
	C6.361,34.903,6.451,35.454,6.552,36H2.608c-0.195-0.982-0.349-1.981-0.448-3H6.136z M6.756,23
	c-0.026,0.119-0.048,0.239-0.073,0.358c-0.027,0.131-0.054,0.261-0.08,0.392c-0.122,0.628-0.231,1.261-0.316,1.903
	c-0.004,0.03-0.006,0.061-0.01,0.092C6.266,25.83,6.259,25.915,6.248,26H2.279c0.132-1.018,0.299-2.022,0.528-3H6.756z M6.995,38
	c0.031,0.123,0.06,0.247,0.093,0.37c0.011,0.043,0.021,0.087,0.033,0.13c0.165,0.61,0.35,1.21,0.549,1.802
	c0.041,0.123,0.085,0.245,0.128,0.368c0.038,0.11,0.075,0.22,0.115,0.329H4.058c-0.379-0.971-0.705-1.973-0.983-3H6.995z
	 M28.53,51.288c0.065-0.548,0.547-0.931,1.112-0.875c0.61,0.073,1.236,0.11,1.857,0.11c0.553,0,1.042,0.448,1.042,1
	s-0.405,1-0.958,1H31.5c-0.7,0-1.405-0.042-2.096-0.124C28.856,52.334,28.465,51.836,28.53,51.288z M33.436,9.588
	c-0.038,0-0.077-0.002-0.117-0.007c-0.6-0.07-1.212-0.105-1.818-0.105c-0.553,0-1.021-0.447-1.021-1c0-0.553,0.427-1,0.979-1v1
	l0.013-1c0.705,0.019,1.403,0.04,2.08,0.119c0.548,0.064,0.941,0.561,0.877,1.109C34.368,9.213,33.937,9.588,33.436,9.588z
	 M20.919,3.625c-0.318,0.166-0.632,0.338-0.943,0.518c-0.189,0.109-0.38,0.216-0.566,0.33C19.136,4.642,18.868,4.82,18.6,5h-1.926
	c1.462-0.684,2.989-1.224,4.579-1.559C21.14,3.498,21.032,3.566,20.919,3.625z M13.231,7h2.763c-0.248,0.216-0.495,0.434-0.735,0.66
	c-0.203,0.192-0.4,0.391-0.598,0.589c-0.196,0.197-0.39,0.396-0.58,0.6c-0.186,0.199-0.373,0.396-0.554,0.6
	c-0.159,0.18-0.312,0.366-0.466,0.551H9.759C10.833,8.883,11.992,7.876,13.231,7z M8.824,49h3.432
	c0.113,0.148,0.225,0.297,0.341,0.442c0.302,0.379,0.612,0.749,0.931,1.109c0.181,0.205,0.368,0.402,0.554,0.6
	c0.191,0.203,0.384,0.403,0.58,0.6c0.081,0.082,0.159,0.169,0.241,0.249h-3.008C10.797,51.101,9.77,50.097,8.824,49z M21.253,56.559
	c-2.293-0.483-4.46-1.369-6.47-2.559h2.419c0.125,0.096,0.253,0.187,0.379,0.281c0.213,0.158,0.424,0.317,0.641,0.468
	c0.389,0.271,0.785,0.531,1.187,0.778c0.187,0.115,0.377,0.221,0.566,0.33c0.311,0.18,0.625,0.353,0.943,0.518
	C21.032,56.434,21.14,56.502,21.253,56.559z M39.666,50.533c-0.622,0.319-1.267,0.605-1.915,0.849
	c-0.116,0.044-0.235,0.065-0.353,0.065c-0.404,0-0.785-0.247-0.936-0.648c-0.195-0.517,0.066-1.094,0.583-1.288
	c0.577-0.218,1.151-0.473,1.706-0.757c0.493-0.254,1.095-0.058,1.347,0.433S40.157,50.281,39.666,50.533z M58,54.344
	C58,56.36,56.359,58,54.344,58h-8.688c-1.325,0-2.51-0.712-3.149-1.835c0.092-0.05,0.178-0.111,0.269-0.162
	c0.364-0.204,0.721-0.424,1.076-0.648c0.175-0.111,0.353-0.214,0.526-0.329c0.561-0.374,1.111-0.769,1.646-1.191
	C46.143,55.047,47.155,56,48.397,56h3.205C52.925,56,54,54.924,54,53.603v-9.944v-4.628V20.969v-4.628V6.397
	C54,5.076,52.925,4,51.603,4h-3.205c-1.243,0-2.255,0.953-2.374,2.165c-0.535-0.422-1.084-0.817-1.646-1.191
	c-0.172-0.115-0.351-0.218-0.526-0.329c-0.355-0.224-0.712-0.443-1.076-0.648c-0.091-0.051-0.177-0.112-0.269-0.162
	C43.146,2.712,44.331,2,45.656,2h8.688C56.359,2,58,3.64,58,5.656V54.344z"/>
<g>
</g>
<g>
</g>
<g>
</g>
<g>
</g>
<g>
</g>
<g>
</g>
<g>
</g>
<g>
</g>
<g>
</g>
<g>
</g>
<g>
</g>
<g>
</g>
<g>
</g>
<g>
</g>
<g>
</g>
</svg>
