<?xml version="1.0" encoding="iso-8859-1"?>
<!-- Generator: Adobe Illustrator 18.0.0, SVG Export Plug-In . SVG Version: 6.00 Build 0)  -->
<!DOCTYPE svg PUBLIC "-//W3C//DTD SVG 1.1//EN" "http://www.w3.org/Graphics/SVG/1.1/DTD/svg11.dtd">
<svg version="1.1" id="Capa_1" xmlns="http://www.w3.org/2000/svg" xmlns:xlink="http://www.w3.org/1999/xlink" x="0px" y="0px"
	 viewBox="0 0 59.992 59.992" style="enable-background:new 0 0 59.992 59.992;" xml:space="preserve">
<g>
	<path d="M36.992,47.996v-5h-6V18.913c0.023-0.004,0.044-0.013,0.067-0.018c0.304-0.055,0.6-0.133,0.887-0.232
		c0.053-0.018,0.104-0.037,0.156-0.057c0.286-0.108,0.563-0.234,0.826-0.382c0.038-0.021,0.074-0.045,0.111-0.067
		c0.272-0.161,0.534-0.338,0.776-0.539c0.007-0.005,0.012-0.012,0.019-0.017c0.241-0.202,0.463-0.424,0.67-0.661
		c0.023-0.027,0.048-0.051,0.071-0.078c0.196-0.233,0.372-0.482,0.532-0.743c0.027-0.044,0.054-0.087,0.08-0.132
		c0.151-0.26,0.281-0.533,0.392-0.816c0.019-0.049,0.037-0.099,0.055-0.149c0.105-0.291,0.191-0.59,0.25-0.899
		c0.008-0.039,0.011-0.08,0.018-0.12c0.056-0.328,0.091-0.663,0.091-1.007c0-0.315-0.032-0.622-0.079-0.924l17.079-7.541v2.217
		l-4.191,7.258c-0.184,0.32-0.326,0.652-0.447,0.989h11.273c-0.122-0.337-0.263-0.67-0.447-0.989l-4.188-7.254V2.996
		c0-0.003-0.001-0.005-0.001-0.007c0-0.068-0.026-0.134-0.041-0.202c-0.014-0.063-0.016-0.13-0.041-0.187
		c-0.001-0.003-0.001-0.005-0.002-0.008c-0.02-0.044-0.056-0.074-0.081-0.114c-0.043-0.069-0.081-0.14-0.138-0.196
		c-0.048-0.047-0.108-0.074-0.163-0.11c-0.053-0.034-0.099-0.076-0.158-0.1c-0.075-0.03-0.156-0.036-0.237-0.048
		c-0.047-0.007-0.089-0.028-0.137-0.028c-0.003,0-0.005,0.002-0.008,0.002c-0.058,0-0.115,0.024-0.173,0.035
		c-0.073,0.014-0.149,0.018-0.215,0.047C53.593,2.08,53.59,2.08,53.587,2.081L35.28,10.165c-0.029-0.055-0.063-0.106-0.094-0.16
		c-0.026-0.045-0.053-0.088-0.08-0.132c-0.16-0.261-0.335-0.51-0.532-0.743c-0.023-0.027-0.048-0.051-0.071-0.078
		c-0.207-0.236-0.429-0.459-0.67-0.661c-0.007-0.005-0.012-0.012-0.019-0.017c-0.242-0.201-0.504-0.377-0.775-0.539
		c-0.038-0.022-0.074-0.047-0.112-0.068c-0.263-0.148-0.54-0.274-0.825-0.382c-0.052-0.02-0.103-0.039-0.156-0.057
		c-0.287-0.099-0.582-0.178-0.887-0.232c-0.023-0.004-0.044-0.014-0.067-0.018V3.996c0-0.553-0.447-1-1-1s-1,0.447-1,1v3.09
		c-2.833,0.478-5,2.942-5,5.91c0,0.566,0.084,1.111,0.231,1.63L5.621,22.067c-0.003,0.001-0.005,0.004-0.008,0.005
		c-0.097,0.04-0.18,0.103-0.259,0.169c-0.021,0.017-0.049,0.027-0.068,0.046c-0.055,0.055-0.09,0.127-0.132,0.194
		c-0.026,0.042-0.063,0.077-0.083,0.123c-0.013,0.029-0.011,0.064-0.021,0.095c-0.03,0.094-0.057,0.189-0.058,0.289
		c0,0.003-0.002,0.006-0.002,0.009v3.959l-4.189,7.257c-0.147,0.255-0.27,0.518-0.378,0.784h11.134
		c-0.107-0.267-0.23-0.529-0.378-0.784l-4.189-7.257v-3.282l18.092-7.237c0.277,0.393,0.6,0.751,0.961,1.067
		c0.003,0.003,0.006,0.005,0.009,0.008c0.346,0.302,0.724,0.567,1.132,0.784c0.051,0.027,0.105,0.05,0.157,0.076
		c0.142,0.07,0.285,0.136,0.433,0.195c0.077,0.031,0.154,0.058,0.232,0.085c0.131,0.046,0.264,0.088,0.4,0.125
		c0.082,0.022,0.163,0.044,0.246,0.063c0.112,0.026,0.225,0.046,0.339,0.066v24.09h-6v5c-4.963,0-9,4.037-9,9v1h32v-1
		C45.992,52.033,41.955,47.996,36.992,47.996z M29.992,8.996c1.644,0,3.056,0.997,3.671,2.418l0.122,0.386
		c0.065,0.207,0.111,0.396,0.145,0.58c0.032,0.202,0.062,0.406,0.062,0.617c0,2.206-1.794,4-4,4c-0.245,0-0.482-0.03-0.715-0.072
		c-0.066-0.012-0.132-0.027-0.197-0.042c-0.18-0.042-0.356-0.098-0.526-0.164c-0.052-0.02-0.105-0.035-0.156-0.057
		c-0.195-0.085-0.38-0.189-0.558-0.303c-0.086-0.056-0.167-0.119-0.248-0.181c-0.085-0.064-0.166-0.132-0.246-0.203
		c-0.099-0.09-0.198-0.18-0.289-0.28c-0.017-0.019-0.032-0.04-0.048-0.059c-0.231-0.265-0.433-0.561-0.594-0.889l-0.131-0.267
		c-0.184-0.459-0.292-0.958-0.292-1.482C25.992,10.79,27.786,8.996,29.992,8.996z M24.992,44.996h10v3h-10V44.996z"/>
	<path d="M47.989,16.996c-0.001,1.032,0.269,2.064,0.812,3.004c1.083,1.876,3.023,2.996,5.189,2.996s4.106-1.12,5.189-2.996
		c0.543-0.94,0.813-1.972,0.812-3.004H47.989z"/>
	<path d="M0.802,40.205c1.083,1.876,3.023,2.996,5.189,2.996s4.106-1.12,5.189-2.996c0.579-1.003,0.838-2.109,0.798-3.209H0.004
		C-0.036,38.095,0.224,39.202,0.802,40.205z"/>
</g>
<g>
</g>
<g>
</g>
<g>
</g>
<g>
</g>
<g>
</g>
<g>
</g>
<g>
</g>
<g>
</g>
<g>
</g>
<g>
</g>
<g>
</g>
<g>
</g>
<g>
</g>
<g>
</g>
<g>
</g>
</svg>
