<?xml version="1.0" encoding="iso-8859-1"?>
<!-- Generator: Adobe Illustrator 18.0.0, SVG Export Plug-In . SVG Version: 6.00 Build 0)  -->
<!DOCTYPE svg PUBLIC "-//W3C//DTD SVG 1.1//EN" "http://www.w3.org/Graphics/SVG/1.1/DTD/svg11.dtd">
<svg version="1.1" id="Capa_1" xmlns="http://www.w3.org/2000/svg" xmlns:xlink="http://www.w3.org/1999/xlink" x="0px" y="0px"
	 viewBox="0 0 60.003 60.003" style="enable-background:new 0 0 60.003 60.003;" xml:space="preserve">
<g>
	<path d="M50.052,20.457V7.589c0-2.861-2.327-5.188-5.187-5.188c-0.011,0-0.021,0.002-0.032,0.002c-0.007,0-0.013-0.002-0.02-0.002
		c-0.854,0-1.676,0.208-2.444,0.619L40,4.29v0.026l-17.213,9.222c-1.245,0.667-2.138,1.797-2.523,3.111L7.236,17.444
		c-1.646,0.117-2.948,1.406-3.145,3.008H3.211C1.44,20.452,0,21.893,0,23.663v5.578c0,1.771,1.44,3.211,3.211,3.211h0.885
		c0.217,1.775,1.66,3.203,3.492,3.334l0.464,0.028v17.288c0,2.481,2.019,4.5,4.5,4.5s4.5-2.019,4.5-4.5V36.361l3.238,0.197
		c0.41,1.327,1.337,2.451,2.628,3.095L40,48.195v0.026l2.499,1.25c0.733,0.366,1.513,0.553,2.316,0.553
		c0.006,0,0.013-0.002,0.019-0.002c0.011,0,0.022,0.002,0.033,0.002c2.859,0,5.185-2.328,5.185-5.188V32.447
		C52.784,32.418,55,30.191,55,27.452v-2C55,22.713,52.784,20.486,50.052,20.457z M13,52.452h-3c-0.553,0-1-0.447-1-1s0.447-1,1-1h3
		c0.553,0,1,0.447,1,1S13.553,52.452,13,52.452z M13,48.452h-3c-0.553,0-1-0.447-1-1s0.447-1,1-1h3c0.553,0,1,0.447,1,1
		S13.553,48.452,13,48.452z M13,44.452h-3c-0.553,0-1-0.447-1-1s0.447-1,1-1h3c0.553,0,1,0.447,1,1S13.553,44.452,13,44.452z
		 M13,40.452h-3c-0.553,0-1-0.447-1-1s0.447-1,1-1h3c0.553,0,1,0.447,1,1S13.553,40.452,13,40.452z M6.052,31.999V20.864
		c0-0.746,0.583-1.372,1.316-1.425l12.684-0.774V34.54L7.72,33.791C6.784,33.724,6.052,32.937,6.052,31.999z M31.443,16.349
		l-4.423,2.187C26.402,18.866,26,19.538,26,20.272v2.18c0,0.553-0.447,1-1,1s-1-0.447-1-1v-2.18c0-1.474,0.807-2.82,2.105-3.516
		l4.451-2.201c0.498-0.246,1.095-0.041,1.34,0.453C32.142,15.504,31.938,16.104,31.443,16.349z M53,27.452
		c0,1.637-1.318,2.966-2.948,2.995v-7.99C51.682,22.486,53,23.816,53,25.452V27.452z"/>
	<path d="M57.817,19.876c-0.317-0.451-0.942-0.559-1.394-0.241c-0.451,0.318-0.56,0.941-0.241,1.394
		c1.156,1.641,1.768,3.474,1.817,5.45c0.064,2.493-1.246,4.601-1.813,5.391c-0.322,0.449-0.219,1.074,0.229,1.396
		c0.177,0.127,0.381,0.188,0.582,0.188c0.312,0,0.618-0.145,0.813-0.417c0.685-0.955,2.268-3.51,2.188-6.608
		C59.939,24.05,59.205,21.846,57.817,19.876z"/>
</g>
<g>
</g>
<g>
</g>
<g>
</g>
<g>
</g>
<g>
</g>
<g>
</g>
<g>
</g>
<g>
</g>
<g>
</g>
<g>
</g>
<g>
</g>
<g>
</g>
<g>
</g>
<g>
</g>
<g>
</g>
</svg>
