<?xml version="1.0" encoding="iso-8859-1"?>
<!-- Generator: Adobe Illustrator 18.0.0, SVG Export Plug-In . SVG Version: 6.00 Build 0)  -->
<!DOCTYPE svg PUBLIC "-//W3C//DTD SVG 1.1//EN" "http://www.w3.org/Graphics/SVG/1.1/DTD/svg11.dtd">
<svg version="1.1" id="Capa_1" xmlns="http://www.w3.org/2000/svg" xmlns:xlink="http://www.w3.org/1999/xlink" x="0px" y="0px"
	 viewBox="0 0 58 58" style="enable-background:new 0 0 58 58;" xml:space="preserve">
<g>
	<path d="M0,4.5v32v2v1v2v1v2v1v2v1v2v3h58v-3v-2v-1v-2v-1v-2v-1v-2v-1v-2v-32H0z M56,51.5H2v-1h54V51.5z M56,48.5H2v-1h54V48.5z
		 M56,45.5H2v-1h54V45.5z M56,42.5H2v-1h54V42.5z M56,39.5H2v-1h54V39.5z M2,36.5v-30h54v30H2z"/>
	<path d="M47.021,32.412C47.01,32.276,47,32.139,47,32c0-2.481,2.019-4.5,4.5-4.5c0.138,0,0.273,0.009,0.408,0.021l1.092,0.1V15.379
		l-1.092,0.1C51.773,15.491,51.638,15.5,51.5,15.5c-2.481,0-4.5-2.019-4.5-4.5c0-0.139,0.01-0.276,0.021-0.412L47.118,9.5H36.174
		c-2.101-1.261-4.55-2-7.174-2s-5.073,0.739-7.174,2H10.882l0.097,1.088C10.99,10.724,11,10.861,11,11c0,2.481-2.019,4.5-4.5,4.5
		c-0.138,0-0.273-0.009-0.408-0.021L5,15.379v12.242l1.092-0.1C6.227,27.509,6.362,27.5,6.5,27.5c2.481,0,4.5,2.019,4.5,4.5
		c0,0.139-0.01,0.276-0.021,0.412L10.882,33.5h10.944c2.101,1.261,4.55,2,7.174,2s5.073-0.739,7.174-2h10.944L47.021,32.412z
		 M19.213,31.5h-6.231c-0.244-3.187-2.795-5.737-5.981-5.981v-8.038c3.187-0.244,5.737-2.794,5.981-5.981h6.231
		c-0.015,0.015-0.028,0.031-0.043,0.046c-0.173,0.17-0.332,0.353-0.495,0.533c-0.154,0.168-0.314,0.33-0.459,0.505
		c-0.061,0.074-0.114,0.153-0.173,0.228c-1.631,2.046-2.667,4.512-2.955,7.159c-0.004,0.034-0.012,0.067-0.015,0.101
		C15.025,20.543,15,21.019,15,21.5s0.025,0.957,0.072,1.428c0.003,0.034,0.012,0.067,0.015,0.101
		c0.288,2.647,1.323,5.114,2.955,7.159c0.059,0.075,0.112,0.155,0.173,0.228c0.145,0.174,0.305,0.337,0.459,0.505
		c0.164,0.179,0.323,0.362,0.495,0.533C19.185,31.469,19.198,31.485,19.213,31.5z M24.204,32.646l-1.578-0.993
		c-1.028-0.647-1.919-1.442-2.688-2.327l4.464-4.068c0.386-0.352,0.604-0.786,0.598-1.191c-0.002-0.115-0.017-0.227-0.044-0.333
		c-0.067-0.066-0.156-0.136-0.253-0.217C24.108,23.013,23,22.073,23,20.5c0-1.169,0.341-2.301,0.975-3.271
		c-0.815-1.174-1.187-3.149-0.935-4.01l0.12-0.411l0.381-0.196c0.078-0.041,1.952-0.995,4.405-0.995
		c2.161,0,4.081,0.716,5.709,2.127c0.379,0.371,3.271,3.315,2.786,5.85c-0.128,0.669-0.54,1.567-1.752,2.195
		c-0.193,0.288-0.512,0.644-1.014,1.189c-0.205,0.223-0.502,0.545-0.62,0.697c-0.012,0.044-0.022,0.089-0.029,0.134
		c-0.088,0.499,0.143,1.064,0.601,1.481l4.436,4.036c-0.769,0.886-1.66,1.68-2.688,2.328l-1.578,0.993
		C32.275,33.205,30.662,33.5,29,33.5S25.725,33.205,24.204,32.646z M45.019,31.5h-6.231c0.015-0.015,0.028-0.031,0.043-0.046
		c0.173-0.17,0.332-0.353,0.495-0.533c0.154-0.168,0.314-0.33,0.459-0.505c0.061-0.074,0.114-0.153,0.173-0.228
		c1.631-2.046,2.667-4.512,2.955-7.159c0.004-0.034,0.012-0.067,0.015-0.101C42.975,22.457,43,21.981,43,21.5
		s-0.025-0.957-0.072-1.428c-0.003-0.034-0.012-0.067-0.015-0.101c-0.288-2.647-1.323-5.114-2.955-7.159
		c-0.059-0.075-0.112-0.155-0.173-0.228c-0.145-0.174-0.305-0.337-0.459-0.505c-0.164-0.179-0.323-0.362-0.495-0.533
		c-0.015-0.015-0.028-0.031-0.043-0.046h6.231c0.244,3.187,2.795,5.737,5.981,5.981v8.038C47.813,25.763,45.263,28.313,45.019,31.5z
		"/>
	<path d="M6.5,14.5c1.93,0,3.5-1.57,3.5-3.5S8.43,7.5,6.5,7.5S3,9.07,3,11S4.57,14.5,6.5,14.5z"/>
	<path d="M51.5,7.5C49.57,7.5,48,9.07,48,11s1.57,3.5,3.5,3.5S55,12.93,55,11S53.43,7.5,51.5,7.5z"/>
	<path d="M6.5,28.5C4.57,28.5,3,30.07,3,32s1.57,3.5,3.5,3.5S10,33.93,10,32S8.43,28.5,6.5,28.5z"/>
	<path d="M51.5,28.5c-1.93,0-3.5,1.57-3.5,3.5s1.57,3.5,3.5,3.5S55,33.93,55,32S53.43,28.5,51.5,28.5z"/>
</g>
<g>
</g>
<g>
</g>
<g>
</g>
<g>
</g>
<g>
</g>
<g>
</g>
<g>
</g>
<g>
</g>
<g>
</g>
<g>
</g>
<g>
</g>
<g>
</g>
<g>
</g>
<g>
</g>
<g>
</g>
</svg>
