<?xml version="1.0" encoding="iso-8859-1"?>
<!-- Generator: Adobe Illustrator 18.0.0, SVG Export Plug-In . SVG Version: 6.00 Build 0)  -->
<!DOCTYPE svg PUBLIC "-//W3C//DTD SVG 1.1//EN" "http://www.w3.org/Graphics/SVG/1.1/DTD/svg11.dtd">
<svg version="1.1" id="Capa_1" xmlns="http://www.w3.org/2000/svg" xmlns:xlink="http://www.w3.org/1999/xlink" x="0px" y="0px"
	 viewBox="0 0 60 60" style="enable-background:new 0 0 60 60;" xml:space="preserve">
<g>
	<path d="M31,0.013v15.025c7.805,0.518,14,7.015,14,14.949c0,3.776-1.413,7.221-3.725,9.861l10.618,10.618
		C56.916,45.101,60,37.899,60,29.987C60,13.781,47.08,0.543,31,0.013z"/>
	<path d="M30,44.987c-3.776,0-7.221-1.413-9.861-3.725L9.521,51.881c5.366,5.022,12.567,8.107,20.479,8.107
		s15.114-3.084,20.479-8.107L39.861,41.262C37.221,43.574,33.776,44.987,30,44.987z M30,55.987c-5.209,0-10.231-1.553-14.495-4.434
		l5.081-5.081c2.854,1.638,6.095,2.515,9.414,2.515s6.56-0.877,9.414-2.515l5.081,5.081C40.231,54.434,35.209,55.987,30,55.987z"/>
	<path d="M15,29.987c0-7.934,6.195-14.431,14-14.949V0.013C12.92,0.543,0,13.781,0,29.987c0,7.912,3.084,15.114,8.107,20.479
		l10.618-10.618C16.413,37.209,15,33.764,15,29.987z"/>
</g>
<g>
</g>
<g>
</g>
<g>
</g>
<g>
</g>
<g>
</g>
<g>
</g>
<g>
</g>
<g>
</g>
<g>
</g>
<g>
</g>
<g>
</g>
<g>
</g>
<g>
</g>
<g>
</g>
<g>
</g>
</svg>
