<?xml version="1.0" encoding="iso-8859-1"?>
<!-- Generator: Adobe Illustrator 18.0.0, SVG Export Plug-In . SVG Version: 6.00 Build 0)  -->
<!DOCTYPE svg PUBLIC "-//W3C//DTD SVG 1.1//EN" "http://www.w3.org/Graphics/SVG/1.1/DTD/svg11.dtd">
<svg version="1.1" id="Capa_1" xmlns="http://www.w3.org/2000/svg" xmlns:xlink="http://www.w3.org/1999/xlink" x="0px" y="0px"
	 viewBox="0 0 59 59" style="enable-background:new 0 0 59 59;" xml:space="preserve">
<g>
	<path d="M27.5,39c-0.825,0-1.5,0.675-1.5,1.5s0.675,1.5,1.5,1.5s1.5-0.675,1.5-1.5S28.325,39,27.5,39z"/>
	<path d="M32.5,42c0.825,0,1.5-0.675,1.5-1.5S33.325,39,32.5,39S31,39.675,31,40.5S31.675,42,32.5,42z"/>
	<path d="M55,30c0-4.434-0.927-8.673-2.742-12.612l0.482-3.507l-2.038,0.2l-0.007-0.014l-0.002,0.014l-0.224,0.022
		c-2.735-4.26-6.736-6.95-12.186-8.21C36.861,2.439,33.462,0,29.5,0s-7.361,2.439-8.784,5.893c-5.45,1.261-9.451,3.951-12.186,8.21
		l-0.224-0.022l-0.002-0.014l-0.006,0.014l-2.039-0.2l0.482,3.507C4.927,21.327,4,25.566,4,30c0,8.253,3.279,15.997,9,21.335v4.651
		C13,57.648,14.352,59,16.014,59h7.664C24.407,59,25,58.407,25,57.678v-0.125C26.492,57.846,28.001,58,29.5,58
		s3.008-0.154,4.5-0.447v0.139C34,58.413,34.587,59,35.309,59h7.5C44.568,59,46,57.568,46,55.809v-4.473
		C51.721,45.997,55,38.253,55,30z M21,41c0-4.963,4.038-9,9-9s9,4.037,9,9s-4.038,9-9,9S21,45.963,21,41z M23,27.5
		c0-0.825,0.675-1.5,1.5-1.5s1.5,0.675,1.5,1.5S25.325,29,24.5,29S23,28.325,23,27.5z M34,27.5c0-0.825,0.675-1.5,1.5-1.5
		s1.5,0.675,1.5,1.5S36.325,29,35.5,29S34,28.325,34,27.5z M20.107,8.094c-0.006,0.039-0.003,0.078-0.009,0.117
		C20.04,8.633,20,9.062,20,9.5c0,0.756,0.095,1.512,0.279,2.255c-0.998,0.598-1.921,1.294-2.732,2.108
		c-0.39,0.392-0.389,1.024,0.002,1.414c0.391,0.391,1.024,0.39,1.415-0.002c0.83-0.833,1.797-1.528,2.859-2.099l0.101-0.053
		c0.239-0.125,0.458-0.229,0.676-0.331c0.166-0.075,0.332-0.15,0.502-0.219c0.138-0.057,0.277-0.119,0.412-0.169
		c0.273-0.101,0.556-0.187,0.838-0.272c0.387-0.116,0.783-0.218,1.189-0.304c0.105-0.023,0.207-0.049,0.312-0.07
		c0.336-0.064,0.681-0.115,1.03-0.159c0.07-0.009,0.139-0.019,0.209-0.027c0.349-0.04,0.705-0.067,1.067-0.087
		c0.248-0.013,0.494-0.03,0.746-0.032c0.059-0.002,0.117-0.005,0.176-0.006c0.489,0,0.975,0.024,1.456,0.064
		c0.566,0.047,1.126,0.121,1.678,0.223c0.005,0.001,0.01,0.002,0.015,0.003c0.548,0.102,1.088,0.232,1.615,0.386
		c0.037,0.011,0.073,0.024,0.11,0.035c0.503,0.151,0.996,0.323,1.474,0.52c0.024,0.01,0.048,0.021,0.072,0.031
		c0.489,0.205,0.963,0.432,1.418,0.683c0.122,0.067,0.248,0.131,0.367,0.202l0.22,0.122c0.775,0.48,1.477,1.028,2.087,1.638
		c0.195,0.195,0.451,0.293,0.707,0.293s0.512-0.098,0.707-0.293c0.391-0.391,0.391-1.023,0-1.414
		c-0.697-0.697-1.497-1.324-2.374-1.874C38.877,11.223,39,10.364,39,9.5c0-0.438-0.04-0.867-0.098-1.29
		c-0.005-0.039-0.003-0.078-0.009-0.117c4.033,1.13,7.11,3.19,9.342,6.259c-0.048,0.008-0.093,0.02-0.141,0.028
		c-0.14,0.024-0.275,0.055-0.412,0.083c-0.221,0.045-0.441,0.092-0.655,0.146c-0.142,0.036-0.282,0.076-0.421,0.115
		c-0.203,0.057-0.404,0.117-0.602,0.181c-0.138,0.045-0.275,0.092-0.412,0.141c-0.194,0.069-0.387,0.141-0.577,0.216
		c-0.132,0.052-0.263,0.104-0.393,0.159c-0.194,0.081-0.386,0.166-0.577,0.252c-0.121,0.055-0.242,0.109-0.362,0.165
		c-0.204,0.096-0.407,0.196-0.609,0.296c-0.104,0.052-0.208,0.102-0.312,0.155c-0.236,0.12-0.471,0.243-0.707,0.368
		c-0.068,0.036-0.137,0.071-0.206,0.108c-0.304,0.162-0.608,0.326-0.915,0.492c-0.403,0.218-0.818,0.438-1.232,0.656
		C36.729,16.078,33.242,15,29.5,15s-7.229,1.078-10.201,2.913c-0.414-0.219-0.829-0.438-1.232-0.656
		c-0.306-0.165-0.609-0.329-0.912-0.491c-0.072-0.039-0.145-0.076-0.218-0.114c-0.231-0.122-0.463-0.243-0.694-0.362
		c-0.107-0.054-0.214-0.106-0.321-0.159c-0.199-0.099-0.399-0.197-0.6-0.292c-0.122-0.057-0.245-0.112-0.368-0.168
		c-0.189-0.085-0.379-0.169-0.571-0.249c-0.132-0.055-0.265-0.108-0.398-0.161c-0.188-0.074-0.379-0.145-0.571-0.214
		c-0.138-0.049-0.277-0.097-0.417-0.142c-0.196-0.064-0.396-0.123-0.597-0.18c-0.141-0.04-0.282-0.08-0.425-0.116
		c-0.214-0.054-0.433-0.1-0.653-0.145c-0.137-0.028-0.273-0.059-0.413-0.083c-0.048-0.008-0.093-0.02-0.141-0.028
		C12.997,11.284,16.074,9.224,20.107,8.094z M6,30c0-3.143,0.494-6.182,1.472-9.07c0.01,0.025,0.024,0.046,0.035,0.071
		c0.1,0.229,0.208,0.451,0.326,0.662c0.006,0.011,0.013,0.02,0.018,0.031c0.115,0.204,0.238,0.401,0.365,0.593
		c0.04,0.061,0.081,0.12,0.122,0.179c0.102,0.149,0.206,0.295,0.311,0.439c0.039,0.052,0.076,0.105,0.115,0.157
		c0.136,0.181,0.272,0.36,0.409,0.537c0.671,0.871,1.305,1.693,1.706,2.766l0.433,1.158C10.477,29.692,10,32.039,10,34.5
		c0,3.802,1.111,7.342,3,10.344v3.665C8.526,43.637,6,37.018,6,30z M25,55.516v-2.061C26.447,53.799,27.949,54,29.5,54
		s3.053-0.201,4.5-0.545v2.061C31.019,56.158,27.981,56.158,25,55.516z M46,44.844c1.889-3.003,3-6.543,3-10.344
		c0-2.461-0.477-4.808-1.313-6.978l0.433-1.158c0.401-1.072,1.035-1.895,1.706-2.766c0.137-0.177,0.274-0.357,0.409-0.538
		c0.039-0.051,0.076-0.104,0.114-0.155c0.106-0.144,0.21-0.292,0.313-0.441c0.041-0.059,0.081-0.118,0.121-0.178
		c0.127-0.192,0.25-0.388,0.365-0.593c0.006-0.01,0.013-0.02,0.018-0.031c0.118-0.211,0.226-0.433,0.326-0.662
		c0.011-0.024,0.024-0.046,0.035-0.071C52.506,23.818,53,26.857,53,30c0,7.018-2.526,13.637-7,18.51V44.844z"/>
</g>
<g>
</g>
<g>
</g>
<g>
</g>
<g>
</g>
<g>
</g>
<g>
</g>
<g>
</g>
<g>
</g>
<g>
</g>
<g>
</g>
<g>
</g>
<g>
</g>
<g>
</g>
<g>
</g>
<g>
</g>
</svg>
