<?xml version="1.0" encoding="iso-8859-1"?>
<!-- Generator: Adobe Illustrator 18.0.0, SVG Export Plug-In . SVG Version: 6.00 Build 0)  -->
<!DOCTYPE svg PUBLIC "-//W3C//DTD SVG 1.1//EN" "http://www.w3.org/Graphics/SVG/1.1/DTD/svg11.dtd">
<svg version="1.1" id="Capa_1" xmlns="http://www.w3.org/2000/svg" xmlns:xlink="http://www.w3.org/1999/xlink" x="0px" y="0px"
	 viewBox="0 0 60 60" style="enable-background:new 0 0 60 60;" xml:space="preserve">
<g>
	<path d="M59.946,32.904c0-1.535-0.583-2.933-1.533-3.995c0.092-1.157-0.096-2.332-0.579-3.415
		c-0.225-0.505-0.818-0.732-1.318-0.504c-0.503,0.226-0.728,0.817-0.503,1.321c0.158,0.354,0.265,0.722,0.337,1.096
		c-0.733-0.321-1.541-0.502-2.391-0.502c-0.059,0-0.11,0.024-0.166,0.034c-0.112-0.008-0.219-0.034-0.333-0.034
		c-0.245,0-0.481,0.034-0.716,0.073c-1.87-4.455-5.1-8.075-9.418-10.555c0.417-1.257,0.646-2.578,0.646-3.921
		c0-6.893-5.596-12.5-12.474-12.5S19.023,5.607,19.023,12.5c0,0.936,0.116,1.856,0.319,2.753c-0.894,0.294-1.688,0.575-2.315,0.823
		c-4.413-1.766-7.221-2.354-9.773-2.069c-0.606,0.067-1.082,0.516-1.184,1.116c-0.103,0.608,0.202,1.197,0.759,1.465
		c1.356,0.654,1.932,2.238,2.543,3.916c0.153,0.421,0.31,0.851,0.481,1.272c-2.602,2.7-3.084,4.888-3.55,8.129H5.044
		c-3.124,0-4.99,2.316-4.99,6.196v3.607c0,3.88,1.865,6.197,4.99,6.197H5.66c0.73,1.852,1.817,3.543,3.179,5.064l-1.378,3.452
		c-0.501,1.255-0.349,2.673,0.407,3.792S9.882,60,11.231,60h6.726c0.85,0,1.604-0.511,1.921-1.303l0.366-0.917
		c3.185,0.936,6.724,1.44,10.496,1.44c3.087,0,5.972-0.393,8.598-1.128l0.004,0.015c0.34,1.133,1.36,1.894,2.541,1.894h6.004
		c1.431,0,2.726-0.671,3.552-1.842s1.028-2.617,0.551-3.97l-1.169-3.319c2.644-3.27,4.134-7.347,4.134-11.966
		c0-0.03-0.002-0.06-0.003-0.09C57.782,38.337,59.946,35.872,59.946,32.904z M53.825,33.867l-0.169,0.013
		c-0.057,0.004-0.113,0.011-0.197,0.024c-1.376,0-2.495-1.122-2.495-2.5c0-0.156,0.019-0.307,0.046-0.455
		c0.008-0.042,0.018-0.082,0.028-0.123c0.026-0.111,0.06-0.219,0.101-0.324c0.014-0.036,0.027-0.072,0.042-0.107
		c0.119-0.268,0.283-0.51,0.483-0.719c0.034-0.036,0.072-0.068,0.108-0.102c0.066-0.061,0.135-0.117,0.206-0.171
		c0.054-0.039,0.107-0.078,0.164-0.114c0.058-0.037,0.12-0.067,0.182-0.099c0.069-0.035,0.135-0.073,0.208-0.102l0.009-0.004
		c0.284-0.113,0.592-0.18,0.916-0.18c1.376,0,2.495,1.122,2.495,2.5C55.954,32.657,55.027,33.687,53.825,33.867z M31.497,2
		c5.777,0,10.478,4.71,10.478,10.5c0,1.242-0.223,2.464-0.646,3.614l-0.138,0.334c-0.006,0.015-0.012,0.029-0.018,0.044
		c-0.122,0.295-0.257,0.584-0.405,0.866c-0.002,0.005-0.005,0.009-0.007,0.013c-0.143,0.273-0.3,0.539-0.466,0.798
		c-0.015,0.024-0.031,0.048-0.047,0.072c-0.148,0.227-0.307,0.447-0.472,0.662c-0.047,0.061-0.094,0.121-0.142,0.18
		c-0.176,0.22-0.357,0.435-0.55,0.639c-0.019-0.009,0.034,0.022,0.134,0.081c-0.069,0.342,0.028,0.709,0.31,0.954
		c0.367,0.319,0.892,0.303,1.261,0.011c0.94,0.607,2.054,1.387,2.76,2.095c0.39,0.391,0.39,1.023,0,1.414
		c-0.195,0.195-0.45,0.293-0.706,0.293s-0.511-0.098-0.706-0.293c-5.353-5.363-14.062-5.363-19.416,0
		c-0.39,0.391-1.021,0.391-1.411,0c-0.39-0.391-0.39-1.023,0-1.414c0.505-0.506,1.27-1.096,1.934-1.578
		c0.189-0.03,0.374-0.098,0.525-0.239c0.085-0.079,0.143-0.174,0.194-0.272c0.381-0.263,0.637-0.432,0.604-0.413
		c-0.321-0.284-0.617-0.59-0.899-0.909c-0.057-0.064-0.11-0.13-0.165-0.195c-0.253-0.301-0.493-0.612-0.711-0.94
		c-0.013-0.019-0.027-0.038-0.04-0.057c-0.5-0.764-0.903-1.596-1.195-2.48l-0.154-0.473c-0.252-0.906-0.386-1.848-0.386-2.807
		C21.019,6.71,25.719,2,31.497,2z M14.532,25.904c1.926,0,3.493,1.57,3.493,3.5s-1.567,3.5-3.493,3.5s-3.493-1.57-3.493-3.5
		S12.607,25.904,14.532,25.904z M32.082,54.996c-0.918,0.08-1.814,0.12-2.69,0.12c-3.724,0-7.112-0.723-10.491-2.222
		c-0.504-0.224-0.732-0.814-0.509-1.319c0.223-0.505,0.812-0.733,1.317-0.51c3.907,1.733,7.669,2.332,12.202,1.939
		c0.547-0.059,1.033,0.36,1.08,0.91C33.038,54.464,32.631,54.949,32.082,54.996z M54.894,36.781
		c-0.021-0.371-0.061-0.737-0.094-1.105c1.586-0.502,2.791-1.848,3.074-3.522c0.046,0.243,0.076,0.493,0.076,0.75
		C57.95,34.785,56.643,36.357,54.894,36.781z"/>
	<path d="M26.381,18.692c0.182,0.141,0.397,0.209,0.611,0.209c0.298,0,0.593-0.133,0.789-0.387c0.338-0.437,0.258-1.065-0.177-1.403
		c-1.574-1.222-2.477-3.061-2.477-5.043c0-3.52,2.857-6.383,6.37-6.383s6.37,2.863,6.37,6.383c0,1.792-0.728,3.455-2.051,4.681
		c-0.404,0.375-0.429,1.007-0.055,1.413c0.374,0.405,1.005,0.43,1.41,0.055c1.71-1.585,2.692-3.827,2.692-6.149
		c0-4.622-3.753-8.383-8.365-8.383s-8.365,3.761-8.365,8.383C23.132,14.673,24.316,17.088,26.381,18.692z"/>
</g>
<g>
</g>
<g>
</g>
<g>
</g>
<g>
</g>
<g>
</g>
<g>
</g>
<g>
</g>
<g>
</g>
<g>
</g>
<g>
</g>
<g>
</g>
<g>
</g>
<g>
</g>
<g>
</g>
<g>
</g>
</svg>
