<?xml version="1.0" encoding="iso-8859-1"?>
<!-- Generator: Adobe Illustrator 18.0.0, SVG Export Plug-In . SVG Version: 6.00 Build 0)  -->
<!DOCTYPE svg PUBLIC "-//W3C//DTD SVG 1.1//EN" "http://www.w3.org/Graphics/SVG/1.1/DTD/svg11.dtd">
<svg version="1.1" id="Capa_1" xmlns="http://www.w3.org/2000/svg" xmlns:xlink="http://www.w3.org/1999/xlink" x="0px" y="0px"
	 viewBox="0 0 60 60" style="enable-background:new 0 0 60 60;" xml:space="preserve">
<g>
	<rect x="47" y="8" width="2" height="34"/>
	<path d="M53.796,8H51v34h2.796C55.563,42,57,40.563,57,38.797V11.203C57,9.437,55.563,8,53.796,8z M54,20c-0.552,0-1-0.448-1-1
		s0.448-1,1-1s1,0.448,1,1S54.552,20,54,20z M54,15c-0.552,0-1-0.448-1-1s0.448-1,1-1s1,0.448,1,1S54.552,15,54,15z"/>
	<path d="M43,5.733C43,2.572,40.428,0,37.267,0H8.733C5.572,0,3,2.572,3,5.733v48.533C3,57.428,5.572,60,8.733,60h28.534
		C40.428,60,43,57.428,43,54.267V42h2V8h-2V5.733z M7,5c0-0.553,0.448-1,1-1h6c0.552,0,1,0.447,1,1s-0.448,1-1,1H8
		C7.448,6,7,5.553,7,5z M17,56H9v-7h8V56z M17,47H9v-6h8V47z M17,39H9v-6h8V39z M17,31H9v-7h8V31z M27,56h-8v-7h8V56z M27,47h-8v-6
		h8V47z M27,39h-8v-6h8V39z M27,31h-8v-7h8V31z M37,56h-8V41h8V56z M37,39h-8v-6h8V39z M37,31h-8v-7h8V31z M38,22H8V9h30V22z"/>
	<path d="M24,19c0.256,0,0.512-0.098,0.707-0.293l1-1c0.391-0.391,0.391-1.023,0-1.414s-1.023-0.391-1.414,0l-1,1
		c-0.391,0.391-0.391,1.023,0,1.414C23.488,18.902,23.744,19,24,19z"/>
	<path d="M19,15v3c0,0.553,0.448,1,1,1s1-0.447,1-1v-5c0-0.13-0.027-0.26-0.077-0.382c-0.101-0.245-0.296-0.44-0.541-0.541
		c-0.244-0.101-0.52-0.101-0.764,0c-0.123,0.051-0.233,0.124-0.326,0.217l-0.999,0.999c-0.391,0.391-0.391,1.023,0,1.414
		C18.488,14.902,18.744,15,19,15z"/>
	<path d="M28,15v3c0,0.553,0.448,1,1,1s1-0.447,1-1v-5c0-0.13-0.027-0.26-0.077-0.382c-0.101-0.245-0.296-0.44-0.541-0.541
		c-0.244-0.101-0.52-0.101-0.764,0c-0.123,0.051-0.233,0.124-0.326,0.217l-0.999,0.999c-0.391,0.391-0.391,1.023,0,1.414
		C27.488,14.902,27.744,15,28,15z"/>
	<path d="M32,15v3c0,0.553,0.448,1,1,1s1-0.447,1-1v-5c0-0.13-0.027-0.26-0.077-0.382c-0.101-0.245-0.296-0.44-0.541-0.541
		c-0.244-0.101-0.52-0.101-0.764,0c-0.123,0.051-0.233,0.124-0.326,0.217l-0.999,0.999c-0.391,0.391-0.391,1.023,0,1.414
		C31.488,14.902,31.744,15,32,15z"/>
</g>
<g>
</g>
<g>
</g>
<g>
</g>
<g>
</g>
<g>
</g>
<g>
</g>
<g>
</g>
<g>
</g>
<g>
</g>
<g>
</g>
<g>
</g>
<g>
</g>
<g>
</g>
<g>
</g>
<g>
</g>
</svg>
