<?xml version="1.0" encoding="iso-8859-1"?>
<!-- Generator: Adobe Illustrator 18.0.0, SVG Export Plug-In . SVG Version: 6.00 Build 0)  -->
<!DOCTYPE svg PUBLIC "-//W3C//DTD SVG 1.1//EN" "http://www.w3.org/Graphics/SVG/1.1/DTD/svg11.dtd">
<svg version="1.1" id="Capa_1" xmlns="http://www.w3.org/2000/svg" xmlns:xlink="http://www.w3.org/1999/xlink" x="0px" y="0px"
	 viewBox="0 0 55.589 55.589" style="enable-background:new 0 0 55.589 55.589;" xml:space="preserve">
<g>
	<path d="M8.6,8.62c0.407,1.178,1.503,1.97,2.729,1.97h9.133c1.226,0,2.322-0.792,2.73-1.97c0.313-0.907,0.901-2.17,1.925-3.037
		c0.83-0.702,1.218-1.791,1.015-2.841c-0.2-1.034-0.921-1.85-1.929-2.183c-3-0.993-5.666-0.657-7.698,0.967
		c-0.358,0.287-0.862,0.286-1.22,0c-2.031-1.625-4.698-1.96-7.698-0.967C6.581,0.892,5.86,1.708,5.66,2.741
		C5.456,3.791,5.844,4.88,6.674,5.582C7.698,6.449,8.286,7.712,8.6,8.62z"/>
	<path d="M23.896,15.122v-2.532c0-0.552-0.448-1-1-1h-13c-0.552,0-1,0.448-1,1s0.448,1,1,1h12v1h-12c-0.552,0-1,0.448-1,1
		c0,0.552,0.448,1,1,1h12.652c0.922,0.764,2.043,1.169,3.177,1.169c1.28,0,2.561-0.488,3.535-1.462c0.391-0.391,0.391-1.023,0-1.414
		s-1.023-0.391-1.414,0C26.766,15.961,25.071,16.032,23.896,15.122z"/>
	<path d="M23.613,17.589H9.157L1.576,42.242c-1.333,3.079-1.266,6.093,0.191,8.494c1.687,2.781,5.079,4.54,9.307,4.826
		c0.271,0.018,0.545,0.028,0.822,0.028h9.647c0.276,0,0.55-0.01,0.822-0.028c4.212-0.285,7.608-2.017,9.318-4.752
		c1.498-2.397,1.617-5.319,0.364-8.396L23.613,17.589z M9.896,50.589c-2.757,0-5-2.691-5-6c0-0.552,0.448-1,1-1s1,0.448,1,1
		c0,2.206,1.346,4,3,4c0.552,0,1,0.448,1,1S10.448,50.589,9.896,50.589z"/>
	<path d="M54.966,47.589c0-0.192-0.068-0.361-0.162-0.513c-0.876-1.813-5.451-3.487-9.907-3.487c-4.471,0-8.949,1.685-9.781,3.505
		c-0.039,0.067-0.069,0.134-0.092,0.21c-0.001,0.002-0.001,0.004-0.001,0.006c-0.027,0.09-0.056,0.18-0.056,0.279v3
		c0,0.089,0.029,0.168,0.05,0.25c-0.022,0.082-0.05,0.161-0.05,0.25c0,2.763,6.286,3.5,10,3.5s10-0.737,10-3.5
		c0-0.089-0.029-0.168-0.05-0.25c0.022-0.082,0.05-0.161,0.05-0.25V47.589z M44.896,45.589c3.966,0,6.816,1.293,7.741,1.999
		c-0.967,0.426-3.648,1.001-7.741,1.001c-4.094,0-6.774-0.576-7.742-1.001C38.08,46.882,40.929,45.589,44.896,45.589z
		 M52.968,51.016c-0.346,0.486-3.018,1.574-8.002,1.574s-7.657-1.087-8.002-1.574c-0.005-0.063-0.032-0.118-0.048-0.178
		c0.021-0.081,0.05-0.161,0.05-0.249v-0.977c1.419,0.543,3.831,0.977,7.931,0.977c4.183,0,6.631-0.453,8.069-1.011v1.011
		c0,0.088,0.029,0.167,0.05,0.249C53,50.897,52.973,50.952,52.968,51.016z"/>
</g>
<g>
</g>
<g>
</g>
<g>
</g>
<g>
</g>
<g>
</g>
<g>
</g>
<g>
</g>
<g>
</g>
<g>
</g>
<g>
</g>
<g>
</g>
<g>
</g>
<g>
</g>
<g>
</g>
<g>
</g>
</svg>
