<?xml version="1.0" encoding="iso-8859-1"?>
<!-- Generator: Adobe Illustrator 18.0.0, SVG Export Plug-In . SVG Version: 6.00 Build 0)  -->
<!DOCTYPE svg PUBLIC "-//W3C//DTD SVG 1.1//EN" "http://www.w3.org/Graphics/SVG/1.1/DTD/svg11.dtd">
<svg version="1.1" id="Capa_1" xmlns="http://www.w3.org/2000/svg" xmlns:xlink="http://www.w3.org/1999/xlink" x="0px" y="0px"
	 viewBox="0 0 60 60" style="enable-background:new 0 0 60 60;" xml:space="preserve">
<path d="M60,4H31V1c0-0.553-0.447-1-1-1s-1,0.447-1,1v3H0v42h27.586L15.293,58.293c-0.391,0.391-0.391,1.023,0,1.414
	C15.488,59.902,15.744,60,16,60s0.512-0.098,0.707-0.293L29,47.414V57c0,0.553,0.447,1,1,1s1-0.447,1-1v-9.586l12.293,12.293
	C43.488,59.902,43.744,60,44,60s0.512-0.098,0.707-0.293c0.391-0.391,0.391-1.023,0-1.414L32.414,46H60V4z M8,21.223
	c0.553,0,1,0.447,1,1c0,1.654,1.346,3,3,3c0.885,0,1.72-0.388,2.291-1.063c0.257-0.304,0.374-0.696,0.332-1.105
	c-0.046-0.439-0.272-0.848-0.622-1.119l-5.23-4.068c-0.777-0.605-1.281-1.514-1.383-2.492c-0.099-0.956,0.183-1.88,0.794-2.603
	c0.733-0.867,1.728-1.445,2.818-1.667v-0.882c0-0.553,0.447-1,1-1s1,0.447,1,1v0.878c2.279,0.465,4,2.484,4,4.899
	c0,0.553-0.447,1-1,1s-1-0.447-1-1c0-1.654-1.346-3-3-3c-0.885,0-1.72,0.388-2.291,1.063c-0.257,0.304-0.374,0.695-0.332,1.104
	c0.046,0.439,0.272,0.848,0.622,1.12l5.23,4.068c0.776,0.604,1.28,1.512,1.383,2.489c0.1,0.957-0.183,1.882-0.794,2.604
	c-0.733,0.867-1.728,1.446-2.818,1.668V28c0,0.553-0.447,1-1,1s-1-0.447-1-1v-0.878c-2.279-0.465-4-2.484-4-4.899
	C7,21.67,7.447,21.223,8,21.223z M15,34c0,0.26-0.11,0.52-0.29,0.71C14.52,34.89,14.26,35,14,35s-0.521-0.11-0.71-0.29
	C13.109,34.52,13,34.27,13,34c0-0.26,0.109-0.521,0.29-0.71c0.38-0.37,1.04-0.37,1.42,0C14.89,33.479,15,33.74,15,34z M8,33h2
	c0.553,0,1,0.447,1,1s-0.447,1-1,1H8c-0.553,0-1-0.447-1-1S7.447,33,8,33z M16,40H8c-0.553,0-1-0.447-1-1s0.447-1,1-1h8
	c0.553,0,1,0.447,1,1S16.553,40,16,40z M21.71,39.71C21.52,39.89,21.26,40,21,40c-0.271,0-0.521-0.11-0.71-0.3
	C20.109,39.52,20,39.27,20,39c0-0.271,0.109-0.521,0.29-0.71c0.37-0.37,1.05-0.37,1.42,0C21.89,38.479,22,38.74,22,39
	S21.89,39.52,21.71,39.71z M21,35h-3c-0.553,0-1-0.447-1-1s0.447-1,1-1h3c0.553,0,1,0.447,1,1S21.553,35,21,35z M55,41
	c0,0.553-0.447,1-1,1s-1-0.447-1-1v-2h-7c-0.553,0-1-0.447-1-1s0.447-1,1-1h7v-5h-4c-0.553,0-1-0.447-1-1s0.447-1,1-1h4v-4H42
	c-0.553,0-1-0.447-1-1s0.447-1,1-1h11v-4H39c-0.553,0-1-0.447-1-1s0.447-1,1-1h14v-4h-7c-0.553,0-1-0.447-1-1s0.447-1,1-1h7v-2
	c0-0.553,0.447-1,1-1s1,0.447,1,1V41z"/>
<g>
</g>
<g>
</g>
<g>
</g>
<g>
</g>
<g>
</g>
<g>
</g>
<g>
</g>
<g>
</g>
<g>
</g>
<g>
</g>
<g>
</g>
<g>
</g>
<g>
</g>
<g>
</g>
<g>
</g>
</svg>
