<?xml version="1.0" encoding="iso-8859-1"?>
<!-- Generator: Adobe Illustrator 18.0.0, SVG Export Plug-In . SVG Version: 6.00 Build 0)  -->
<!DOCTYPE svg PUBLIC "-//W3C//DTD SVG 1.1//EN" "http://www.w3.org/Graphics/SVG/1.1/DTD/svg11.dtd">
<svg version="1.1" id="Capa_1" xmlns="http://www.w3.org/2000/svg" xmlns:xlink="http://www.w3.org/1999/xlink" x="0px" y="0px"
	 viewBox="0 0 60 60" style="enable-background:new 0 0 60 60;" xml:space="preserve">
<g>
	<path d="M60,4H31V1c0-0.553-0.448-1-1-1s-1,0.447-1,1v3H0v42h27.586L15.293,58.293c-0.391,0.391-0.391,1.023,0,1.414
		C15.488,59.902,15.744,60,16,60s0.512-0.098,0.707-0.293L29,47.414V57c0,0.553,0.448,1,1,1s1-0.447,1-1v-9.586l12.293,12.293
		C43.488,59.902,43.744,60,44,60s0.512-0.098,0.707-0.293c0.391-0.391,0.391-1.023,0-1.414L32.414,46H60V4z M58,44H2V6h56V44z"/>
	<path d="M50,38H35c-0.552,0-1,0.447-1,1s0.448,1,1,1h15c0.552,0,1-0.447,1-1S50.552,38,50,38z"/>
	<path d="M10,33h10c0.552,0,1-0.447,1-1s-0.448-1-1-1H10c-0.552,0-1,0.447-1,1S9.448,33,10,33z"/>
	<path d="M30,33h15c0.552,0,1-0.447,1-1s-0.448-1-1-1H30c-0.552,0-1,0.447-1,1S29.448,33,30,33z"/>
	<path d="M24.29,31.29C24.11,31.479,24,31.74,24,32s0.11,0.52,0.29,0.71C24.48,32.89,24.74,33,25,33c0.26,0,0.52-0.11,0.71-0.29
		C25.89,32.52,26,32.27,26,32c0-0.271-0.11-0.53-0.29-0.71C25.34,30.92,24.66,30.92,24.29,31.29z"/>
	<path d="M30,38H15c-0.552,0-1,0.447-1,1s0.448,1,1,1h15c0.552,0,1-0.447,1-1S30.552,38,30,38z"/>
	<path d="M49.29,31.29C49.11,31.479,49,31.74,49,32s0.11,0.52,0.29,0.71C49.48,32.89,49.74,33,50,33c0.26,0,0.52-0.11,0.71-0.29
		C50.89,32.52,51,32.27,51,32c0-0.271-0.11-0.521-0.29-0.71C50.34,30.92,49.66,30.92,49.29,31.29z"/>
	<path d="M50,17H35c-0.552,0-1,0.447-1,1s0.448,1,1,1h15c0.552,0,1-0.447,1-1S50.552,17,50,17z"/>
	<path d="M50,24H40c-0.552,0-1,0.447-1,1s0.448,1,1,1h10c0.552,0,1-0.447,1-1S50.552,24,50,24z"/>
	<path d="M30,26h2c0.552,0,1-0.447,1-1s-0.448-1-1-1h-2c-0.552,0-1,0.447-1,1S29.448,26,30,26z"/>
	<path d="M30,12h15c0.552,0,1-0.447,1-1s-0.448-1-1-1H30c-0.552,0-1,0.447-1,1S29.448,12,30,12z"/>
	<path d="M50,12c0.27,0,0.52-0.11,0.71-0.29C50.89,11.52,51,11.27,51,11c0-0.271-0.11-0.521-0.29-0.71c-0.37-0.37-1.05-0.37-1.42,0
		C49.11,10.479,49,10.729,49,11c0,0.27,0.11,0.52,0.29,0.71C49.48,11.89,49.73,12,50,12z"/>
	<path d="M30.29,17.29C30.11,17.479,30,17.74,30,18s0.11,0.52,0.29,0.71C30.48,18.89,30.74,19,31,19c0.26,0,0.52-0.11,0.71-0.29
		C31.89,18.52,32,18.26,32,18s-0.11-0.521-0.29-0.71C31.33,16.92,30.67,16.92,30.29,17.29z"/>
	<path d="M35.3,24.29C35.11,24.479,35,24.729,35,25c0,0.27,0.11,0.52,0.29,0.71C35.48,25.89,35.74,26,36,26
		c0.27,0,0.52-0.11,0.71-0.29C36.89,25.52,37,25.26,37,25s-0.11-0.521-0.29-0.71C36.34,23.92,35.66,23.92,35.3,24.29z"/>
	<rect x="9" y="10" width="16" height="16"/>
	<path d="M10,40c0.26,0,0.52-0.11,0.71-0.29C10.89,39.52,11,39.26,11,39s-0.11-0.521-0.29-0.71c-0.38-0.37-1.05-0.37-1.42,0
		C9.11,38.479,9,38.74,9,39s0.11,0.52,0.29,0.7C9.48,39.89,9.73,40,10,40z"/>
</g>
<g>
</g>
<g>
</g>
<g>
</g>
<g>
</g>
<g>
</g>
<g>
</g>
<g>
</g>
<g>
</g>
<g>
</g>
<g>
</g>
<g>
</g>
<g>
</g>
<g>
</g>
<g>
</g>
<g>
</g>
</svg>
