<?xml version="1.0" encoding="iso-8859-1"?>
<!-- Generator: Adobe Illustrator 18.0.0, SVG Export Plug-In . SVG Version: 6.00 Build 0)  -->
<!DOCTYPE svg PUBLIC "-//W3C//DTD SVG 1.1//EN" "http://www.w3.org/Graphics/SVG/1.1/DTD/svg11.dtd">
<svg version="1.1" id="Capa_1" xmlns="http://www.w3.org/2000/svg" xmlns:xlink="http://www.w3.org/1999/xlink" x="0px" y="0px"
	 viewBox="0 0 60 60" style="enable-background:new 0 0 60 60;" xml:space="preserve">
<g>
	<path d="M60,8V0H0v8h2v40H1c-0.553,0-1,0.447-1,1s0.447,1,1,1h1h27v2c0,0.047,0.021,0.088,0.027,0.134
		C27.292,52.571,26,54.131,26,56c0,2.206,1.794,4,4,4s4-1.794,4-4c0-1.869-1.292-3.429-3.027-3.866C30.979,52.088,31,52.047,31,52
		v-2h27h1c0.553,0,1-0.447,1-1s-0.447-1-1-1h-1V8H60z M32,56c0,1.103-0.897,2-2,2s-2-0.897-2-2s0.897-2,2-2S32,54.897,32,56z M56,48
		H4V8h52V48z"/>
	<path d="M30,44c8.822,0,16-7.178,16-16s-7.178-16-16-16s-16,7.178-16,16S21.178,44,30,44z M25,21c0-0.365,0.199-0.701,0.519-0.877
		c0.32-0.175,0.709-0.161,1.019,0.033l11,7C37.825,27.34,38,27.658,38,28s-0.175,0.66-0.463,0.844l-11,7
		C26.373,35.947,26.187,36,26,36c-0.165,0-0.331-0.041-0.481-0.123C25.199,35.701,25,35.365,25,35V21z"/>
</g>
<g>
</g>
<g>
</g>
<g>
</g>
<g>
</g>
<g>
</g>
<g>
</g>
<g>
</g>
<g>
</g>
<g>
</g>
<g>
</g>
<g>
</g>
<g>
</g>
<g>
</g>
<g>
</g>
<g>
</g>
</svg>
