<?xml version="1.0" encoding="iso-8859-1"?>
<!-- Generator: Adobe Illustrator 18.0.0, SVG Export Plug-In . SVG Version: 6.00 Build 0)  -->
<!DOCTYPE svg PUBLIC "-//W3C//DTD SVG 1.1//EN" "http://www.w3.org/Graphics/SVG/1.1/DTD/svg11.dtd">
<svg version="1.1" id="Capa_1" xmlns="http://www.w3.org/2000/svg" xmlns:xlink="http://www.w3.org/1999/xlink" x="0px" y="0px"
	 viewBox="0 0 60 60" style="enable-background:new 0 0 60 60;" xml:space="preserve">
<path d="M60,8V0H0v8h2v40H1c-0.552,0-1,0.447-1,1s0.448,1,1,1h1h27v2c0,0.047,0.021,0.088,0.027,0.134
	C27.293,52.571,26,54.131,26,56c0,2.206,1.794,4,4,4s4-1.794,4-4c0-1.869-1.293-3.429-3.027-3.866C30.979,52.088,31,52.047,31,52v-2
	h27h1c0.553,0,1-0.447,1-1s-0.447-1-1-1h-1V8H60z M9,22c0-0.553,0.448-1,1-1h9c0.552,0,1,0.447,1,1s-0.448,1-1,1h-9
	C9.448,23,9,22.553,9,22z M10,18h9c0.552,0,1,0.447,1,1s-0.448,1-1,1h-9c-0.552,0-1-0.447-1-1S9.448,18,10,18z M9,16
	c0-0.553,0.448-1,1-1h5c0.552,0,1,0.447,1,1s-0.448,1-1,1h-5C9.448,17,9,16.553,9,16z M32,56c0,1.103-0.897,2-2,2s-2-0.897-2-2
	s0.897-2,2-2S32,54.897,32,56z M49,30c0,0.553-0.447,1-1,1s-1-0.447-1-1v-4.586L34.307,38.107C34.112,38.303,33.856,38.4,33.6,38.4
	s-0.512-0.098-0.707-0.293L24.6,29.814L12.707,41.707C12.512,41.902,12.256,42,12,42s-0.512-0.098-0.707-0.293
	c-0.391-0.391-0.391-1.023,0-1.414l12.6-12.6c0.391-0.391,1.023-0.391,1.414,0l8.293,8.293L45.586,24H41c-0.552,0-1-0.447-1-1
	s0.448-1,1-1h7c0.13,0,0.26,0.026,0.382,0.077c0.245,0.101,0.44,0.296,0.541,0.541C48.974,22.74,49,22.87,49,23V30z M2,6V2h56v4H2z"
	/>
<g>
</g>
<g>
</g>
<g>
</g>
<g>
</g>
<g>
</g>
<g>
</g>
<g>
</g>
<g>
</g>
<g>
</g>
<g>
</g>
<g>
</g>
<g>
</g>
<g>
</g>
<g>
</g>
<g>
</g>
</svg>
