<?xml version="1.0" encoding="iso-8859-1"?>
<!-- Generator: Adobe Illustrator 18.0.0, SVG Export Plug-In . SVG Version: 6.00 Build 0)  -->
<!DOCTYPE svg PUBLIC "-//W3C//DTD SVG 1.1//EN" "http://www.w3.org/Graphics/SVG/1.1/DTD/svg11.dtd">
<svg version="1.1" id="Capa_1" xmlns="http://www.w3.org/2000/svg" xmlns:xlink="http://www.w3.org/1999/xlink" x="0px" y="0px"
	 viewBox="0 0 60 60" style="enable-background:new 0 0 60 60;" xml:space="preserve">
<g>
	<path d="M60,8V0H0v8h2v40H1c-0.553,0-1,0.447-1,1s0.447,1,1,1h1h27v2c0,0.047,0.021,0.088,0.027,0.134
		C27.292,52.571,26,54.131,26,56c0,2.206,1.794,4,4,4s4-1.794,4-4c0-1.869-1.292-3.429-3.027-3.866C30.979,52.088,31,52.047,31,52
		v-2h27h1c0.553,0,1-0.447,1-1s-0.447-1-1-1h-1V8H60z M32,56c0,1.103-0.897,2-2,2s-2-0.897-2-2s0.897-2,2-2S32,54.897,32,56z M56,48
		H4V8h52V48z"/>
	<path d="M36,45c0.553,0,1-0.447,1-1v-3c0-0.553-0.447-1-1-1s-1,0.447-1,1v3C35,44.553,35.447,45,36,45z"/>
	<path d="M40,36c-0.553,0-1,0.447-1,1v7c0,0.553,0.447,1,1,1s1-0.447,1-1v-7C41,36.447,40.553,36,40,36z"/>
	<path d="M44,38c-0.553,0-1,0.447-1,1v5c0,0.553,0.447,1,1,1s1-0.447,1-1v-5C45,38.447,44.553,38,44,38z"/>
	<path d="M48,31c-0.553,0-1,0.447-1,1v12c0,0.553,0.447,1,1,1s1-0.447,1-1V32C49,31.447,48.553,31,48,31z"/>
	<path d="M52,35c-0.553,0-1,0.447-1,1v8c0,0.553,0.447,1,1,1s1-0.447,1-1v-8C53,35.447,52.553,35,52,35z"/>
	<path d="M10,40h10c0.553,0,1-0.447,1-1s-0.447-1-1-1H10c-0.553,0-1,0.447-1,1S9.447,40,10,40z"/>
	<path d="M25,42H10c-0.553,0-1,0.447-1,1s0.447,1,1,1h15c0.553,0,1-0.447,1-1S25.553,42,25,42z"/>
	<path d="M39,19h8c0.553,0,1-0.447,1-1s-0.447-1-1-1h-8c-0.553,0-1,0.447-1,1S38.447,19,39,19z"/>
	<path d="M51.29,17.29C51.109,17.479,51,17.74,51,18s0.109,0.52,0.29,0.71C51.479,18.89,51.74,19,52,19s0.52-0.11,0.71-0.29
		C52.89,18.52,53,18.26,53,18s-0.11-0.521-0.29-0.71C52.34,16.92,51.66,16.92,51.29,17.29z"/>
	<path d="M49,14h3c0.553,0,1-0.447,1-1s-0.447-1-1-1h-3c-0.553,0-1,0.447-1,1S48.447,14,49,14z"/>
	<path d="M39,14h2c0.553,0,1-0.447,1-1s-0.447-1-1-1h-2c-0.553,0-1,0.447-1,1S38.447,14,39,14z"/>
	<path d="M45,14c0.26,0,0.52-0.11,0.71-0.29C45.89,13.52,46,13.26,46,13c0-0.271-0.11-0.521-0.29-0.71c-0.37-0.37-1.05-0.37-1.42,0
		C44.109,12.479,44,12.74,44,13s0.109,0.52,0.29,0.71C44.479,13.89,44.74,14,45,14z"/>
	<path d="M26.825,30.385c1.636-1.72,2.742-3.942,3.066-6.41l-9.47,0.006L26.825,30.385z"/>
	<path d="M18.5,33.975c2.555,0,4.911-0.848,6.822-2.264l-7.637-7.733L17,23.975v-0.919c0.001-0.063,0.007-0.872,0.001-1.046
		L17,11.084c-5.633,0.739-10,5.559-10,11.391C7,28.815,12.159,33.975,18.5,33.975z"/>
	<path d="M19,11v10.975h10.975C29.717,16.034,24.941,11.257,19,11z"/>
</g>
<g>
</g>
<g>
</g>
<g>
</g>
<g>
</g>
<g>
</g>
<g>
</g>
<g>
</g>
<g>
</g>
<g>
</g>
<g>
</g>
<g>
</g>
<g>
</g>
<g>
</g>
<g>
</g>
<g>
</g>
</svg>
