<?xml version="1.0" encoding="iso-8859-1"?>
<!-- Generator: Adobe Illustrator 18.0.0, SVG Export Plug-In . SVG Version: 6.00 Build 0)  -->
<!DOCTYPE svg PUBLIC "-//W3C//DTD SVG 1.1//EN" "http://www.w3.org/Graphics/SVG/1.1/DTD/svg11.dtd">
<svg version="1.1" id="Capa_1" xmlns="http://www.w3.org/2000/svg" xmlns:xlink="http://www.w3.org/1999/xlink" x="0px" y="0px"
	 viewBox="0 0 60 60" style="enable-background:new 0 0 60 60;" xml:space="preserve">
<path d="M60,8V0H0v8h2v40H1c-0.553,0-1,0.447-1,1s0.447,1,1,1h1h27v2c0,0.047,0.021,0.088,0.027,0.134
	C27.292,52.571,26,54.131,26,56c0,2.206,1.794,4,4,4s4-1.794,4-4c0-1.869-1.292-3.429-3.027-3.866C30.979,52.088,31,52.047,31,52v-2
	h27h1c0.553,0,1-0.447,1-1s-0.447-1-1-1h-1V8H60z M18,43h-8c-0.553,0-1-0.447-1-1s0.447-1,1-1h8c0.553,0,1,0.447,1,1
	S18.553,43,18,43z M16.623,26.054c-0.046-0.439-0.272-0.848-0.622-1.119l-5.23-4.068c-0.777-0.605-1.281-1.514-1.383-2.492
	c-0.099-0.956,0.183-1.88,0.794-2.603c0.733-0.867,1.728-1.445,2.818-1.667v-0.882c0-0.553,0.447-1,1-1s1,0.447,1,1v0.878
	c2.279,0.465,4,2.484,4,4.899c0,0.553-0.447,1-1,1s-1-0.447-1-1c0-1.654-1.346-3-3-3c-0.885,0-1.72,0.388-2.291,1.063
	c-0.257,0.304-0.374,0.695-0.332,1.104c0.046,0.439,0.272,0.848,0.622,1.12l5.23,4.068c0.776,0.604,1.28,1.512,1.383,2.489
	c0.1,0.957-0.183,1.882-0.794,2.604c-0.733,0.867-1.728,1.446-2.818,1.668V31c0,0.553-0.447,1-1,1s-1-0.447-1-1v-0.878
	c-2.279-0.465-4-2.484-4-4.899c0-0.553,0.447-1,1-1s1,0.447,1,1c0,1.654,1.346,3,3,3c0.885,0,1.72-0.388,2.291-1.063
	C16.548,26.855,16.665,26.463,16.623,26.054z M17,37c0,0.26-0.11,0.52-0.29,0.71C16.52,37.89,16.26,38,16,38s-0.521-0.101-0.71-0.29
	C15.109,37.52,15,37.26,15,37c0-0.271,0.109-0.521,0.29-0.71c0.38-0.37,1.05-0.37,1.42,0C16.89,36.479,17,36.74,17,37z M10,36h2
	c0.553,0,1,0.447,1,1s-0.447,1-1,1h-2c-0.553,0-1-0.447-1-1S9.447,36,10,36z M23.71,42.71C23.52,42.89,23.26,43,23,43
	s-0.521-0.11-0.71-0.29C22.109,42.52,22,42.27,22,42c0-0.26,0.109-0.521,0.29-0.71c0.37-0.37,1.05-0.37,1.42,0
	C23.89,41.479,24,41.74,24,42S23.89,42.52,23.71,42.71z M23,38h-3c-0.553,0-1-0.447-1-1s0.447-1,1-1h3c0.553,0,1,0.447,1,1
	S23.553,38,23,38z M32,56c0,1.103-0.897,2-2,2s-2-0.897-2-2s0.897-2,2-2S32,54.897,32,56z M52,43c0,0.553-0.447,1-1,1s-1-0.447-1-1
	v-2h-7c-0.553,0-1-0.447-1-1s0.447-1,1-1h7v-5h-4c-0.553,0-1-0.447-1-1s0.447-1,1-1h4v-4H39c-0.553,0-1-0.447-1-1s0.447-1,1-1h11v-4
	H36c-0.553,0-1-0.447-1-1s0.447-1,1-1h14v-4h-7c-0.553,0-1-0.447-1-1s0.447-1,1-1h7v-2c0-0.553,0.447-1,1-1s1,0.447,1,1V43z M2,6V2
	h56v4H2z"/>
<g>
</g>
<g>
</g>
<g>
</g>
<g>
</g>
<g>
</g>
<g>
</g>
<g>
</g>
<g>
</g>
<g>
</g>
<g>
</g>
<g>
</g>
<g>
</g>
<g>
</g>
<g>
</g>
<g>
</g>
</svg>
