<?xml version="1.0" encoding="iso-8859-1"?>
<!-- Generator: Adobe Illustrator 18.0.0, SVG Export Plug-In . SVG Version: 6.00 Build 0)  -->
<!DOCTYPE svg PUBLIC "-//W3C//DTD SVG 1.1//EN" "http://www.w3.org/Graphics/SVG/1.1/DTD/svg11.dtd">
<svg version="1.1" id="Capa_1" xmlns="http://www.w3.org/2000/svg" xmlns:xlink="http://www.w3.org/1999/xlink" x="0px" y="0px"
	 viewBox="0 0 60 60" style="enable-background:new 0 0 60 60;" xml:space="preserve">
<g>
	<path d="M59.707,0.293c-0.391-0.391-1.023-0.391-1.414,0L54.586,4H31.3L16,19.591V26h5.006l0.038,7H27v7h6v5.003l8.201-0.024
		L56,29.685V5.414l3.707-3.707C60.098,1.316,60.098,0.684,59.707,0.293z M45,20c-2.757,0-5-2.243-5-5s2.243-5,5-5s5,2.243,5,5
		S47.757,20,45,20z"/>
	<path d="M27.997,44h-6v-7h-6v-7h-6v-5.403L1.03,33.67c-1.376,1.376-1.376,3.614,0.018,5.007l21.289,20.29
		C23.002,59.633,23.889,60,24.832,60c0.941,0,1.828-0.366,2.499-1.037l9.785-9.897h-9.119V44z"/>
</g>
<g>
</g>
<g>
</g>
<g>
</g>
<g>
</g>
<g>
</g>
<g>
</g>
<g>
</g>
<g>
</g>
<g>
</g>
<g>
</g>
<g>
</g>
<g>
</g>
<g>
</g>
<g>
</g>
<g>
</g>
</svg>
