<?xml version="1.0" encoding="iso-8859-1"?>
<!-- Generator: Adobe Illustrator 18.0.0, SVG Export Plug-In . SVG Version: 6.00 Build 0)  -->
<!DOCTYPE svg PUBLIC "-//W3C//DTD SVG 1.1//EN" "http://www.w3.org/Graphics/SVG/1.1/DTD/svg11.dtd">
<svg version="1.1" id="Capa_1" xmlns="http://www.w3.org/2000/svg" xmlns:xlink="http://www.w3.org/1999/xlink" x="0px" y="0px"
	 viewBox="0 0 60 60" style="enable-background:new 0 0 60 60;" xml:space="preserve">
<path d="M59.207,0.293c-0.391-0.391-1.023-0.391-1.414,0L54.086,4H30.803L1.534,33.511C0.867,34.177,0.5,35.063,0.5,36.006
	s0.367,1.829,1.034,2.495L22,58.967C22.666,59.633,23.552,60,24.495,60c0.942,0,1.828-0.367,2.504-1.043L55.5,29.687V5.414
	l3.707-3.707C59.598,1.316,59.598,0.684,59.207,0.293z M30.514,42.345c0.391,0.391,0.391,1.023,0,1.414l-4.243,4.242
	c-0.195,0.195-0.451,0.293-0.707,0.293s-0.512-0.098-0.707-0.293c-0.391-0.391-0.391-1.023,0-1.414l4.243-4.242
	C29.49,41.954,30.123,41.954,30.514,42.345z M28.393,40.223c0.391,0.391,0.391,1.023,0,1.414L24.15,45.88
	c-0.195,0.195-0.451,0.293-0.707,0.293s-0.512-0.098-0.707-0.293c-0.391-0.391-0.391-1.023,0-1.414l4.243-4.243
	C27.369,39.832,28.002,39.832,28.393,40.223z M26.271,38.102c0.391,0.391,0.391,1.023,0,1.414l-4.243,4.243
	c-0.195,0.195-0.451,0.293-0.707,0.293s-0.512-0.098-0.707-0.293c-0.391-0.391-0.391-1.023,0-1.414l4.243-4.243
	C25.248,37.711,25.88,37.711,26.271,38.102z M22.735,34.566c0.391,0.391,0.391,1.023,0,1.414l-4.242,4.242
	c-0.195,0.195-0.451,0.293-0.707,0.293s-0.512-0.098-0.707-0.293c-0.391-0.391-0.391-1.023,0-1.414l4.242-4.242
	C21.712,34.176,22.345,34.176,22.735,34.566z M17.786,29.616c0.391,0.391,0.391,1.023,0,1.414l-4.243,4.243
	c-0.195,0.195-0.451,0.293-0.707,0.293s-0.512-0.098-0.707-0.293c-0.391-0.391-0.391-1.023,0-1.414l4.243-4.243
	C16.762,29.226,17.395,29.226,17.786,29.616z M6.472,37.688c-0.256,0-0.512-0.098-0.707-0.293c-0.391-0.391-0.391-1.023,0-1.414
	l8.485-8.485c0.391-0.391,1.023-0.391,1.414,0s0.391,1.023,0,1.414l-8.485,8.485C6.984,37.59,6.728,37.688,6.472,37.688z
	 M10.715,38.102l-0.707,0.707c-0.195,0.195-0.451,0.293-0.707,0.293s-0.512-0.098-0.707-0.293c-0.391-0.391-0.391-1.023,0-1.414
	l0.707-0.707c0.391-0.391,1.023-0.391,1.414,0S11.105,37.711,10.715,38.102z M12.129,41.93c-0.256,0-0.512-0.098-0.707-0.293
	c-0.391-0.391-0.391-1.023,0-1.414l0.707-0.707c0.391-0.391,1.023-0.391,1.414,0s0.391,1.023,0,1.414l-0.707,0.707
	C12.641,41.832,12.385,41.93,12.129,41.93z M15.665,43.052l-0.707,0.707c-0.195,0.195-0.451,0.293-0.707,0.293
	s-0.512-0.098-0.707-0.293c-0.391-0.391-0.391-1.023,0-1.414l0.707-0.707c0.391-0.391,1.023-0.391,1.414,0
	S16.055,42.661,15.665,43.052z M15.665,38.395c-0.256,0-0.512-0.098-0.707-0.293c-0.391-0.391-0.391-1.023,0-1.414l4.243-4.242
	c0.391-0.391,1.023-0.391,1.414,0s0.391,1.023,0,1.414l-4.243,4.242C16.176,38.297,15.92,38.395,15.665,38.395z M17.786,47.587
	c-0.256,0-0.512-0.098-0.707-0.293c-0.391-0.391-0.391-1.023,0-1.414l0.707-0.707c0.391-0.391,1.023-0.391,1.414,0
	s0.391,1.023,0,1.414l-0.707,0.707C18.298,47.489,18.042,47.587,17.786,47.587z M19.907,49.708c-0.256,0-0.512-0.098-0.707-0.293
	c-0.391-0.391-0.391-1.023,0-1.414l0.707-0.707c0.391-0.391,1.023-0.391,1.414,0s0.391,1.023,0,1.414l-0.707,0.707
	C20.419,49.61,20.163,49.708,19.907,49.708z M21.321,51.537c-0.391-0.39-0.391-1.023,0-1.414l0.708-0.708
	c0.391-0.391,1.024-0.391,1.415,0c0.391,0.39,0.391,1.023,0,1.414l-0.708,0.708c-0.195,0.195-0.452,0.293-0.708,0.293
	S21.517,51.732,21.321,51.537z M32.635,45.88l-8.485,8.485c-0.195,0.195-0.451,0.293-0.707,0.293s-0.512-0.098-0.707-0.293
	c-0.391-0.391-0.391-1.023,0-1.414l8.485-8.485c0.391-0.391,1.023-0.391,1.414,0S33.026,45.489,32.635,45.88z M44.5,20
	c-2.757,0-5-2.243-5-5s2.243-5,5-5s5,2.243,5,5S47.257,20,44.5,20z"/>
<g>
</g>
<g>
</g>
<g>
</g>
<g>
</g>
<g>
</g>
<g>
</g>
<g>
</g>
<g>
</g>
<g>
</g>
<g>
</g>
<g>
</g>
<g>
</g>
<g>
</g>
<g>
</g>
<g>
</g>
</svg>
