<?xml version="1.0" encoding="iso-8859-1"?>
<!-- Generator: Adobe Illustrator 18.0.0, SVG Export Plug-In . SVG Version: 6.00 Build 0)  -->
<!DOCTYPE svg PUBLIC "-//W3C//DTD SVG 1.1//EN" "http://www.w3.org/Graphics/SVG/1.1/DTD/svg11.dtd">
<svg version="1.1" id="Capa_1" xmlns="http://www.w3.org/2000/svg" xmlns:xlink="http://www.w3.org/1999/xlink" x="0px" y="0px"
	 viewBox="0 0 60 60" style="enable-background:new 0 0 60 60;" xml:space="preserve">
<path d="M59.207,0.293c-0.391-0.391-1.023-0.391-1.414,0L54.086,4H30.803L1.534,33.511C0.867,34.177,0.5,35.063,0.5,36.006
	s0.367,1.829,1.034,2.495L22,58.967C22.666,59.633,23.552,60,24.495,60c0.942,0,1.828-0.367,2.504-1.043L55.5,29.687V5.414
	l3.707-3.707C59.598,1.316,59.598,0.684,59.207,0.293z M30.79,9.694L32.47,8h0.417c0.552,0,1.015,0.447,1.015,1
	c0,0.344-0.167,0.646-0.427,0.827l-1.265,1.275c-0.195,0.197-0.453,0.296-0.71,0.296c-0.254,0-0.509-0.097-0.704-0.29
	C30.403,10.72,30.4,10.087,30.79,9.694z M26.564,13.954l1.408-1.42c0.388-0.393,1.021-0.395,1.414-0.006
	c0.392,0.389,0.395,1.022,0.006,1.414l-1.408,1.42c-0.195,0.197-0.453,0.296-0.71,0.296c-0.254,0-0.509-0.097-0.704-0.29
	C26.178,14.979,26.175,14.346,26.564,13.954z M18.114,22.475l1.409-1.421c0.388-0.393,1.022-0.395,1.414-0.006
	s0.395,1.021,0.006,1.414l-1.409,1.421c-0.195,0.197-0.453,0.296-0.71,0.296c-0.254,0-0.509-0.097-0.704-0.29
	C17.728,23.5,17.725,22.867,18.114,22.475z M13.889,26.734l1.409-1.42c0.388-0.393,1.021-0.396,1.414-0.006
	c0.392,0.389,0.395,1.022,0.006,1.414l-1.409,1.42c-0.195,0.197-0.453,0.296-0.71,0.296c-0.255,0-0.509-0.097-0.704-0.29
	C13.502,27.76,13.5,27.126,13.889,26.734z M9.664,30.994l1.408-1.42c0.388-0.393,1.022-0.396,1.414-0.006
	c0.392,0.389,0.395,1.022,0.006,1.414l-1.408,1.42c-0.195,0.197-0.453,0.296-0.71,0.296c-0.254,0-0.509-0.097-0.704-0.29
	C9.277,32.02,9.274,31.386,9.664,30.994z M6.148,36.958c-0.254,0-0.509-0.097-0.704-0.29c-0.392-0.389-0.395-1.022-0.006-1.414
	l1.408-1.42c0.388-0.393,1.021-0.396,1.414-0.006c0.392,0.389,0.395,1.022,0.006,1.414l-1.408,1.42
	C6.663,36.859,6.406,36.958,6.148,36.958z M11.011,40.908c-0.195,0.195-0.451,0.293-0.707,0.293s-0.512-0.098-0.707-0.293
	l-1.414-1.414c-0.391-0.391-0.391-1.023,0-1.414s1.023-0.391,1.414,0l1.414,1.414C11.402,39.885,11.402,40.518,11.011,40.908z
	 M15.254,45.15c-0.195,0.195-0.451,0.293-0.707,0.293s-0.512-0.098-0.707-0.293l-1.414-1.414c-0.391-0.391-0.391-1.023,0-1.414
	s1.023-0.391,1.414,0l1.414,1.414C15.645,44.127,15.645,44.76,15.254,45.15z M19.497,49.394c-0.195,0.195-0.451,0.293-0.707,0.293
	s-0.512-0.098-0.707-0.293l-1.414-1.414c-0.391-0.391-0.391-1.023,0-1.414s1.023-0.391,1.414,0l1.414,1.414
	C19.887,48.37,19.887,49.003,19.497,49.394z M23.739,53.636c-0.195,0.195-0.451,0.293-0.707,0.293s-0.512-0.098-0.707-0.293
	l-1.414-1.414c-0.391-0.391-0.391-1.023,0-1.414s1.023-0.391,1.414,0l1.414,1.414C24.13,52.612,24.13,53.245,23.739,53.636z
	 M23.759,19.622c-0.195,0.197-0.453,0.296-0.71,0.296c-0.254,0-0.509-0.097-0.704-0.29c-0.392-0.389-0.395-1.022-0.006-1.414
	l1.408-1.42c0.388-0.393,1.021-0.395,1.414-0.006c0.392,0.389,0.395,1.022,0.006,1.414L23.759,19.622z M27.954,52.243l-1.395,1.433
	c-0.196,0.201-0.456,0.303-0.716,0.303c-0.251,0-0.503-0.095-0.698-0.283c-0.396-0.386-0.404-1.019-0.019-1.414l1.395-1.433
	c0.385-0.396,1.019-0.403,1.414-0.02C28.331,51.215,28.339,51.848,27.954,52.243z M32.14,47.945l-1.396,1.433
	c-0.196,0.201-0.456,0.302-0.716,0.302c-0.251,0-0.503-0.095-0.698-0.283c-0.396-0.386-0.404-1.019-0.019-1.415l1.396-1.433
	c0.385-0.396,1.019-0.402,1.414-0.019C32.517,46.916,32.525,47.549,32.14,47.945z M36.325,43.646l-1.396,1.433
	c-0.196,0.201-0.456,0.302-0.716,0.302c-0.251,0-0.503-0.095-0.698-0.283c-0.396-0.386-0.404-1.019-0.019-1.415l1.396-1.433
	c0.385-0.396,1.018-0.401,1.414-0.019C36.702,42.617,36.71,43.25,36.325,43.646z M35.917,9c0-0.553,0.448-1,1-1h2
	c0.552,0,1,0.447,1,1s-0.448,1-1,1h-2C36.365,10,35.917,9.553,35.917,9z M40.511,39.347l-1.395,1.433
	c-0.196,0.201-0.456,0.303-0.716,0.303c-0.251,0-0.503-0.095-0.698-0.283c-0.396-0.386-0.404-1.019-0.019-1.414l1.395-1.433
	c0.386-0.396,1.019-0.403,1.414-0.02C40.888,38.318,40.896,38.951,40.511,39.347z M39.5,15c0-2.757,2.243-5,5-5s5,2.243,5,5
	s-2.243,5-5,5S39.5,17.757,39.5,15z M44.697,35.049l-1.396,1.433c-0.196,0.201-0.456,0.302-0.716,0.302
	c-0.251,0-0.503-0.095-0.698-0.283c-0.396-0.386-0.404-1.019-0.019-1.415l1.396-1.433c0.386-0.396,1.019-0.402,1.414-0.019
	C45.074,34.02,45.082,34.652,44.697,35.049z M48.882,30.75l-1.396,1.433c-0.196,0.201-0.456,0.302-0.716,0.302
	c-0.251,0-0.503-0.095-0.698-0.283c-0.396-0.386-0.404-1.019-0.019-1.415l1.396-1.433c0.385-0.396,1.019-0.402,1.414-0.019
	C49.259,29.721,49.268,30.354,48.882,30.75z M51.5,27c0,0.553-0.448,1-1,1s-1-0.447-1-1v-2c0-0.553,0.448-1,1-1s1,0.447,1,1V27z
	 M51.5,21c0,0.553-0.448,1-1,1s-1-0.447-1-1v-2c0-0.553,0.448-1,1-1s1,0.447,1,1V21z"/>
<g>
</g>
<g>
</g>
<g>
</g>
<g>
</g>
<g>
</g>
<g>
</g>
<g>
</g>
<g>
</g>
<g>
</g>
<g>
</g>
<g>
</g>
<g>
</g>
<g>
</g>
<g>
</g>
<g>
</g>
</svg>
