<?xml version="1.0" encoding="iso-8859-1"?>
<!-- Generator: Adobe Illustrator 18.0.0, SVG Export Plug-In . SVG Version: 6.00 Build 0)  -->
<!DOCTYPE svg PUBLIC "-//W3C//DTD SVG 1.1//EN" "http://www.w3.org/Graphics/SVG/1.1/DTD/svg11.dtd">
<svg version="1.1" id="Capa_1" xmlns="http://www.w3.org/2000/svg" xmlns:xlink="http://www.w3.org/1999/xlink" x="0px" y="0px"
	 viewBox="0 0 60 60" style="enable-background:new 0 0 60 60;" xml:space="preserve">
<g>
	<path d="M59.206,0.293c-0.391-0.391-1.023-0.391-1.414,0L54.085,4H30.802L1.533,33.511c-1.376,1.376-1.376,3.614,0,4.99
		l20.466,20.466C22.664,59.633,23.551,60,24.494,60s1.829-0.367,2.505-1.043l28.501-29.271V5.414l3.707-3.707
		C59.597,1.316,59.597,0.684,59.206,0.293z M30.929,12.899c0.38-0.38,1.04-0.38,1.41-0.01c0.19,0.19,0.3,0.45,0.3,0.71
		c0,0.271-0.109,0.521-0.29,0.71c-0.189,0.19-0.45,0.29-0.71,0.29s-0.52-0.1-0.71-0.29c-0.18-0.189-0.29-0.45-0.29-0.71
		S30.749,13.08,30.929,12.899z M16.79,27.038l10.606-10.606c0.391-0.391,1.023-0.391,1.414,0s0.391,1.023,0,1.414L18.204,28.452
		c-0.195,0.195-0.451,0.293-0.707,0.293s-0.512-0.098-0.707-0.293C16.4,28.062,16.4,27.429,16.79,27.038z M24.16,31.99
		c0,0.26-0.11,0.52-0.301,0.71c-0.18,0.18-0.439,0.29-0.699,0.29c-0.271,0-0.53-0.11-0.71-0.301c-0.19-0.18-0.29-0.43-0.29-0.699
		c0-0.271,0.1-0.521,0.29-0.71c0.369-0.37,1.04-0.37,1.409,0C24.049,31.47,24.16,31.729,24.16,31.99z M25.276,49.666
		c-0.195,0.195-0.451,0.293-0.707,0.293s-0.512-0.098-0.707-0.293l-0.622-0.622c-0.811,0.538-1.761,0.829-2.757,0.829
		c-1.336,0-2.592-0.521-3.535-1.465c-0.391-0.391-0.391-1.024,0-1.414c0.391-0.391,1.023-0.391,1.414,0
		c0.886,0.886,2.285,1.069,3.396,0.568l-3.836-3.836l-2.802,0.35c-0.977,0.121-1.975-0.164-2.739-0.783
		c-0.746-0.605-1.201-1.459-1.279-2.402c-0.095-1.131,0.199-2.244,0.813-3.172l-0.781-0.781c-0.391-0.391-0.391-1.023,0-1.414
		s1.023-0.391,1.414,0l0.779,0.779c1.94-1.283,4.586-1.072,6.293,0.635c0.391,0.391,0.391,1.023,0,1.414s-1.023,0.391-1.414,0
		c-0.921-0.921-2.292-1.105-3.406-0.577l3.846,3.846l2.802-0.35c0.97-0.122,1.974,0.162,2.738,0.781
		c0.747,0.606,1.202,1.459,1.28,2.403c0.095,1.131-0.199,2.243-0.814,3.172l0.625,0.625C25.666,48.643,25.666,49.275,25.276,49.666z
		 M25.276,29.867c-0.391-0.391-0.391-1.023,0-1.414l10.606-10.607c0.391-0.391,1.023-0.391,1.414,0c0.391,0.391,0.391,1.023,0,1.414
		L26.69,29.867c-0.195,0.195-0.451,0.293-0.707,0.293S25.471,30.063,25.276,29.867z M40.832,22.796c0.391-0.391,1.023-0.391,1.414,0
		s0.391,1.023,0,1.414l-7.071,7.071c-0.195,0.195-0.451,0.293-0.707,0.293s-0.512-0.098-0.707-0.293
		c-0.391-0.391-0.391-1.023,0-1.414L40.832,22.796z M29.518,36.938l-1.414,1.414c-0.195,0.195-0.451,0.293-0.707,0.293
		s-0.512-0.098-0.707-0.293c-0.391-0.391-0.391-1.023,0-1.414l1.414-1.414c0.391-0.391,1.023-0.391,1.414,0
		S29.909,36.547,29.518,36.938z M30.639,33.399c0-0.26,0.11-0.52,0.29-0.71c0.38-0.37,1.04-0.37,1.42,0
		c0.181,0.19,0.29,0.45,0.29,0.71c0,0.271-0.109,0.53-0.29,0.71c-0.189,0.19-0.45,0.29-0.71,0.29s-0.52-0.1-0.71-0.29
		C30.749,33.92,30.639,33.67,30.639,33.399z M43.661,32.695L33.054,43.302c-0.195,0.195-0.451,0.293-0.707,0.293
		s-0.512-0.098-0.707-0.293c-0.391-0.391-0.391-1.023,0-1.414l10.606-10.606c0.391-0.391,1.023-0.391,1.414,0
		S44.051,32.305,43.661,32.695z M47.189,29.16c-0.18,0.189-0.439,0.29-0.699,0.29c-0.261,0-0.521-0.101-0.71-0.29
		c-0.181-0.181-0.29-0.44-0.29-0.71c0-0.261,0.109-0.521,0.29-0.71c0.38-0.37,1.039-0.37,1.409,0c0.19,0.189,0.301,0.449,0.301,0.71
		C47.49,28.72,47.379,28.979,47.189,29.16z M44.499,20c-2.757,0-5-2.243-5-5s2.243-5,5-5s5,2.243,5,5S47.256,20,44.499,20z"/>
	<path d="M13.093,40.725c0.033,0.396,0.228,0.756,0.547,1.016c0.343,0.279,0.793,0.405,1.231,0.352l1.259-0.157l-2.742-2.742
		C13.164,39.666,13.049,40.188,13.093,40.725z"/>
	<path d="M22.925,43.605c-0.344-0.278-0.797-0.409-1.229-0.351l-1.26,0.157l2.741,2.741c0.225-0.474,0.34-0.996,0.296-1.532
		C23.44,44.226,23.245,43.865,22.925,43.605z"/>
</g>
<g>
</g>
<g>
</g>
<g>
</g>
<g>
</g>
<g>
</g>
<g>
</g>
<g>
</g>
<g>
</g>
<g>
</g>
<g>
</g>
<g>
</g>
<g>
</g>
<g>
</g>
<g>
</g>
<g>
</g>
</svg>
