<?xml version="1.0" encoding="iso-8859-1"?>
<!-- Generator: Adobe Illustrator 18.0.0, SVG Export Plug-In . SVG Version: 6.00 Build 0)  -->
<!DOCTYPE svg PUBLIC "-//W3C//DTD SVG 1.1//EN" "http://www.w3.org/Graphics/SVG/1.1/DTD/svg11.dtd">
<svg version="1.1" id="Capa_1" xmlns="http://www.w3.org/2000/svg" xmlns:xlink="http://www.w3.org/1999/xlink" x="0px" y="0px"
	 viewBox="0 0 60 60" style="enable-background:new 0 0 60 60;" xml:space="preserve">
<g>
	<path d="M40,41.586l-5,5l-5-5l-5,5l-5-5l-5,5l-4-4v14.854C11,58.852,12.148,60,13.561,60h32.879C47.852,60,49,58.852,49,57.439
		V42.586l-4,4L40,41.586z"/>
	<path d="M46.439,4H31V1c0-0.553-0.447-1-1-1s-1,0.447-1,1v3H13.561C12.148,4,11,5.148,11,6.561v28.854l4,4l5-5l5,5l5-5l5,5l5-5l5,5
		l4-4V6.561C49,5.148,47.852,4,46.439,4z M30,18c-2.757,0-5-2.243-5-5s2.243-5,5-5s5,2.243,5,5S32.757,18,30,18z"/>
</g>
<g>
</g>
<g>
</g>
<g>
</g>
<g>
</g>
<g>
</g>
<g>
</g>
<g>
</g>
<g>
</g>
<g>
</g>
<g>
</g>
<g>
</g>
<g>
</g>
<g>
</g>
<g>
</g>
<g>
</g>
</svg>
