<?xml version="1.0" encoding="iso-8859-1"?>
<!-- Generator: Adobe Illustrator 18.0.0, SVG Export Plug-In . SVG Version: 6.00 Build 0)  -->
<!DOCTYPE svg PUBLIC "-//W3C//DTD SVG 1.1//EN" "http://www.w3.org/Graphics/SVG/1.1/DTD/svg11.dtd">
<svg version="1.1" id="Capa_1" xmlns="http://www.w3.org/2000/svg" xmlns:xlink="http://www.w3.org/1999/xlink" x="0px" y="0px"
	 viewBox="0 0 60 60" style="enable-background:new 0 0 60 60;" xml:space="preserve">
<g>
	<path d="M60,4H0v48h2v4h10v-4h36v4h10v-4h2V4z M58,16h-2v-1h2V16z M58,38h-2V18h2V38z M56,40h2v1h-2V40z M58,50H48H12H2V6h56v7h-2
		v-2.992C56,8.9,55.1,8,53.992,8H6.008C4.9,8,4,8.9,4,10.008v35.984C4,47.1,4.9,48,6.008,48h47.984C55.1,48,56,47.1,56,45.992V43h2
		V50z M49,28c0,3.296-1.336,6.284-3.494,8.455c-0.009,0.009-0.011,0.021-0.02,0.031s-0.021,0.012-0.03,0.02
		C43.284,38.664,40.296,40,37,40s-6.284-1.336-8.455-3.494c-0.009-0.009-0.021-0.011-0.03-0.02s-0.012-0.021-0.02-0.031
		C26.336,34.284,25,31.296,25,28s1.336-6.284,3.494-8.455c0.009-0.009,0.011-0.021,0.02-0.031s0.021-0.012,0.03-0.02
		C30.716,17.336,33.704,16,37,16s6.284,1.336,8.455,3.494c0.009,0.009,0.021,0.011,0.03,0.02s0.012,0.021,0.02,0.031
		C47.664,21.716,49,24.704,49,28z M14,37c0-0.553,0.447-1,1-1V22c-0.553,0-1-0.447-1-1s0.447-1,1-1v-1c0-0.553,0.447-1,1-1
		s1,0.447,1,1v20c0,0.553-0.447,1-1,1s-1-0.447-1-1v-1C14.447,38,14,37.553,14,37z M13,37c0,0.553-0.447,1-1,1v1
		c0,0.553-0.447,1-1,1s-1-0.447-1-1V19c0-0.553,0.447-1,1-1s1,0.447,1,1v1c0.553,0,1,0.447,1,1s-0.447,1-1,1v14
		C12.553,36,13,36.447,13,37z"/>
	<circle cx="37" cy="28" r="2"/>
	<path d="M44.071,22.343c-0.195,0.195-0.451,0.293-0.707,0.293s-0.512-0.098-0.707-0.293c-0.391-0.391-0.391-1.023,0-1.414
		l0.667-0.667c-1.482-1.213-3.316-2.011-5.324-2.211V19c0,0.553-0.447,1-1,1s-1-0.447-1-1v-0.949
		c-2.008,0.2-3.842,0.998-5.324,2.211l0.667,0.667c0.391,0.391,0.391,1.023,0,1.414c-0.195,0.195-0.451,0.293-0.707,0.293
		s-0.512-0.098-0.707-0.293l-0.667-0.667c-1.213,1.482-2.011,3.316-2.211,5.324H28c0.553,0,1,0.447,1,1s-0.447,1-1,1h-0.949
		c0.2,2.008,0.998,3.842,2.211,5.324l0.667-0.667c0.391-0.391,1.023-0.391,1.414,0s0.391,1.023,0,1.414l-0.667,0.667
		c1.482,1.213,3.316,2.011,5.324,2.211V37c0-0.553,0.447-1,1-1s1,0.447,1,1v0.949c2.008-0.2,3.842-0.998,5.324-2.211l-0.667-0.667
		c-0.391-0.391-0.391-1.023,0-1.414s1.023-0.391,1.414,0l0.667,0.667c1.213-1.482,2.011-3.316,2.211-5.324H46c-0.553,0-1-0.447-1-1
		s0.447-1,1-1h0.949c-0.2-2.008-0.998-3.842-2.211-5.324L44.071,22.343z M37,32c-2.206,0-4-1.794-4-4s1.794-4,4-4s4,1.794,4,4
		S39.206,32,37,32z"/>
</g>
<g>
</g>
<g>
</g>
<g>
</g>
<g>
</g>
<g>
</g>
<g>
</g>
<g>
</g>
<g>
</g>
<g>
</g>
<g>
</g>
<g>
</g>
<g>
</g>
<g>
</g>
<g>
</g>
<g>
</g>
</svg>
