<?xml version="1.0" encoding="iso-8859-1"?>
<!-- Generator: Adobe Illustrator 18.0.0, SVG Export Plug-In . SVG Version: 6.00 Build 0)  -->
<!DOCTYPE svg PUBLIC "-//W3C//DTD SVG 1.1//EN" "http://www.w3.org/Graphics/SVG/1.1/DTD/svg11.dtd">
<svg version="1.1" id="Capa_1" xmlns="http://www.w3.org/2000/svg" xmlns:xlink="http://www.w3.org/1999/xlink" x="0px" y="0px"
	 viewBox="0 0 60 60" style="enable-background:new 0 0 60 60;" xml:space="preserve">
<g>
	<path d="M59,27c-4.092,0-7.613,2.473-9.159,6H49v-6h-2v-1c0-0.553-0.448-1-1-1s-1,0.447-1,1v1h-2v6h-1v-6h-2v-1
		c0-0.553-0.448-1-1-1s-1,0.447-1,1v1h-2v6h-1v-5h-3v-7.695C33.486,21.402,35.2,22,37,22s3.514-0.598,5-1.695V22
		c0,0.553,0.448,1,1,1s1-0.447,1-1v-1.722c1.494,1.105,3.216,1.707,5.024,1.707c1.791,0,3.497-0.593,4.976-1.682V22
		c0,0.553,0.448,1,1,1s1-0.447,1-1v-3.64V18C56,9.392,45.323,2.354,32,2.016V1c0-0.553-0.448-1-1-1s-1,0.447-1,1v1v0.016
		C16.677,2.354,6,9.392,6,18v0.36V22c0,0.553,0.448,1,1,1s1-0.447,1-1v-1.697c1.479,1.089,3.184,1.682,4.976,1.682c0,0,0,0,0,0
		c1.808,0,3.53-0.602,5.023-1.707V22c0,0.553,0.448,1,1,1s1-0.447,1-1v-1.753c1.486,1.097,3.2,1.695,5,1.695s3.514-0.598,5-1.695V28
		h-3v5H13v-1H9v-3h6c0.552,0,1-0.447,1-1s-0.448-1-1-1H1c-0.552,0-1,0.447-1,1s0.448,1,1,1h6v3H3v13h8v0.356
		c0.001-0.001,0.001-0.001,0.002-0.002C9.752,46.899,9,48.862,9,51c0,2.472,1.002,4.713,2.621,6.341
		c0.007,0.007,0.009,0.017,0.016,0.023s0.016,0.009,0.024,0.016C13.288,58.998,15.529,60,18,60s4.712-1.002,6.34-2.62
		c0.007-0.007,0.017-0.009,0.024-0.016s0.009-0.016,0.016-0.023c0.679-0.684,1.242-1.48,1.675-2.351
		c-0.002,0.003-0.003,0.007-0.004,0.01h22.092C48.058,55.322,48,55.653,48,56c0,2.206,1.794,4,4,4s4-1.794,4-4s-1.794-4-4-4
		c-0.347,0-0.678,0.058-1,0.142V37c0-4.411,3.589-8,8-8c0.552,0,1-0.447,1-1S59.552,27,59,27z M53.992,17.637
		c-1.371,1.518-3.122,2.349-4.968,2.349c-1.866,0-3.639-0.846-5.027-2.39c-0.003-0.172-0.024-0.335-0.031-0.505
		c-0.015-0.391-0.036-0.779-0.071-1.159c-0.025-0.271-0.057-0.537-0.091-0.803c-0.043-0.328-0.093-0.65-0.15-0.969
		c-0.049-0.276-0.099-0.55-0.159-0.82c-0.066-0.298-0.144-0.588-0.223-0.877c-0.072-0.265-0.139-0.533-0.221-0.79
		c-0.099-0.307-0.214-0.601-0.327-0.897c-0.158-0.414-0.329-0.815-0.514-1.206c-0.125-0.265-0.247-0.533-0.385-0.786
		c-0.125-0.23-0.263-0.447-0.398-0.667c-0.138-0.226-0.275-0.45-0.422-0.665c-0.144-0.209-0.294-0.41-0.446-0.608
		c-0.16-0.209-0.325-0.412-0.495-0.609c-0.156-0.181-0.313-0.359-0.476-0.529c-0.194-0.202-0.396-0.391-0.601-0.578
		c-0.117-0.107-0.224-0.229-0.344-0.331C47.401,6.679,53.743,11.705,53.992,17.637z M38,29h2v4h-2V29z M25,19.941
		c-1.853,0-3.608-0.844-4.986-2.371C20.158,10.113,24.253,4.63,30,4.058v13.497C28.62,19.091,26.86,19.941,25,19.941z M29,30h4v3h-4
		V30z M22,52h2.92c-0.17,1.183-0.636,2.269-1.322,3.184l-2.063-2.063c-0.391-0.391-1.023-0.391-1.414,0s-0.391,1.023,0,1.414
		l2.063,2.063C21.269,57.284,20.183,57.75,19,57.92V55c0-0.553-0.448-1-1-1s-1,0.447-1,1v2.92c-1.183-0.17-2.269-0.636-3.184-1.322
		l2.063-2.063c0.391-0.391,0.391-1.023,0-1.414s-1.024-0.391-1.414,0l-2.063,2.063C11.716,54.269,11.25,53.183,11.08,52H14
		c0.552,0,1-0.447,1-1s-0.448-1-1-1h-2.92c0.17-1.183,0.636-2.269,1.322-3.184l2.063,2.063c0.195,0.195,0.451,0.293,0.707,0.293
		s0.512-0.098,0.707-0.293c0.391-0.391,0.391-1.023,0-1.414l-2.063-2.063c0.915-0.686,2.001-1.151,3.184-1.322V47
		c0,0.553,0.448,1,1,1s1-0.447,1-1v-2.92c1.183,0.17,2.269,0.636,3.184,1.322l-2.063,2.063c-0.391,0.391-0.391,1.023,0,1.414
		c0.195,0.195,0.451,0.293,0.707,0.293s0.512-0.098,0.707-0.293l2.063-2.063c0.686,0.915,1.151,2.001,1.322,3.184H22
		c-0.552,0-1,0.447-1,1S21.448,52,22,52z M47,51H29.038l-0.076-0.917C28.493,44.429,23.678,40,18,40
		c-0.61,0-1.227,0.052-1.833,0.155L15,40.353V37h32V51z M47,33h-2v-4h2V33z"/>
	<circle cx="18" cy="51" r="1"/>
</g>
<g>
</g>
<g>
</g>
<g>
</g>
<g>
</g>
<g>
</g>
<g>
</g>
<g>
</g>
<g>
</g>
<g>
</g>
<g>
</g>
<g>
</g>
<g>
</g>
<g>
</g>
<g>
</g>
<g>
</g>
</svg>
