<?xml version="1.0" encoding="iso-8859-1"?>
<!-- Generator: Adobe Illustrator 18.0.0, SVG Export Plug-In . SVG Version: 6.00 Build 0)  -->
<!DOCTYPE svg PUBLIC "-//W3C//DTD SVG 1.1//EN" "http://www.w3.org/Graphics/SVG/1.1/DTD/svg11.dtd">
<svg version="1.1" id="Capa_1" xmlns="http://www.w3.org/2000/svg" xmlns:xlink="http://www.w3.org/1999/xlink" x="0px" y="0px"
	 viewBox="0 0 60 60" style="enable-background:new 0 0 60 60;" xml:space="preserve">
<g>
	<path d="M25.29,36.71C25.479,36.89,25.729,37,26,37c0.27,0,0.52-0.11,0.7-0.29C26.89,36.52,27,36.26,27,36
		c0-0.271-0.11-0.521-0.29-0.71c-0.37-0.37-1.05-0.37-1.42,0C25.109,35.479,25,35.729,25,36C25,36.27,25.109,36.52,25.29,36.71z"/>
	<path d="M20.293,36.707C20.488,36.902,20.744,37,21,37s0.512-0.098,0.707-0.293l3-3c0.391-0.391,0.391-1.023,0-1.414
		s-1.023-0.391-1.414,0l-3,3C19.902,35.684,19.902,36.316,20.293,36.707z"/>
	<path d="M18.29,37.29C18.109,37.479,18,37.74,18,38s0.109,0.52,0.29,0.71C18.479,38.89,18.74,39,19,39s0.52-0.11,0.71-0.29
		C19.89,38.52,20,38.26,20,38s-0.11-0.521-0.29-0.71C19.34,36.92,18.66,36.92,18.29,37.29z"/>
	<path d="M15,48c0.256,0,0.512-0.098,0.707-0.293l9-9c0.391-0.391,0.391-1.023,0-1.414s-1.023-0.391-1.414,0l-9,9
		c-0.391,0.391-0.391,1.023,0,1.414C14.488,47.902,14.744,48,15,48z"/>
	<path d="M15,38c0.256,0,0.512-0.098,0.707-0.293l4-4c0.391-0.391,0.391-1.023,0-1.414s-1.023-0.391-1.414,0l-4,4
		c-0.391,0.391-0.391,1.023,0,1.414C14.488,37.902,14.744,38,15,38z"/>
	<path d="M15,43c0.256,0,0.512-0.098,0.707-0.293l2-2c0.391-0.391,0.391-1.023,0-1.414s-1.023-0.391-1.414,0l-2,2
		c-0.391,0.391-0.391,1.023,0,1.414C14.488,42.902,14.744,43,15,43z"/>
	<path d="M59.744,11C58,5.181,52.993,0.929,47,0.14V0L31,0v0h-0.181h-1.639H29v0.001l-14.002,0C8.197,0.012,2.195,4.523,0.257,11H0
		v1.16V14v46h39h17h4V14v-1.84V11H59.744z M44.977,2l0.953,0.04C51.287,2.42,55.881,5.963,57.65,11H45h-0.204
		c-0.938-3.868-3.391-7.069-6.661-9H44.977z M31,2.001C36.511,2.08,41.259,5.776,42.742,11H31V2.001z M31,13h12v1
		c0,3.309-2.691,6-6,6s-6-2.691-6-6V13z M37,25v28H4V25H37z M17,14v-1h12v1c0,3.309-2.691,6-6,6S17,17.309,17,14z M29,11H17.258
		C18.741,5.776,23.489,2.08,29,2.001V11z M15.023,2h6.841c-3.27,1.931-5.723,5.132-6.661,9H15H2.348
		C4.212,5.666,9.288,2.011,15.023,2z M2,13h12.802H15v1c0,3.309-2.691,6-6,6H8c-3.309,0-6-2.691-6-6V13z M3,59H2
		c-0.553,0-1-0.447-1-1s0.447-1,1-1h1c0.553,0,1,0.447,1,1S3.553,59,3,59z M4,56H3c-0.553,0-1-0.447-1-1s0.447-1,1-1h1
		c0.553,0,1,0.447,1,1S4.553,56,4,56z M7,59H6c-0.553,0-1-0.447-1-1s0.447-1,1-1h1c0.553,0,1,0.447,1,1S7.553,59,7,59z M8,56H7
		c-0.553,0-1-0.447-1-1s0.447-1,1-1h1c0.553,0,1,0.447,1,1S8.553,56,8,56z M11,59h-1c-0.553,0-1-0.447-1-1s0.447-1,1-1h1
		c0.553,0,1,0.447,1,1S11.553,59,11,59z M12,56h-1c-0.553,0-1-0.447-1-1s0.447-1,1-1h1c0.553,0,1,0.447,1,1S12.553,56,12,56z M15,59
		h-1c-0.553,0-1-0.447-1-1s0.447-1,1-1h1c0.553,0,1,0.447,1,1S15.553,59,15,59z M16,56h-1c-0.553,0-1-0.447-1-1s0.447-1,1-1h1
		c0.553,0,1,0.447,1,1S16.553,56,16,56z M19,59h-1c-0.553,0-1-0.447-1-1s0.447-1,1-1h1c0.553,0,1,0.447,1,1S19.553,59,19,59z M20,56
		h-1c-0.553,0-1-0.447-1-1s0.447-1,1-1h1c0.553,0,1,0.447,1,1S20.553,56,20,56z M23,59h-1c-0.553,0-1-0.447-1-1s0.447-1,1-1h1
		c0.553,0,1,0.447,1,1S23.553,59,23,59z M24,56h-1c-0.553,0-1-0.447-1-1s0.447-1,1-1h1c0.553,0,1,0.447,1,1S24.553,56,24,56z M27,59
		h-1c-0.553,0-1-0.447-1-1s0.447-1,1-1h1c0.553,0,1,0.447,1,1S27.553,59,27,59z M28,56h-1c-0.553,0-1-0.447-1-1s0.447-1,1-1h1
		c0.553,0,1,0.447,1,1S28.553,56,28,56z M31,59h-1c-0.553,0-1-0.447-1-1s0.447-1,1-1h1c0.553,0,1,0.447,1,1S31.553,59,31,59z M32,56
		h-1c-0.553,0-1-0.447-1-1s0.447-1,1-1h1c0.553,0,1,0.447,1,1S32.553,56,32,56z M35,59h-1c-0.553,0-1-0.447-1-1s0.447-1,1-1h1
		c0.553,0,1,0.447,1,1S35.553,59,35,59z M36,56h-1c-0.553,0-1-0.447-1-1s0.447-1,1-1h1c0.553,0,1,0.447,1,1S36.553,56,36,56z M39,59
		h-1c-0.553,0-1-0.447-1-1s0.447-1,1-1h1c0.553,0,1,0.447,1,1S39.553,59,39,59z M54,58H41v-2v-1v-2v-7h13V58z M54,44H41V33.5
		c0-3.584,2.916-6.5,6.5-6.5s6.5,2.916,6.5,6.5V44z M58,14c0,3.309-2.691,6-6,6h-1c-3.309,0-6-2.691-6-6v-1h0.198H58V14z"/>
</g>
<g>
</g>
<g>
</g>
<g>
</g>
<g>
</g>
<g>
</g>
<g>
</g>
<g>
</g>
<g>
</g>
<g>
</g>
<g>
</g>
<g>
</g>
<g>
</g>
<g>
</g>
<g>
</g>
<g>
</g>
</svg>
