<?xml version="1.0" encoding="iso-8859-1"?>
<!-- Generator: Adobe Illustrator 18.0.0, SVG Export Plug-In . SVG Version: 6.00 Build 0)  -->
<!DOCTYPE svg PUBLIC "-//W3C//DTD SVG 1.1//EN" "http://www.w3.org/Graphics/SVG/1.1/DTD/svg11.dtd">
<svg version="1.1" id="Capa_1" xmlns="http://www.w3.org/2000/svg" xmlns:xlink="http://www.w3.org/1999/xlink" x="0px" y="0px"
	 viewBox="0 0 60 60" style="enable-background:new 0 0 60 60;" xml:space="preserve">
<g>
	<path d="M59,13V9h1V3h-3V0H3v3H0v6h1v4v1.5V49H0v11h18h2h20h2h18V49h-1V14.5V13z M18,53c-0.553,0-1,0.447-1,1s0.447,1,1,1v1h-1
		c-0.553,0-1,0.447-1,1s0.447,1,1,1h-3c0.553,0,1-0.447,1-1s-0.447-1-1-1h-1c-0.553,0-1,0.447-1,1s0.447,1,1,1h-3
		c0.553,0,1-0.447,1-1s-0.447-1-1-1H9c-0.553,0-1,0.447-1,1s0.447,1,1,1H6c0.553,0,1-0.447,1-1s-0.447-1-1-1H5c-0.553,0-1,0.447-1,1
		s0.447,1,1,1H2c0.553,0,1-0.447,1-1s-0.447-1-1-1v-1h1c0.553,0,1-0.447,1-1s-0.447-1-1-1H2v-2h1c0,0.553,0.447,1,1,1h1
		c0.553,0,1-0.447,1-1h1c0,0.553,0.447,1,1,1h1c0.553,0,1-0.447,1-1h1c0,0.553,0.447,1,1,1h1c0.553,0,1-0.447,1-1h1
		c0,0.553,0.447,1,1,1h1c0.553,0,1-0.447,1-1V53z M18,49H3V18.238C3.716,18.718,4.575,19,5.5,19c1.421,0,2.675-0.675,3.5-1.706
		C9.825,18.325,11.079,19,12.5,19s2.675-0.675,3.5-1.706c0.518,0.648,1.204,1.146,2,1.43V49z M3,14.5V13V9h5v5.5
		C8,15.879,6.879,17,5.5,17S3,15.879,3,14.5z M17,14.5V9h5v5.5c0,1.379-1.121,2.5-2.5,2.5c-0.108,0-0.213-0.02-0.354-0.04
		l-0.22-0.033C17.824,16.667,17,15.681,17,14.5z M24.023,18.251c0.21,0.139,0.434,0.259,0.667,0.362
		c0.042,0.019,0.084,0.036,0.127,0.054c0.237,0.096,0.482,0.175,0.738,0.229c0.038,0.008,0.076,0.013,0.114,0.02
		C25.939,18.967,26.215,19,26.5,19s0.561-0.033,0.832-0.084c0.038-0.007,0.076-0.012,0.114-0.02c0.255-0.055,0.5-0.133,0.738-0.229
		c0.043-0.017,0.085-0.035,0.127-0.054c0.233-0.103,0.456-0.223,0.667-0.362c0.032-0.021,0.062-0.045,0.094-0.067
		c0.215-0.151,0.421-0.315,0.606-0.5c0.005-0.005,0.01-0.011,0.015-0.017c0.108-0.109,0.212-0.222,0.308-0.342
		c0.097,0.12,0.2,0.233,0.308,0.342c0.005,0.005,0.01,0.011,0.015,0.017c0.185,0.185,0.391,0.349,0.606,0.5
		c0.031,0.022,0.061,0.045,0.094,0.067c0.21,0.139,0.434,0.259,0.667,0.362c0.042,0.019,0.084,0.036,0.127,0.054
		c0.237,0.096,0.482,0.175,0.738,0.229c0.038,0.008,0.076,0.013,0.114,0.02C32.939,18.967,33.215,19,33.5,19
		s0.561-0.033,0.832-0.084c0.038-0.007,0.076-0.012,0.114-0.02c0.255-0.055,0.5-0.133,0.738-0.229
		c0.043-0.017,0.085-0.035,0.127-0.054c0.233-0.103,0.456-0.223,0.667-0.362c0.007-0.005,0.016-0.008,0.023-0.013V33H24V18.238
		C24.007,18.243,24.016,18.246,24.023,18.251z M31,14.5V9h5v5.5c0,1.379-1.121,2.5-2.5,2.5S31,15.879,31,14.5z M36,40v14H24V40H36z
		 M47.5,19c1.421,0,2.675-0.675,3.5-1.706C51.825,18.325,53.079,19,54.5,19c0.925,0,1.784-0.282,2.5-0.762V49H42V18.724
		c0.796-0.284,1.482-0.782,2-1.43C44.825,18.325,46.079,19,47.5,19z M45,14.5V9h5v5.5c0,1.379-1.121,2.5-2.5,2.5S45,15.879,45,14.5z
		 M58,53c-0.553,0-1,0.447-1,1s0.447,1,1,1v1h-1c-0.553,0-1,0.447-1,1s0.447,1,1,1h-3c0.553,0,1-0.447,1-1s-0.447-1-1-1h-1
		c-0.553,0-1,0.447-1,1s0.447,1,1,1h-3c0.553,0,1-0.447,1-1s-0.447-1-1-1h-1c-0.553,0-1,0.447-1,1s0.447,1,1,1h-3
		c0.553,0,1-0.447,1-1s-0.447-1-1-1h-1c-0.553,0-1,0.447-1,1s0.447,1,1,1h-3c0.553,0,1-0.447,1-1s-0.447-1-1-1v-1h1
		c0.553,0,1-0.447,1-1s-0.447-1-1-1h-1v-2h1c0,0.553,0.447,1,1,1h1c0.553,0,1-0.447,1-1h1c0,0.553,0.447,1,1,1h1
		c0.553,0,1-0.447,1-1h1c0,0.553,0.447,1,1,1h1c0.553,0,1-0.447,1-1h1c0,0.553,0.447,1,1,1h1c0.553,0,1-0.447,1-1V53z M58,7h-6h-2
		h-5h-2h-5h-2h-5h-2h-5h-2h-5h-2h-5H8H2V5h1h54h1V7z"/>
	<path d="M7,53H6c-0.553,0-1,0.447-1,1s0.447,1,1,1h1c0.553,0,1-0.447,1-1S7.553,53,7,53z"/>
	<path d="M15,53h-1c-0.553,0-1,0.447-1,1s0.447,1,1,1h1c0.553,0,1-0.447,1-1S15.553,53,15,53z"/>
	<path d="M11,53h-1c-0.553,0-1,0.447-1,1s0.447,1,1,1h1c0.553,0,1-0.447,1-1S11.553,53,11,53z"/>
	<path d="M47,53h-1c-0.553,0-1,0.447-1,1s0.447,1,1,1h1c0.553,0,1-0.447,1-1S47.553,53,47,53z"/>
	<path d="M55,53h-1c-0.553,0-1,0.447-1,1s0.447,1,1,1h1c0.553,0,1-0.447,1-1S55.553,53,55,53z"/>
	<path d="M51,53h-1c-0.553,0-1,0.447-1,1s0.447,1,1,1h1c0.553,0,1-0.447,1-1S51.553,53,51,53z"/>
	<path d="M5,27c0.256,0,0.512-0.098,0.707-0.293l4-4c0.391-0.391,0.391-1.023,0-1.414s-1.023-0.391-1.414,0l-4,4
		c-0.391,0.391-0.391,1.023,0,1.414C4.488,26.902,4.744,27,5,27z"/>
	<path d="M5,32c0.256,0,0.512-0.098,0.707-0.293l2-2c0.391-0.391,0.391-1.023,0-1.414s-1.023-0.391-1.414,0l-2,2
		c-0.391,0.391-0.391,1.023,0,1.414C4.488,31.902,4.744,32,5,32z"/>
	<path d="M8.29,26.29C8.109,26.479,8,26.74,8,27c0,0.27,0.109,0.52,0.29,0.71C8.479,27.89,8.74,28,9,28c0.27,0,0.52-0.11,0.71-0.29
		C9.89,27.52,10,27.27,10,27c0-0.26-0.11-0.521-0.29-0.71C9.34,25.92,8.67,25.92,8.29,26.29z"/>
	<path d="M10.293,25.707C10.488,25.902,10.744,26,11,26s0.512-0.098,0.707-0.293l3-3c0.391-0.391,0.391-1.023,0-1.414
		s-1.023-0.391-1.414,0l-3,3C9.902,24.684,9.902,25.316,10.293,25.707z"/>
	<path d="M13.293,26.293l-9,9c-0.391,0.391-0.391,1.023,0,1.414C4.488,36.902,4.744,37,5,37s0.512-0.098,0.707-0.293l9-9
		c0.391-0.391,0.391-1.023,0-1.414S13.684,25.902,13.293,26.293z"/>
	<path d="M15.29,24.29C15.109,24.479,15,24.729,15,25c0,0.27,0.109,0.52,0.29,0.71C15.479,25.89,15.729,26,16,26
		c0.27,0,0.52-0.11,0.71-0.29C16.89,25.52,17,25.27,17,25c0-0.271-0.11-0.521-0.29-0.71C16.34,23.92,15.649,23.92,15.29,24.29z"/>
	<path d="M43.293,26.707C43.488,26.902,43.744,27,44,27s0.512-0.098,0.707-0.293l4-4c0.391-0.391,0.391-1.023,0-1.414
		s-1.023-0.391-1.414,0l-4,4C42.902,25.684,42.902,26.316,43.293,26.707z"/>
	<path d="M44,32c0.256,0,0.512-0.098,0.707-0.293l2-2c0.391-0.391,0.391-1.023,0-1.414s-1.023-0.391-1.414,0l-2,2
		c-0.391,0.391-0.391,1.023,0,1.414C43.488,31.902,43.744,32,44,32z"/>
	<path d="M48.71,27.71C48.89,27.52,49,27.26,49,27s-0.11-0.521-0.29-0.71c-0.38-0.37-1.05-0.37-1.42,0C47.109,26.479,47,26.74,47,27
		s0.109,0.52,0.29,0.71C47.479,27.89,47.729,28,48,28C48.26,28,48.52,27.89,48.71,27.71z"/>
	<path d="M49.293,25.707C49.488,25.902,49.744,26,50,26s0.512-0.098,0.707-0.293l3-3c0.391-0.391,0.391-1.023,0-1.414
		s-1.023-0.391-1.414,0l-3,3C48.902,24.684,48.902,25.316,49.293,25.707z"/>
	<path d="M52.293,26.293l-9,9c-0.391,0.391-0.391,1.023,0,1.414C43.488,36.902,43.744,37,44,37s0.512-0.098,0.707-0.293l9-9
		c0.391-0.391,0.391-1.023,0-1.414S52.684,25.902,52.293,26.293z"/>
	<path d="M54.29,25.71C54.479,25.89,54.74,26,55,26s0.52-0.11,0.71-0.29C55.89,25.52,56,25.26,56,25s-0.11-0.521-0.29-0.71
		c-0.37-0.37-1.05-0.37-1.42,0C54.109,24.479,54,24.729,54,25C54,25.27,54.109,25.52,54.29,25.71z"/>
</g>
<g>
</g>
<g>
</g>
<g>
</g>
<g>
</g>
<g>
</g>
<g>
</g>
<g>
</g>
<g>
</g>
<g>
</g>
<g>
</g>
<g>
</g>
<g>
</g>
<g>
</g>
<g>
</g>
<g>
</g>
</svg>
