<?xml version="1.0" encoding="iso-8859-1"?>
<!-- Generator: Adobe Illustrator 18.0.0, SVG Export Plug-In . SVG Version: 6.00 Build 0)  -->
<!DOCTYPE svg PUBLIC "-//W3C//DTD SVG 1.1//EN" "http://www.w3.org/Graphics/SVG/1.1/DTD/svg11.dtd">
<svg version="1.1" id="Capa_1" xmlns="http://www.w3.org/2000/svg" xmlns:xlink="http://www.w3.org/1999/xlink" x="0px" y="0px"
	 viewBox="0 0 60 60" style="enable-background:new 0 0 60 60;" xml:space="preserve">
<g>
	<path d="M28.568,36H29v1c0,0.553,0.447,1,1,1s1-0.447,1-1v-1h0.432C32.297,36,33,35.297,33,34.432v-1.863
		C33,31.703,32.297,31,31.432,31h-2.863C27.703,31,27,31.703,27,32.568v1.863C27,35.297,27.703,36,28.568,36z M29,33h2v1h-2V33z"/>
	<g>
		<rect x="26" y="18" width="8" height="2"/>
		<g>
			<path d="M34,30v5c0-0.553,0.447-1,1-1h4.245C49.587,34,58,25.587,58,15.245V11h-2h-1.5h-4h-1h-4h-1H44V8h-2V6.889
				C42,3.09,38.91,0,35.111,0H24.889C21.09,0,18,3.09,18,6.889V8h-2v3h-0.5h-1h-4h-1h-4H4H2v4.245C2,25.587,10.413,34,20.755,34H25
				c0.553,0,1,0.447,1,1v-5H34z M53.978,16.332c0.04-0.551,0.529-0.959,1.069-0.925c0.551,0.039,0.965,0.519,0.925,1.069
				c-0.024,0.346-0.061,0.689-0.106,1.029c-0.067,0.502-0.497,0.866-0.99,0.866c-0.044,0-0.089-0.003-0.135-0.009
				c-0.547-0.074-0.931-0.577-0.857-1.125C53.923,16.939,53.955,16.637,53.978,16.332z M52.581,21.585
				c0.131-0.273,0.254-0.552,0.368-0.834c0.208-0.513,0.793-0.758,1.303-0.551c0.512,0.208,0.759,0.791,0.551,1.303
				c-0.13,0.319-0.269,0.635-0.417,0.945c-0.172,0.358-0.53,0.568-0.903,0.568c-0.145,0-0.291-0.031-0.431-0.098
				C52.554,22.681,52.343,22.083,52.581,21.585z M50.014,25.33c0.208-0.222,0.41-0.45,0.605-0.685
				c0.352-0.423,0.983-0.483,1.408-0.129c0.425,0.354,0.482,0.983,0.129,1.408c-0.221,0.266-0.448,0.523-0.684,0.774
				c-0.197,0.209-0.463,0.315-0.729,0.315c-0.245,0-0.491-0.09-0.685-0.271C49.656,26.366,49.636,25.733,50.014,25.33z
				 M46.435,28.13c0.266-0.149,0.527-0.307,0.783-0.471c0.467-0.301,1.084-0.164,1.382,0.3c0.299,0.465,0.164,1.084-0.3,1.382
				c-0.291,0.188-0.586,0.364-0.889,0.533c-0.154,0.087-0.322,0.128-0.487,0.128c-0.351,0-0.69-0.184-0.873-0.512
				C45.78,29.009,45.952,28.399,46.435,28.13z M4.135,17.502c-0.048-0.342-0.084-0.688-0.108-1.035
				c-0.04-0.551,0.374-1.03,0.925-1.069c0.547-0.045,1.029,0.373,1.069,0.925c0.022,0.303,0.053,0.604,0.095,0.902
				c0.077,0.547-0.305,1.053-0.852,1.129c-0.047,0.007-0.094,0.01-0.14,0.01C4.633,18.363,4.205,18.002,4.135,17.502z M6.945,22.91
				c-0.14,0.067-0.287,0.099-0.432,0.099c-0.373,0-0.73-0.209-0.902-0.567c-0.149-0.312-0.289-0.628-0.419-0.949
				c-0.207-0.512,0.04-1.095,0.552-1.302c0.513-0.208,1.095,0.04,1.302,0.552c0.114,0.282,0.236,0.56,0.368,0.834
				C7.653,22.074,7.443,22.671,6.945,22.91z M9.936,26.739C9.742,26.92,9.496,27.01,9.251,27.01c-0.267,0-0.532-0.106-0.729-0.315
				c-0.236-0.253-0.465-0.512-0.686-0.777c-0.352-0.425-0.293-1.056,0.133-1.408c0.425-0.354,1.055-0.293,1.408,0.133
				c0.193,0.234,0.395,0.462,0.604,0.684C10.358,25.729,10.338,26.361,9.936,26.739z M13.943,29.487
				c-0.183,0.328-0.522,0.512-0.873,0.512c-0.165,0-0.333-0.041-0.487-0.128c-0.303-0.169-0.599-0.347-0.889-0.534
				c-0.464-0.299-0.598-0.918-0.298-1.382c0.298-0.465,0.917-0.598,1.382-0.298c0.255,0.164,0.516,0.32,0.781,0.47
				C14.042,28.396,14.214,29.006,13.943,29.487z M38.5,32H38c-0.553,0-1-0.447-1-1s0.447-1,1-1h0.5c0.553,0,1,0.447,1,1
				S39.053,32,38.5,32z M42.179,29.707c0.298-0.06,0.593-0.129,0.883-0.208c0.529-0.146,1.082,0.168,1.228,0.702
				c0.146,0.532-0.169,1.082-0.702,1.228c-0.333,0.091-0.671,0.17-1.012,0.239c-0.067,0.014-0.134,0.02-0.199,0.02
				c-0.466,0-0.884-0.327-0.979-0.802C41.287,30.344,41.638,29.816,42.179,29.707z M42,10v1h-1.5h-1H36v-1H42z M24,6.444
				c0-0.442,0.441-0.657,0.777-0.521c3.33,1.377,7.115,1.377,10.445,0C35.561,5.786,36,6.002,36,6.444V8h-2v3h-3.5h-1H26V8h-2V6.444
				z M18.595,30.887c-0.097,0.474-0.514,0.8-0.979,0.8c-0.066,0-0.134-0.007-0.201-0.021c-0.34-0.069-0.676-0.148-1.008-0.237
				c-0.533-0.144-0.85-0.692-0.706-1.226c0.145-0.533,0.695-0.847,1.226-0.706c0.293,0.079,0.588,0.148,0.889,0.21
				C18.356,29.817,18.705,30.346,18.595,30.887z M18,11v-1h6v1h-3.5h-1H18z M22,32h-0.5c-0.553,0-1-0.447-1-1s0.447-1,1-1H22
				c0.553,0,1,0.447,1,1S22.553,32,22,32z M24,22v-6h12v6H24z"/>
			<path d="M39.245,36H35c-0.553,0-1-0.447-1-1v1v3h-3v19h-2V39h-3v-3v-1c0,0.553-0.447,1-1,1h-4.245
				C11.523,36,3.688,29.938,1,21.588l0,0v29.796c0,2.018,1.367,3.768,3.324,4.257L13.755,58c5.3,1.325,10.751,1.988,16.203,1.992
				C29.973,59.992,29.985,60,30,60s0.027-0.008,0.042-0.008c5.452-0.003,10.903-0.667,16.203-1.992l9.431-2.358
				C57.633,55.152,59,53.402,59,51.385V21.588l0,0C56.312,29.938,48.477,36,39.245,36z M7,49.35c0,0.553-0.447,1-1,1s-1-0.447-1-1
				v-1c0-0.553,0.447-1,1-1s1,0.447,1,1V49.35z M7,44.35c0,0.553-0.447,1-1,1s-1-0.447-1-1v-1c0-0.553,0.447-1,1-1s1,0.447,1,1
				V44.35z M7,39.35c0,0.553-0.447,1-1,1s-1-0.447-1-1v-1c0-0.553,0.447-1,1-1s1,0.447,1,1V39.35z M7,34.35c0,0.553-0.447,1-1,1
				s-1-0.447-1-1v-1c0-0.553,0.447-1,1-1s1,0.447,1,1V34.35z M55,50.03c0,0.553-0.447,1-1,1s-1-0.447-1-1v-1c0-0.553,0.447-1,1-1
				s1,0.447,1,1V50.03z M55,45.03c0,0.553-0.447,1-1,1s-1-0.447-1-1v-1c0-0.553,0.447-1,1-1s1,0.447,1,1V45.03z M55,40.03
				c0,0.553-0.447,1-1,1s-1-0.447-1-1v-1c0-0.553,0.447-1,1-1s1,0.447,1,1V40.03z M55,35.03c0,0.553-0.447,1-1,1s-1-0.447-1-1v-1
				c0-0.553,0.447-1,1-1s1,0.447,1,1V35.03z"/>
		</g>
	</g>
</g>
<g>
</g>
<g>
</g>
<g>
</g>
<g>
</g>
<g>
</g>
<g>
</g>
<g>
</g>
<g>
</g>
<g>
</g>
<g>
</g>
<g>
</g>
<g>
</g>
<g>
</g>
<g>
</g>
<g>
</g>
</svg>
