<?xml version="1.0" encoding="iso-8859-1"?>
<!-- Generator: Adobe Illustrator 18.0.0, SVG Export Plug-In . SVG Version: 6.00 Build 0)  -->
<!DOCTYPE svg PUBLIC "-//W3C//DTD SVG 1.1//EN" "http://www.w3.org/Graphics/SVG/1.1/DTD/svg11.dtd">
<svg version="1.1" id="Capa_1" xmlns="http://www.w3.org/2000/svg" xmlns:xlink="http://www.w3.org/1999/xlink" x="0px" y="0px"
	 viewBox="0 0 60 60" style="enable-background:new 0 0 60 60;" xml:space="preserve">
<g>
	<rect y="42" width="60" height="1"/>
	<rect y="25" width="60" height="1"/>
	<rect y="45" width="60" height="1"/>
	<rect y="22" width="60" height="1"/>
	<path d="M0,50.426c0,2.145,1.22,4.007,3,4.939V59h9v-3h36v3h9v-3.635c1.78-0.932,3-2.795,3-4.939V48H0V50.426z M10,57H5v-1h0.574
		H10V57z M55,56v1h-5v-1h4.426H55z"/>
	<rect y="28" width="60" height="12"/>
	<path d="M54.426,12h-0.427H47c0.553,0,1-0.447,1-1s-0.447-1-1-1h-1c-0.553,0-1,0.447-1,1s0.447,1,1,1h-2V9h-2V7.889
		C42,4.09,38.91,1,35.111,1H24.889C21.09,1,18,4.09,18,7.889V9h-2v3h-2c0.553,0,1-0.447,1-1s-0.447-1-1-1h-1c-0.553,0-1,0.447-1,1
		s0.447,1,1,1H6.001H5.574C2.501,12,0,14.501,0,17.574V20h60v-2.426C60,14.501,57.499,12,54.426,12z M42,12h-6v-1h6V12z M24,7.444
		c0-0.442,0.441-0.657,0.777-0.521c3.33,1.377,7.115,1.377,10.445,0C35.559,6.786,36,7.002,36,7.444V9h-2v3h-8V9h-2V7.444z M18,11h6
		v1h-6V11z"/>
	<path d="M12.447,8.895c0.494-0.247,0.694-0.848,0.447-1.342c-0.248-0.494-0.847-0.692-1.342-0.447l-6,3
		c-0.494,0.247-0.694,0.848-0.447,1.342C5.281,11.798,5.634,12,6.001,12c0.15,0,0.303-0.034,0.446-0.105L12.447,8.895z"/>
	<path d="M54.895,11.447c0.247-0.494,0.047-1.095-0.447-1.342l-6-3c-0.493-0.245-1.094-0.047-1.342,0.447
		c-0.247,0.494-0.047,1.095,0.447,1.342l6,3C53.696,11.966,53.849,12,53.999,12C54.366,12,54.719,11.798,54.895,11.447z"/>
</g>
<g>
</g>
<g>
</g>
<g>
</g>
<g>
</g>
<g>
</g>
<g>
</g>
<g>
</g>
<g>
</g>
<g>
</g>
<g>
</g>
<g>
</g>
<g>
</g>
<g>
</g>
<g>
</g>
<g>
</g>
</svg>
