<?xml version="1.0" encoding="iso-8859-1"?>
<!-- Generator: Adobe Illustrator 18.0.0, SVG Export Plug-In . SVG Version: 6.00 Build 0)  -->
<!DOCTYPE svg PUBLIC "-//W3C//DTD SVG 1.1//EN" "http://www.w3.org/Graphics/SVG/1.1/DTD/svg11.dtd">
<svg version="1.1" id="Capa_1" xmlns="http://www.w3.org/2000/svg" xmlns:xlink="http://www.w3.org/1999/xlink" x="0px" y="0px"
	 viewBox="0 0 60 60" style="enable-background:new 0 0 60 60;" xml:space="preserve">
<g>
	<path d="M50,41.101V40c0-0.553-0.448-1-1-1s-1,0.447-1,1v1.105c-1.091,0.222-2.085,0.801-2.818,1.668
		c-0.611,0.722-0.894,1.646-0.794,2.603c0.102,0.979,0.606,1.887,1.383,2.491L48,49.6v5.438c-1.161-0.414-2-1.514-2-2.816
		c0-0.553-0.448-1-1-1s-1,0.447-1,1c0,2.414,1.721,4.434,4,4.899V58c0,0.553,0.448,1,1,1s1-0.447,1-1v-0.882
		c1.091-0.222,2.085-0.801,2.819-1.668c0.611-0.724,0.893-1.648,0.793-2.605c-0.103-0.978-0.606-1.885-1.383-2.488L50,48.622v-5.438
		c1.161,0.414,2,1.514,2,2.816c0,0.553,0.448,1,1,1s1-0.447,1-1C54,43.586,52.279,41.566,50,41.101z M51.001,51.935
		c0.349,0.271,0.576,0.68,0.622,1.118c0.043,0.41-0.075,0.803-0.331,1.105c-0.348,0.411-0.798,0.699-1.292,0.875v-3.878
		L51.001,51.935z M46.999,46.288c-0.35-0.272-0.576-0.681-0.622-1.12c-0.042-0.409,0.075-0.801,0.331-1.104
		c0.348-0.411,0.798-0.699,1.292-0.875v3.877L46.999,46.288z"/>
	<circle cx="30" cy="29.879" r="2"/>
	<path d="M30,0C13.458,0,0,13.458,0,30s13.458,30,30,30c4.908,0,9.54-1.192,13.634-3.291C42.615,55.493,42,53.929,42,52.223
		c0-1.436,1.008-2.636,2.355-2.931c-1.098-0.935-1.807-2.273-1.957-3.71c-0.156-1.503,0.29-2.96,1.256-4.102
		c0.662-0.782,1.476-1.398,2.38-1.821C46.205,38.165,47.46,37,49,37c1.543,0,2.8,1.17,2.967,2.669c2.107,0.992,3.639,3,3.963,5.391
		C58.512,40.63,60,35.487,60,30C60,13.458,46.542,0,30,0z M29,7.879c0-0.553,0.448-1,1-1s1,0.447,1,1v1c0,0.553-0.448,1-1,1
		s-1-0.447-1-1V7.879z M9,30.879H8c-0.552,0-1-0.447-1-1s0.448-1,1-1h1c0.552,0,1,0.447,1,1S9.552,30.879,9,30.879z M15.858,45.435
		l-0.707,0.707c-0.195,0.195-0.451,0.293-0.707,0.293s-0.512-0.098-0.707-0.293c-0.391-0.391-0.391-1.023,0-1.414l0.707-0.707
		c0.391-0.391,1.023-0.391,1.414,0S16.249,45.044,15.858,45.435z M15.858,15.736c-0.195,0.195-0.451,0.293-0.707,0.293
		s-0.512-0.098-0.707-0.293l-0.707-0.707c-0.391-0.391-0.391-1.023,0-1.414s1.023-0.391,1.414,0l0.707,0.707
		C16.249,14.713,16.249,15.346,15.858,15.736z M31,51.879c0,0.553-0.448,1-1,1s-1-0.447-1-1v-1c0-0.553,0.448-1,1-1s1,0.447,1,1
		V51.879z M30,33.879c-1.814,0-3.332-1.221-3.82-2.879H19c-0.552,0-1-0.447-1-1s0.448-1,1-1h7.104
		c0.329-1.458,1.456-2.605,2.896-2.979V15.879c0-0.553,0.448-1,1-1s1,0.447,1,1v10.142c1.72,0.447,3,1.999,3,3.858
		C34,32.085,32.206,33.879,30,33.879z M46.263,15.029l-0.707,0.707c-0.195,0.195-0.451,0.293-0.707,0.293s-0.512-0.098-0.707-0.293
		c-0.391-0.391-0.391-1.023,0-1.414l0.707-0.707c0.391-0.391,1.023-0.391,1.414,0S46.654,14.639,46.263,15.029z M52,30.879h-1
		c-0.552,0-1-0.447-1-1s0.448-1,1-1h1c0.552,0,1,0.447,1,1S52.552,30.879,52,30.879z"/>
</g>
<g>
</g>
<g>
</g>
<g>
</g>
<g>
</g>
<g>
</g>
<g>
</g>
<g>
</g>
<g>
</g>
<g>
</g>
<g>
</g>
<g>
</g>
<g>
</g>
<g>
</g>
<g>
</g>
<g>
</g>
</svg>
