<?xml version="1.0" encoding="iso-8859-1"?>
<!-- Generator: Adobe Illustrator 18.0.0, SVG Export Plug-In . SVG Version: 6.00 Build 0)  -->
<!DOCTYPE svg PUBLIC "-//W3C//DTD SVG 1.1//EN" "http://www.w3.org/Graphics/SVG/1.1/DTD/svg11.dtd">
<svg version="1.1" id="Capa_1" xmlns="http://www.w3.org/2000/svg" xmlns:xlink="http://www.w3.org/1999/xlink" x="0px" y="0px"
	 viewBox="0 0 60 60" style="enable-background:new 0 0 60 60;" xml:space="preserve">
<path d="M56.524,6h-6H3.476C1.559,6,0,7.56,0,9.476v41.049C0,52.44,1.559,54,3.476,54h47.049h6C58.44,54,60,52.44,60,50.524V39v-1
	V23v-2V9.476C60,7.56,58.44,6,56.524,6z M47.5,10H50v2.5c0,0.553-0.447,1-1,1s-1-0.447-1-1V12h-0.5c-0.552,0-1-0.447-1-1
	S46.948,10,47.5,10z M50,16.667v1.5c0,0.553-0.447,1-1,1s-1-0.447-1-1v-1.5c0-0.553,0.447-1,1-1S50,16.114,50,16.667z M40.211,10
	h2.733c0.552,0,1,0.447,1,1s-0.448,1-1,1h-2.733c-0.552,0-1-0.447-1-1S39.659,10,40.211,10z M4,17.229c0-0.553,0.448-1,1-1
	s1,0.447,1,1v2.838c0,0.553-0.448,1-1,1s-1-0.447-1-1V17.229z M4,24.798c0-0.553,0.448-1,1-1s1,0.447,1,1v2.838c0,0.553-0.448,1-1,1
	s-1-0.447-1-1V24.798z M4,32.365c0-0.553,0.448-1,1-1s1,0.447,1,1v2.838c0,0.553-0.448,1-1,1s-1-0.447-1-1V32.365z M4,39.933
	c0-0.553,0.448-1,1-1s1,0.447,1,1v2.838c0,0.553-0.448,1-1,1s-1-0.447-1-1V39.933z M6.5,50H4v-2.5c0-0.553,0.448-1,1-1s1,0.447,1,1
	V48h0.5c0.552,0,1,0.447,1,1S7.052,50,6.5,50z M6.5,12H6v0.5c0,0.553-0.448,1-1,1s-1-0.447-1-1V10h2.5c0.552,0,1,0.447,1,1
	S7.052,12,6.5,12z M13.789,50h-2.733c-0.552,0-1-0.447-1-1s0.448-1,1-1h2.733c0.552,0,1,0.447,1,1S14.341,50,13.789,50z M13.789,12
	h-2.733c-0.552,0-1-0.447-1-1s0.448-1,1-1h2.733c0.552,0,1,0.447,1,1S14.341,12,13.789,12z M21.078,50h-2.733c-0.552,0-1-0.447-1-1
	s0.448-1,1-1h2.733c0.552,0,1,0.447,1,1S21.63,50,21.078,50z M21.078,12h-2.733c-0.552,0-1-0.447-1-1s0.448-1,1-1h2.733
	c0.552,0,1,0.447,1,1S21.63,12,21.078,12z M28.367,50h-2.733c-0.552,0-1-0.447-1-1s0.448-1,1-1h2.733c0.552,0,1,0.447,1,1
	S28.919,50,28.367,50z M28.367,12h-2.733c-0.552,0-1-0.447-1-1s0.448-1,1-1h2.733c0.552,0,1,0.447,1,1S28.919,12,28.367,12z
	 M35.655,50h-2.733c-0.552,0-1-0.447-1-1s0.448-1,1-1h2.733c0.552,0,1,0.447,1,1S36.208,50,35.655,50z M35.656,12h-2.733
	c-0.552,0-1-0.447-1-1s0.448-1,1-1h2.733c0.552,0,1,0.447,1,1S36.208,12,35.656,12z M42.944,50h-2.733c-0.552,0-1-0.447-1-1
	s0.448-1,1-1h2.733c0.552,0,1,0.447,1,1S43.497,50,42.944,50z M50,50h-2.5c-0.552,0-1-0.447-1-1s0.448-1,1-1H48v-0.5
	c0-0.553,0.447-1,1-1s1,0.447,1,1V50z M50,43.333c0,0.553-0.447,1-1,1s-1-0.447-1-1v-1.5c0-0.553,0.447-1,1-1s1,0.447,1,1V43.333z
	 M51,21c-4.962,0-9,4.037-9,9s4.038,9,9,9h7v11.524C58,51.338,57.338,52,56.524,52h-2.854c0.009-0.019,0.012-0.041,0.021-0.06
	c0.065-0.145,0.111-0.297,0.155-0.452c0.022-0.077,0.054-0.149,0.071-0.229C53.97,51.022,54,50.777,54,50.524V42v-1h-3
	c-6.065,0-11-4.935-11-11s4.935-11,11-11h3v-1V9.476c0-0.253-0.03-0.498-0.082-0.735c-0.017-0.079-0.049-0.152-0.071-0.229
	c-0.045-0.154-0.091-0.307-0.155-0.452C53.683,8.041,53.68,8.019,53.671,8h2.854C57.338,8,58,8.662,58,9.476V21H51z M56,30
	c0,2.757-2.243,5-5,5s-5-2.243-5-5s2.243-5,5-5S56,27.243,56,30z"/>
<g>
</g>
<g>
</g>
<g>
</g>
<g>
</g>
<g>
</g>
<g>
</g>
<g>
</g>
<g>
</g>
<g>
</g>
<g>
</g>
<g>
</g>
<g>
</g>
<g>
</g>
<g>
</g>
<g>
</g>
</svg>
