<?xml version="1.0" encoding="iso-8859-1"?>
<!-- Generator: Adobe Illustrator 18.0.0, SVG Export Plug-In . SVG Version: 6.00 Build 0)  -->
<!DOCTYPE svg PUBLIC "-//W3C//DTD SVG 1.1//EN" "http://www.w3.org/Graphics/SVG/1.1/DTD/svg11.dtd">
<svg version="1.1" id="Capa_1" xmlns="http://www.w3.org/2000/svg" xmlns:xlink="http://www.w3.org/1999/xlink" x="0px" y="0px"
	 viewBox="0 0 57 57" style="enable-background:new 0 0 57 57;" xml:space="preserve">
<g>
	<path d="M38,26c0-3.859-3.141-7-7-7v17c3.859,0,7-3.141,7-7V26z"/>
	<path d="M54,4h-2H7v13h24c4.963,0,9,4.037,9,9v3c0,4.963-4.037,9-9,9H12H9H7v4H5c-1.654,0-3-1.346-3-3s1.346-3,3-3h1h1h2h3h17V19
		H5.751C2.58,19,0,21.58,0,24.751V39c0,2.757,2.243,5,5,5h2v9h45h2h3V4H54z M52,51h-8c0-4.418,3.582-8,8-8V51z M52,14
		c-4.418,0-8-3.582-8-8h8V14z M55,51h-1V6h1V51z"/>
</g>
<g>
</g>
<g>
</g>
<g>
</g>
<g>
</g>
<g>
</g>
<g>
</g>
<g>
</g>
<g>
</g>
<g>
</g>
<g>
</g>
<g>
</g>
<g>
</g>
<g>
</g>
<g>
</g>
<g>
</g>
</svg>
